<?xml version="1.0" encoding="UTF-8" standalone="no"?>
<!-- Generator: Adobe Illustrator 13.0.2, SVG Export Plug-In . SVG Version: 6.00 Build 14948)  -->

<svg
   version="1.0"
   id="Layer_1"
   x="0px"
   y="0px"
   width="256"
   height="64"
   viewBox="5.5 -3.5 256 64"
   enable-background="new 5.5 -3.5 64 64"
   xml:space="preserve"
   sodipodi:docname="gratis_oa_3.svg"
   inkscape:version="1.3 (0e150ed, 2023-07-21)"
   xmlns:inkscape="http://www.inkscape.org/namespaces/inkscape"
   xmlns:sodipodi="http://sodipodi.sourceforge.net/DTD/sodipodi-0.dtd"
   xmlns="http://www.w3.org/2000/svg"
   xmlns:svg="http://www.w3.org/2000/svg"><defs
   id="defs1" /><sodipodi:namedview
   id="namedview1"
   pagecolor="#ffffff"
   bordercolor="#000000"
   borderopacity="0.25"
   inkscape:showpageshadow="2"
   inkscape:pageopacity="0.0"
   inkscape:pagecheckerboard="0"
   inkscape:deskcolor="#d1d1d1"
   inkscape:zoom="2.1359948"
   inkscape:cx="114.93473"
   inkscape:cy="26.685458"
   inkscape:window-width="1472"
   inkscape:window-height="821"
   inkscape:window-x="0"
   inkscape:window-y="37"
   inkscape:window-maximized="0"
   inkscape:current-layer="Layer_1" />&#10;&#10;<rect
   style="fill:#000000;stroke:#000000;stroke-width:2.63642"
   id="rect2"
   width="253.39062"
   height="3.1335788"
   x="6.7911582"
   y="-2.1817908" /><rect
   style="fill:#000000;stroke:#000000;stroke-width:1.10691"
   id="rect3"
   width="4.6630907"
   height="57.123089"
   x="6.0264034"
   y="2.8234539" /><rect
   style="fill:#000000;stroke:#000000;stroke-width:2.61517"
   id="rect4"
   width="247.64188"
   height="3.1548328"
   x="12.550532"
   y="56.037586" /><rect
   style="fill:#000000;stroke:#000000;stroke-width:1.05578"
   id="rect5"
   width="4.7142196"
   height="51.404224"
   x="256.25787"
   y="2.7978868" /><path
   style="font-weight:600;font-size:40px;font-family:Silka;-inkscape-font-specification:'Silka, Semi-Bold';letter-spacing:0px;stroke:#000000;stroke-width:1.00157"
   d="m 42.600176,43.02 c 8.4,0 14.52,-5.68 14.28,-15.6 h -14.8 v 4.4 h 8.88 c -0.4,3.56 -3.8,6.24 -8.36,6.24 -5.48,0 -9.16,-4.08 -9.16,-9.56 0,-5.4 3.64,-9.44 9.12,-9.44 3.88,0 6.68,2 7.8,4.8 h 5.84 c -1.52,-5.64 -6.56,-9.88 -13.64,-9.88 -8.56,0 -14.64,6.28 -14.64,14.52 0,8.32 6.08,14.52 14.68,14.52 z M 61.760155,42.5 h 5.32 v -10 h 4.52 l 5.24,10 h 5.96 l -6.16,-10.92 c 2.96,-1.32 5.24,-4.28 5.24,-8.16 0,-5.28 -3.92,-8.92 -9.64,-8.92 h -10.48 z m 5.32,-14.56 v -8.88 h 4.68 c 2.96,0 4.68,1.84 4.68,4.36 0,2.96 -1.96,4.52 -4.6,4.52 z M 84.840108,42.5 h 5.48 l 1.92,-5.52 h 11.640002 l 1.96,5.52 h 5.64 l -10,-28 h -6.680002 z m 8.96,-10.28 4.12,-11.8 h 0.32 l 4.120002,11.8 z M 119.04006,42.5 h 5.32 V 19.18 h 8.12 V 14.5 h -21.48 v 4.68 h 8.04 z m 17.67996,0 h 5.32 v -28 h -5.32 z m 20.43994,0.52 c 6.72,0 10.56,-3.72 10.56,-8.68 0,-11.32 -15.08,-6.52 -15.08,-12.36 0,-1.76 1.44,-3.24 4.4,-3.24 3,0 4.64,1.56 4.68,3.88 h 5.32 c -0.16,-5.84 -4.68,-8.64 -10,-8.64 -6.16,0 -9.68,3.64 -9.68,8.08 0,11.44 14.88,6.28 14.88,12.68 0,2.12 -1.92,3.4 -4.92,3.4 -3.52,0 -5.6,-1.96 -5.64,-4.48 h -5.16 c 0,5.56 4.24,9.36 10.64,9.36 z m 39.15995,0 c 8.48,0 14.8,-6.28 14.8,-14.52 0,-8.16 -6.28,-14.52 -14.76,-14.52 -8.48,0 -14.76,6.28 -14.76,14.52 0,8.32 6.24,14.52 14.72,14.52 z m 0.04,-5.08 c -5.4,0 -9.24,-4 -9.24,-9.44 0,-5.36 3.84,-9.44 9.24,-9.44 5.36,0 9.2,4.08 9.2,9.44 0,5.44 -3.84,9.44 -9.2,9.44 z m 16.07991,4.56 h 5.48 l 1.92,-5.52 h 11.64 l 1.96,5.52 h 5.64 l -10,-28 h -6.68 z m 8.96,-10.28 4.12,-11.8 h 0.32 l 4.12,11.8 z"
   id="text1"
   aria-label="GRATIS OA" /></svg>
