<?xml version="1.0" encoding="UTF-8" standalone="no"?>
<!-- Generator: Adobe Illustrator 13.0.2, SVG Export Plug-In . SVG Version: 6.00 Build 14948)  -->

<svg
   version="1.1"
   id="Layer_1"
   x="0px"
   y="0px"
   width="128"
   height="64"
   viewBox="-0.5 0.5 128 64"
   enable-background="new -0.5 0.5 64 64"
   xml:space="preserve"
   sodipodi:docname="gratis_oa.svg"
   inkscape:version="1.2.2 (b0a8486541, 2022-12-01)"
   xmlns:inkscape="http://www.inkscape.org/namespaces/inkscape"
   xmlns:sodipodi="http://sodipodi.sourceforge.net/DTD/sodipodi-0.dtd"
   xmlns="http://www.w3.org/2000/svg"
   xmlns:svg="http://www.w3.org/2000/svg"><defs
   id="defs103" /><sodipodi:namedview
   id="namedview101"
   pagecolor="#ffffff"
   bordercolor="#000000"
   borderopacity="0.25"
   inkscape:showpageshadow="2"
   inkscape:pageopacity="0.0"
   inkscape:pagecheckerboard="0"
   inkscape:deskcolor="#d1d1d1"
   showgrid="false"
   inkscape:zoom="6.15625"
   inkscape:cx="100.62944"
   inkscape:cy="11.370558"
   inkscape:window-width="1920"
   inkscape:window-height="1015"
   inkscape:window-x="0"
   inkscape:window-y="0"
   inkscape:window-maximized="1"
   inkscape:current-layer="g98" />
<g
   id="g98">
	<path
   id="rect1053"
   style="opacity:1;fill:#000000;stroke-width:0.821"
   d="M -0.5 0.5 L -0.5 64.5 L 127.5 64.5 L 127.5 0.5 L -0.5 0.5 z M 5.5 6.5 L 121.5 6.5 L 121.5 58.5 L 5.5 58.5 L 5.5 6.5 z " />
	
	
<text
   xml:space="preserve"
   style="font-size:35.8921px;font-family:'CC Accidenz Commons';-inkscape-font-specification:'CC Accidenz Commons';opacity:1;fill:#000000;stroke-width:1.00457"
   x="7.203208"
   y="35.377556"
   id="text1395"><tspan
     sodipodi:role="line"
     id="tspan1393"
     x="7.203208"
     y="35.377556"
     style="font-size:35.8921px;fill:#000000;stroke-width:1.00457">GRATIS</tspan></text><g
   id="g1574"
   style="fill:#000000"
   transform="translate(3.1280517e-7,1.457849)"><g
     id="g3050"><path
       d="m 10.209295,43.982384 c 0,3.433441 1.882186,5.501779 5.02606,5.501779 3.30934,0 5.336311,-2.151072 5.336311,-5.667246 0,-3.454123 -1.944237,-5.543145 -5.15016,-5.543145 -3.247291,0 -5.212211,2.151071 -5.212211,5.708612 z M 12.794716,43.8376 c 0,-2.399271 0.868702,-3.640274 2.50269,-3.640274 1.758086,0 2.668155,1.28237 2.668155,3.743691 0,2.378588 -0.889385,3.619591 -2.606106,3.619591 -1.696037,0 -2.564739,-1.28237 -2.564739,-3.723008 z"
       id="path1453"
       style="font-size:17.4555px;font-family:'CC Accidenz Commons';-inkscape-font-specification:'CC Accidenz Commons';opacity:1;fill:#000000;stroke-width:0.578901" /><path
       d="m 22.236679,38.521972 v 14.602465 h 2.585423 l -0.02069,-3.640274 -0.04137,-1.241003 h 0.124101 c 0.537768,0.785968 1.46852,1.241003 2.626789,1.241003 2.916356,0 4.839911,-2.109705 4.839911,-5.625879 0,-3.474808 -1.820137,-5.584512 -4.571027,-5.584512 -1.40647,0 -2.482006,0.517085 -3.12319,1.551254 h -0.206834 v -1.303054 z m 2.399272,5.315628 c 0,-2.357904 0.992802,-3.619591 2.544056,-3.619591 1.675353,0 2.626788,1.468521 2.626788,3.785058 0,2.233805 -0.868702,3.578225 -2.544055,3.578225 -1.551254,0 -2.626789,-1.323736 -2.626789,-3.743692 z"
       id="path1455"
       style="font-size:17.4555px;font-family:'CC Accidenz Commons';-inkscape-font-specification:'CC Accidenz Commons';opacity:1;fill:#000000;stroke-width:0.578901" /><path
       d="m 34.233031,44.023751 c 0,3.392074 1.923553,5.460412 5.15016,5.460412 2.378589,0 4.012575,-1.178954 4.777861,-3.433441 l -2.254489,-0.496401 c -0.537768,1.447836 -1.261685,2.006287 -2.440638,2.006287 -1.551253,0 -2.585422,-0.992802 -2.750889,-3.226607 h 7.383965 v -0.413668 c -0.10342,-3.578223 -1.77877,-5.646561 -4.777859,-5.646561 -3.06114,0 -5.088111,2.357905 -5.088111,5.749979 z m 4.90196,-3.826425 c 1.303053,0 2.109704,0.806652 2.399271,2.461322 h -4.881277 c 0.289567,-1.551253 1.22032,-2.461322 2.482006,-2.461322 z"
       id="path1457"
       style="font-size:17.4555px;font-family:'CC Accidenz Commons';-inkscape-font-specification:'CC Accidenz Commons';opacity:1;fill:#000000;stroke-width:0.578901" /><path
       d="m 49.052667,49.235962 v -5.853396 c 0,-2.213121 0.827335,-3.18524 2.233804,-3.18524 1.15827,0 1.861505,0.723918 1.861505,2.68884 v 6.349796 h 2.585422 v -7.094398 c 0,-2.606106 -1.406469,-3.867792 -3.640274,-3.867792 -1.34442,0 -2.419956,0.558452 -3.081824,1.758087 h -0.165467 v -1.509887 h -2.378588 v 10.71399 z"
       id="path1459"
       style="font-size:17.4555px;font-family:'CC Accidenz Commons';-inkscape-font-specification:'CC Accidenz Commons';opacity:1;fill:#000000;stroke-width:0.578901" /><path
       d="m 62.745053,41.789946 h 2.564739 c 0.08273,-1.261685 0.827335,-1.778771 2.233805,-1.778771 1.303052,0 1.923554,0.537768 1.96492,2.109705 -1.199635,0.558452 -2.233804,0.620501 -3.43344,0.848019 -2.357905,0.455033 -3.37139,1.489202 -3.37139,3.309339 0,1.820138 1.489203,3.205925 3.578223,3.205925 1.15827,0 2.213123,-0.289568 3.123191,-1.365103 h 0.18615 c 0.02069,0.455034 0.06205,0.785968 0.165467,1.116902 h 2.399272 v -0.206834 c -0.537768,-1.427153 -0.330934,-3.950525 -0.330934,-7.197815 0,-2.378588 -1.944238,-3.557541 -4.322826,-3.557541 -3.081824,0 -4.59171,1.447836 -4.757177,3.516174 z m 4.157359,5.894762 c -1.303052,0 -1.84082,-0.703235 -1.84082,-1.509886 0,-0.806652 0.496401,-1.385787 1.882187,-1.675354 1.158269,-0.227517 1.737403,-0.372301 2.544056,-0.806651 0.02068,0.475717 0.02068,0.992802 0.02068,1.592619 0,0.765286 -0.268884,1.323736 -0.827336,1.758088 -0.455034,0.351617 -1.034168,0.641184 -1.77877,0.641184 z"
       id="path1461"
       style="font-size:17.4555px;font-family:'CC Accidenz Commons';-inkscape-font-specification:'CC Accidenz Commons';opacity:1;fill:#000000;stroke-width:0.578901" /><path
       d="m 78.521296,49.484163 c 2.564739,0 4.322825,-1.22032 4.943326,-3.454125 l -2.544054,-0.455034 c -0.206834,1.34442 -0.930752,1.985604 -2.233805,1.985604 -1.53057,0 -2.337221,-1.28237 -2.337221,-3.723008 0,-2.378588 0.785968,-3.619591 2.275171,-3.619591 1.344419,0 2.068338,0.661868 2.275172,2.006289 l 2.544055,-0.434352 c -0.641187,-2.275172 -2.275172,-3.516174 -4.653761,-3.516174 -3.143873,0 -5.026061,2.171755 -5.026061,5.749979 0,3.412757 1.77877,5.460412 4.757178,5.460412 z"
       id="path1463"
       style="font-size:17.4555px;font-family:'CC Accidenz Commons';-inkscape-font-specification:'CC Accidenz Commons';opacity:1;fill:#000000;stroke-width:0.578901" /><path
       d="m 89.705827,49.484163 c 2.564738,0 4.322826,-1.22032 4.943327,-3.454125 l -2.544056,-0.455034 c -0.206834,1.34442 -0.930752,1.985604 -2.233804,1.985604 -1.53057,0 -2.337222,-1.28237 -2.337222,-3.723008 0,-2.378588 0.785968,-3.619591 2.275171,-3.619591 1.344421,0 2.068338,0.661868 2.275172,2.006289 l 2.544055,-0.434352 c -0.641184,-2.275172 -2.275172,-3.516174 -4.653759,-3.516174 -3.143874,0 -5.026061,2.171755 -5.026061,5.749979 0,3.412757 1.778771,5.460412 4.757177,5.460412 z"
       id="path1465"
       style="font-size:17.4555px;font-family:'CC Accidenz Commons';-inkscape-font-specification:'CC Accidenz Commons';opacity:1;fill:#000000;stroke-width:0.578901" /><path
       d="m 96.019422,44.023751 c 0,3.392074 1.923553,5.460412 5.150158,5.460412 2.37859,0 4.01257,-1.178954 4.77786,-3.433441 l -2.25449,-0.496401 c -0.53777,1.447836 -1.26169,2.006287 -2.44064,2.006287 -1.551247,0 -2.585416,-0.992802 -2.750883,-3.226607 h 7.383963 v -0.413668 c -0.10342,-3.578223 -1.77877,-5.646561 -4.77786,-5.646561 -3.061137,0 -5.088108,2.357905 -5.088108,5.749979 z m 4.901958,-3.826425 c 1.30305,0 2.1097,0.806652 2.39927,2.461322 h -4.881273 c 0.289568,-1.551253 1.22032,-2.461322 2.482003,-2.461322 z"
       id="path1467"
       style="font-size:17.4555px;font-family:'CC Accidenz Commons';-inkscape-font-specification:'CC Accidenz Commons';opacity:1;fill:#000000;stroke-width:0.578901" /><path
       d="m 112.34378,49.484163 c 2.6061,0 4.3435,-1.365103 4.3435,-3.392074 0,-1.613304 -0.97212,-2.730206 -2.95772,-3.143874 l -2.10971,-0.43435 c -0.82733,-0.165467 -1.22031,-0.496401 -1.22031,-1.158269 0,-0.661868 0.59982,-1.178953 1.75809,-1.178953 1.19964,0 1.98559,0.579134 2.46132,1.77877 l 2.17175,-0.972118 c -0.51708,-1.592621 -2.15106,-2.709523 -4.55034,-2.709523 -2.41995,0 -4.24009,1.427153 -4.24009,3.350707 0,1.489203 0.97212,2.461321 2.87499,2.874989 l 1.94423,0.455034 c 1.03418,0.206834 1.42715,0.744602 1.42715,1.323736 0,0.785969 -0.64118,1.303054 -1.7374,1.303054 -1.46852,0 -2.17175,-0.558452 -2.73021,-1.902871 l -2.2338,1.075536 c 0.70324,1.675353 2.46132,2.730206 4.79855,2.730206 z"
       id="path1469"
       style="font-size:17.4555px;font-family:'CC Accidenz Commons';-inkscape-font-specification:'CC Accidenz Commons';opacity:1;fill:#000000;stroke-width:0.578901" /></g></g></g>
</svg>
