<?xml version="1.0" encoding="UTF-8" standalone="no"?>
<!-- Generator: Adobe Illustrator 13.0.2, SVG Export Plug-In . SVG Version: 6.00 Build 14948)  -->

<svg
   version="1.0"
   id="Layer_1"
   x="0px"
   y="0px"
   width="64px"
   height="64px"
   viewBox="11 -7 64 64"
   enable-background="new 11 -7 64 64"
   xml:space="preserve"
   sodipodi:docname="nd.svg"
   inkscape:version="1.3 (0e150ed, 2023-07-21)"
   xmlns:inkscape="http://www.inkscape.org/namespaces/inkscape"
   xmlns:sodipodi="http://sodipodi.sourceforge.net/DTD/sodipodi-0.dtd"
   xmlns="http://www.w3.org/2000/svg"
   xmlns:svg="http://www.w3.org/2000/svg"><defs
   id="defs2" /><sodipodi:namedview
   id="namedview2"
   pagecolor="#ffffff"
   bordercolor="#000000"
   borderopacity="0.25"
   inkscape:showpageshadow="2"
   inkscape:pageopacity="0.0"
   inkscape:pagecheckerboard="0"
   inkscape:deskcolor="#d1d1d1"
   inkscape:zoom="3.6875"
   inkscape:cx="31.864407"
   inkscape:cy="31.864407"
   inkscape:window-width="1472"
   inkscape:window-height="822"
   inkscape:window-x="0"
   inkscape:window-y="37"
   inkscape:window-maximized="1"
   inkscape:current-layer="Layer_1" />&#10;<g
   id="g2"
   transform="translate(5.5,-3.5)">&#10;	<circle
   fill="#ffffff"
   cx="37.563999"
   cy="28.288"
   r="29.013"
   id="circle1" />&#10;	<g
   id="g1">&#10;		<path
   d="m 37.443,-3.5 c 8.951,0 16.531,3.105 22.742,9.315 6.208,6.172 9.315,13.733 9.315,22.685 0,8.954 -3.049,16.457 -9.145,22.514 C 53.918,57.338 46.279,60.5 37.443,60.5 28.794,60.5 21.29,57.357 14.929,51.07 8.644,44.786 5.5,37.264 5.5,28.501 5.5,19.778 8.644,12.216 14.929,5.816 21.138,-0.395 28.643,-3.5 37.443,-3.5 Z m 0.114,5.772 c -7.276,0 -13.428,2.572 -18.457,7.715 -5.22,5.296 -7.829,11.467 -7.829,18.513 0,7.125 2.59,13.257 7.77,18.4 5.181,5.182 11.352,7.771 18.514,7.771 7.123,0 13.334,-2.608 18.629,-7.828 5.029,-4.876 7.543,-10.989 7.543,-18.343 0,-7.313 -2.553,-13.485 -7.656,-18.513 C 51.004,4.842 44.832,2.272 37.557,2.272 Z m 12.058,18.684 v 5.486 H 26.358 v -5.486 z m 0,10.287 v 5.483 H 26.358 v -5.483 z"
   id="path1" />&#10;	</g>&#10;</g>&#10;</svg>
