<?xml version="1.0" encoding="UTF-8" standalone="no"?>
<!-- Generator: Adobe Illustrator 13.0.2, SVG Export Plug-In . SVG Version: 6.00 Build 14948)  -->

<svg
   version="1.0"
   id="Layer_1"
   x="0px"
   y="0px"
   width="384"
   height="64"
   viewBox="5.5 -3.5 384 64"
   enable-background="new 5.5 -3.5 64 64"
   xml:space="preserve"
   sodipodi:docname="other_license_2_en.svg"
   inkscape:version="1.3 (0e150ed, 2023-07-21)"
   xmlns:inkscape="http://www.inkscape.org/namespaces/inkscape"
   xmlns:sodipodi="http://sodipodi.sourceforge.net/DTD/sodipodi-0.dtd"
   xmlns="http://www.w3.org/2000/svg"
   xmlns:svg="http://www.w3.org/2000/svg"><defs
   id="defs1" /><sodipodi:namedview
   id="namedview1"
   pagecolor="#ffffff"
   bordercolor="#000000"
   borderopacity="0.25"
   inkscape:showpageshadow="2"
   inkscape:pageopacity="0.0"
   inkscape:pagecheckerboard="0"
   inkscape:deskcolor="#d1d1d1"
   inkscape:zoom="1.6683445"
   inkscape:cx="187.91083"
   inkscape:cy="17.981898"
   inkscape:window-width="1472"
   inkscape:window-height="821"
   inkscape:window-x="0"
   inkscape:window-y="37"
   inkscape:window-maximized="0"
   inkscape:current-layer="Layer_1"
   showguides="false" />&#10;&#10;<rect
   style="fill:#000000;stroke:#000000;stroke-width:3.02549"
   id="rect2"
   width="381.00156"
   height="2.744513"
   x="6.9856911"
   y="-1.9872581" /><rect
   style="fill:#000000;stroke:#000000;stroke-width:1.10691"
   id="rect3"
   width="4.6630907"
   height="57.123089"
   x="6.0264034"
   y="2.8234539" /><rect
   style="fill:#000000;stroke:#000000;stroke-width:3.01065"
   id="rect4"
   width="375.2464"
   height="2.7593472"
   x="12.748275"
   y="56.235329" /><rect
   style="fill:#000000;stroke:#000000;stroke-width:1.05578"
   id="rect5"
   width="4.7142196"
   height="51.404224"
   x="384.2579"
   y="2.7978892" /><path
   style="font-weight:600;font-size:42.6667px;font-family:Silka;-inkscape-font-specification:'Silka, Semi-Bold';letter-spacing:0px;stroke:#000000;stroke-width:1.00157"
   d="m 47.164196,43.988013 c 9.045341,0 15.786679,-6.698672 15.786679,-15.488012 0,-8.704006 -6.698672,-15.488011 -15.744012,-15.488011 -9.04534,0 -15.744012,6.698671 -15.744012,15.488011 0,8.874674 6.656005,15.488012 15.701345,15.488012 z m 0.04267,-5.418671 c -5.760004,0 -9.856007,-4.26667 -9.856007,-10.069341 0,-5.717337 4.096003,-10.069341 9.856007,-10.069341 5.717338,0 9.813341,4.352004 9.813341,10.069341 0,5.802671 -4.096003,10.069341 -9.813341,10.069341 z m 26.495976,4.864004 H 79.37751 V 18.558661 h 8.66134 V 13.566657 H 65.126833 v 4.992004 h 8.576006 z m 18.858643,0 h 5.674671 V 31.017337 h 13.226677 v 12.416009 h 5.67467 V 13.566657 h -5.67467 V 25.641333 H 98.236153 V 13.566657 h -5.674671 z m 31.317318,0 h 18.73068 v -4.906671 h -13.05601 v -7.765339 h 10.79468 v -4.864003 h -10.79468 v -7.424006 h 12.62935 v -4.90667 H 123.8788 Z m 23.93598,0 h 5.67467 V 32.766671 h 4.82134 l 5.58933,10.666675 h 6.35734 l -6.57067,-11.648009 c 3.15734,-1.408001 5.58934,-4.565337 5.58934,-8.704006 0,-5.632005 -4.18134,-9.514674 -10.28268,-9.514674 h -11.17867 z m 5.67467,-15.530678 V 18.43066 h 4.992 c 3.15734,0 4.99201,1.962669 4.99201,4.650671 0,3.157335 -2.09067,4.821337 -4.90667,4.821337 z m 32.98128,15.530678 h 17.74935 V 38.398675 H 192.1454 V 13.566657 h -5.67467 z m 22.86932,0 h 5.67468 V 13.566657 h -5.67468 z m 25.98388,0.554667 c 7.68001,0 13.35468,-4.608004 14.80535,-11.050675 h -6.22934 c -1.19467,3.413336 -4.48001,5.632004 -8.53334,5.632004 -5.63201,0 -9.72801,-4.224003 -9.72801,-10.069341 0,-5.760004 4.096,-10.069341 9.72801,-10.069341 4.096,0 7.33867,2.261336 8.448,5.717338 h 6.14401 c -1.536,-6.400005 -6.91201,-11.136008 -14.59201,-11.136008 -9.13068,0 -15.61601,6.698671 -15.61601,15.488011 0,8.874674 6.44267,15.488012 15.57334,15.488012 z m 20.01062,-0.554667 h 18.73068 v -4.906671 h -13.05601 v -7.765339 h 10.79467 v -4.864003 h -10.79467 v -7.424006 h 12.62934 v -4.90667 h -18.30401 z m 23.93597,0 h 5.54667 V 22.995997 h 0.256 l 12.71468,20.437349 h 6.22934 V 13.566657 h -5.50401 v 20.437348 h -0.256 L 285.45719,13.566657 h -6.18667 z m 45.52532,0.554667 c 7.68001,0 13.35468,-4.608004 14.80534,-11.050675 h -6.22933 c -1.19467,3.413336 -4.48001,5.632004 -8.53334,5.632004 -5.63201,0 -9.72801,-4.224003 -9.72801,-10.069341 0,-5.760004 4.096,-10.069341 9.72801,-10.069341 4.096,0 7.33867,2.261336 8.448,5.717338 h 6.14401 c -1.536,-6.400005 -6.91201,-11.136008 -14.59201,-11.136008 -9.13068,0 -15.61602,6.698671 -15.61602,15.488011 0,8.874674 6.44268,15.488012 15.57335,15.488012 z m 20.01063,-0.554667 h 18.73068 v -4.906671 h -13.05601 v -7.765339 h 10.79468 v -4.864003 h -10.79468 v -7.424006 h 12.62934 v -4.90667 h -18.30401 z"
   id="text1"
   aria-label="OTHER LICENCE" /></svg>
