<?xml version="1.0" encoding="UTF-8" standalone="no"?>
<!-- Generator: Adobe Illustrator 13.0.2, SVG Export Plug-In . SVG Version: 6.00 Build 14948)  -->

<svg
   version="1.0"
   id="Layer_1"
   x="0px"
   y="0px"
   width="320"
   height="64"
   viewBox="5.5 -3.5 320 64"
   enable-background="new 5.5 -3.5 64 64"
   xml:space="preserve"
   sodipodi:docname="other_license_2_cs.svg"
   inkscape:version="1.3 (0e150ed, 2023-07-21)"
   xmlns:inkscape="http://www.inkscape.org/namespaces/inkscape"
   xmlns:sodipodi="http://sodipodi.sourceforge.net/DTD/sodipodi-0.dtd"
   xmlns="http://www.w3.org/2000/svg"
   xmlns:svg="http://www.w3.org/2000/svg"><defs
   id="defs1" /><sodipodi:namedview
   id="namedview1"
   pagecolor="#ffffff"
   bordercolor="#000000"
   borderopacity="0.25"
   inkscape:showpageshadow="2"
   inkscape:pageopacity="0.0"
   inkscape:pagecheckerboard="0"
   inkscape:deskcolor="#d1d1d1"
   inkscape:zoom="1.5298564"
   inkscape:cx="151.32139"
   inkscape:cy="0"
   inkscape:window-width="1472"
   inkscape:window-height="821"
   inkscape:window-x="0"
   inkscape:window-y="37"
   inkscape:window-maximized="0"
   inkscape:current-layer="Layer_1"
   showguides="false" />&#10;&#10;<rect
   style="fill:#000000;stroke:#000000;stroke-width:2.84823"
   id="rect2"
   width="317.17883"
   height="2.9217732"
   x="6.8970609"
   y="-2.0758882" /><rect
   style="fill:#000000;stroke:#000000;stroke-width:1.10691"
   id="rect3"
   width="4.6630907"
   height="57.123089"
   x="6.0264034"
   y="2.8234539" /><rect
   style="fill:#000000;stroke:#000000;stroke-width:2.83072"
   id="rect4"
   width="311.42633"
   height="2.9392779"
   x="12.65831"
   y="56.145363" /><rect
   style="fill:#000000;stroke:#000000;stroke-width:1.05578"
   id="rect5"
   width="4.7142196"
   height="51.404224"
   x="320.2579"
   y="2.7978885" /><path
   style="font-weight:600;font-size:40px;font-family:Silka;-inkscape-font-specification:'Silka, Semi-Bold';letter-spacing:0px;stroke:#000000;stroke-width:1.00157"
   d="m 39.580297,47.34 c 6.32,0 9.84,-4.08 9.84,-9.64 V 18.82 h -14.88 v 4.68 h 9.56 v 14.08 c 0,2.4 -1.28,4.88 -4.52,4.88 -2.8,0 -4.48,-1.68 -4.52,-4.12 h -5.08 c 0.04,5.56 3.88,9 9.6,9 z m 15.83993,-0.52 h 5.32 v -28 h -5.32 z m 11.639939,0 h 5.2 V 27.66 h 0.24 l 11.92,19.16 h 5.84 v -28 h -5.16 v 19.16 h -0.24 l -12,-19.16 h -5.8 z M 105.22012,15.5 h 3.64 l 3.68,-5.8400003 h -5.2 z M 94.020124,46.82 h 5.48 l 1.919996,-5.52 h 11.64 l 1.96,5.52 h 5.64 l -10,-28 h -6.68 z m 8.959996,-10.28 4.12,-11.8 h 0.32 l 4.12,11.8 z m 32.03995,10.28 h 16.64 V 42.1 h -11.32 V 18.82 h -5.32 z m 21.43997,0 h 5.32 v -28 h -5.32 z m 24.35987,0.52 c 7.2,0 12.52,-4.32 13.88,-10.36 h -5.84 c -1.12,3.2 -4.2,5.28 -8,5.28 -5.28,0 -9.12,-3.96 -9.12,-9.44 0,-5.4 3.84,-9.44 9.12,-9.44 3.84,0 6.88,2.12 7.92,5.36 h 5.76 c -1.44,-6 -6.48,-10.44 -13.68,-10.44 -8.56,0 -14.64,6.28 -14.64,14.52 0,8.32 6.04,14.52 14.6,14.52 z m 18.75994,-0.52 h 17.56 v -4.6 h -12.24 v -7.28 h 10.12 v -4.56 h -10.12 v -6.96 h 11.84 v -4.6 h -17.16 z m 22.43996,0 h 5.2 V 27.66 h 0.24 l 11.92,19.16 h 5.84 v -28 h -5.16 v 19.16 h -0.24 l -12,-19.16 h -5.8 z m 42.67995,0.52 c 7.2,0 12.52,-4.32 13.88,-10.36 h -5.84 c -1.12,3.2 -4.2,5.28 -8,5.28 -5.28,0 -9.12,-3.96 -9.12,-9.44 0,-5.4 3.84,-9.44 9.12,-9.44 3.84,0 6.88,2.12 7.92,5.36 h 5.76 c -1.44,-6 -6.48,-10.44 -13.68,-10.44 -8.56,0 -14.64,6.28 -14.64,14.52 0,8.32 6.04,14.52 14.6,14.52 z m 18.75994,-0.52 h 17.56 v -4.6 h -12.24 v -7.28 h 10.12 v -4.56 h -10.12 v -6.96 h 11.84 v -4.6 h -17.16 z"
   id="text1"
   aria-label="JINÃ LICENCE" /></svg>
