<?xml version="1.0" encoding="UTF-8" standalone="no"?>
<!-- Generator: Adobe Illustrator 13.0.2, SVG Export Plug-In . SVG Version: 6.00 Build 14948)  -->

<svg
   version="1.0"
   id="Layer_1"
   x="0px"
   y="0px"
   width="64px"
   height="64px"
   viewBox="5.5 -3.5 64 64"
   enable-background="new 5.5 -3.5 64 64"
   xml:space="preserve"
   sodipodi:docname="sa_square.svg"
   inkscape:version="1.2.2 (b0a8486541, 2022-12-01)"
   xmlns:inkscape="http://www.inkscape.org/namespaces/inkscape"
   xmlns:sodipodi="http://sodipodi.sourceforge.net/DTD/sodipodi-0.dtd"
   xmlns="http://www.w3.org/2000/svg"
   xmlns:svg="http://www.w3.org/2000/svg"><defs
   id="defs2535" /><sodipodi:namedview
   id="namedview2533"
   pagecolor="#ffffff"
   bordercolor="#000000"
   borderopacity="0.25"
   inkscape:showpageshadow="2"
   inkscape:pageopacity="0.0"
   inkscape:pagecheckerboard="0"
   inkscape:deskcolor="#d1d1d1"
   showgrid="false"
   inkscape:zoom="12.3125"
   inkscape:cx="20.507614"
   inkscape:cy="32"
   inkscape:window-width="1920"
   inkscape:window-height="1015"
   inkscape:window-x="0"
   inkscape:window-y="0"
   inkscape:window-maximized="1"
   inkscape:current-layer="g2528" />
<g
   id="g2530">
	<circle
   fill="#FFFFFF"
   cx="36.944"
   cy="28.631"
   r="29.105"
   id="circle2524" />
	<g
   id="g2528">
		<path
   d="m 23.271,23.985 c 0.609,-3.924 2.189,-6.962 4.742,-9.114 2.552,-2.152 5.656,-3.228 9.314,-3.228 5.027,0 9.029,1.62 12,4.856 2.971,3.238 4.457,7.391 4.457,12.457 0,4.915 -1.543,9 -4.627,12.256 -3.088,3.256 -7.086,4.886 -12.002,4.886 -3.619,0 -6.743,-1.085 -9.371,-3.257 -2.629,-2.172 -4.209,-5.257 -4.743,-9.257 H 31.1 c 0.19,3.886 2.533,5.829 7.029,5.829 2.246,0 4.057,-0.972 5.428,-2.914 1.373,-1.942 2.059,-4.534 2.059,-7.771 0,-3.391 -0.629,-5.971 -1.885,-7.743 -1.258,-1.771 -3.066,-2.657 -5.43,-2.657 -4.268,0 -6.667,1.885 -7.2,5.656 h 2.343 l -6.342,6.343 -6.343,-6.343 2.512,10e-4 z"
   id="path3384" />
	<path
   id="rect3386"
   style="fill:#000000;stroke-width:0.821;opacity:1"
   d="M 5.5 -3.5 L 5.5 60.5 L 69.5 60.5 L 69.5 -3.5 L 5.5 -3.5 z M 11.5 2.5 L 63.5 2.5 L 63.5 54.5 L 11.5 54.5 L 11.5 2.5 z " /></g>
</g>
</svg>
