<?xml version="1.0" encoding="UTF-8" standalone="no"?>
<!-- Created with Inkscape (http://www.inkscape.org/) -->

<svg
   width="13.886838mm"
   height="15.051084mm"
   viewBox="0 0 13.886838 15.051084"
   version="1.1"
   id="svg1"
   xml:space="preserve"
   inkscape:version="1.3 (0e150ed, 2023-07-21)"
   sodipodi:docname="open_access.svg"
   xmlns:inkscape="http://www.inkscape.org/namespaces/inkscape"
   xmlns:sodipodi="http://sodipodi.sourceforge.net/DTD/sodipodi-0.dtd"
   xmlns="http://www.w3.org/2000/svg"
   xmlns:svg="http://www.w3.org/2000/svg"><sodipodi:namedview
     id="namedview1"
     pagecolor="#ffffff"
     bordercolor="#000000"
     borderopacity="0.25"
     inkscape:showpageshadow="2"
     inkscape:pageopacity="0.0"
     inkscape:pagecheckerboard="0"
     inkscape:deskcolor="#d1d1d1"
     inkscape:document-units="mm"
     inkscape:zoom="1.4615431"
     inkscape:cx="262.736"
     inkscape:cy="305.15692"
     inkscape:window-width="1472"
     inkscape:window-height="821"
     inkscape:window-x="0"
     inkscape:window-y="37"
     inkscape:window-maximized="0"
     inkscape:current-layer="layer1" /><defs
     id="defs1" /><g
     inkscape:label="Layer 1"
     inkscape:groupmode="layer"
     id="layer1"
     transform="translate(-56.78351,-37.068313)"><path
       id="path606"
       style="fill:#ffffff;fill-opacity:1;stroke-width:0.845765"
       d="m 63.869334,37.070261 c -1.34611,-0.03112 -2.691429,0.310236 -3.819492,1.028842 -3.835368,2.443247 -4.394636,7.812547 -1.137238,10.919578 1.295082,1.235303 2.830416,1.910243 4.414334,1.940556 0.69335,0.01328 0.751748,-0.01122 0.751748,-0.315117 0,-0.301042 -0.09343,-0.343196 -1.08173,-0.485581 -1.481449,-0.213421 -2.673811,-0.825342 -3.697114,-1.898165 -2.403951,-2.520288 -2.322771,-6.258592 0.187937,-8.653401 1.982546,-1.891028 4.64674,-2.294036 7.071676,-1.069931 1.755245,0.886044 2.939563,2.561485 3.292394,4.657341 0.16769,0.996086 0.225383,1.124821 0.521416,1.167828 0.327853,0.04762 0.331353,0.03271 0.259178,-1.002616 -0.140913,-2.021368 -1.243079,-3.928448 -2.93881,-5.08392 -1.131248,-0.770825 -2.47819,-1.174307 -3.824299,-1.205414 z m -0.148602,2.660837 c -0.273628,0 -0.288405,0.108385 -0.326049,2.42919 -0.02167,1.336178 -0.0066,2.514282 0.03321,2.618007 0.05577,0.14532 0.491846,0.179506 1.901223,0.148602 1.72001,-0.03772 1.828671,-0.05711 1.828671,-0.326483 0,-0.266105 -0.108888,-0.289194 -1.535839,-0.326924 -1.535967,-0.0406 -1.536196,-0.04065 -1.575612,-2.291524 -0.03751,-2.142229 -0.053,-2.250868 -0.325611,-2.250868 z m 4.733391,5.943179 c -1.240708,0 -1.940997,0.696042 -1.940997,1.929196 0,0.314905 -0.10797,0.613639 -0.286276,0.791953 -0.249811,0.249806 -0.286276,0.477571 -0.286276,1.780164 0,2.003608 -0.07475,1.943617 2.416083,1.943617 1.338278,0 2.021133,-0.0548 2.138111,-0.171767 0.114191,-0.114187 0.171766,-0.737112 0.171766,-1.856647 0,-1.538342 -0.02475,-1.698327 -0.286276,-1.838285 -0.228554,-0.122315 -0.286713,-0.300138 -0.286713,-0.878931 0,-0.63397 -0.0613,-0.786395 -0.486889,-1.211978 -0.414135,-0.414138 -0.586183,-0.487322 -1.152533,-0.487322 z m -0.09222,0.706292 c 0.554175,-0.008 1.015735,0.444316 1.015735,1.155598 0,0.572839 -1.08e-4,0.572983 -1.002623,0.572983 -1.002511,0 -1.002621,-9e-6 -1.002621,-0.636365 0,-0.495214 0.07091,-0.685748 0.318619,-0.859257 0.223097,-0.156265 0.454042,-0.229829 0.67089,-0.232959 z m -0.0319,2.933132 c 0.09359,-0.0029 0.190027,0.02666 0.277972,0.09965 0.226557,0.188031 0.261571,0.644035 0.059,0.769226 -0.08693,0.0537 -0.08818,0.215189 -0.0035,0.437939 0.124113,0.326441 0.102022,0.35315 -0.29458,0.35315 -0.386499,0 -0.420136,-0.03576 -0.338724,-0.360145 0.04968,-0.197943 0.01769,-0.447479 -0.07124,-0.554629 -0.260545,-0.313941 0.0368,-0.735057 0.371066,-0.74519 z"
       inkscape:export-filename="embargoed_access.svg"
       inkscape:export-xdpi="96"
       inkscape:export-ydpi="96" /></g></svg>
