<?xml version="1.0" encoding="UTF-8" standalone="no"?>
<!-- Created with Inkscape (http://www.inkscape.org/) -->

<svg
   version="1.1"
   id="svg2"
   width="411.72128"
   height="125"
   viewBox="0 0 411.72128 125.00001"
   sodipodi:docname="logo_Scopus.svg"
   inkscape:version="1.3 (0e150ed, 2023-07-21)"
   xmlns:inkscape="http://www.inkscape.org/namespaces/inkscape"
   xmlns:sodipodi="http://sodipodi.sourceforge.net/DTD/sodipodi-0.dtd"
   xmlns="http://www.w3.org/2000/svg"
   xmlns:svg="http://www.w3.org/2000/svg"
   xmlns:rdf="http://www.w3.org/1999/02/22-rdf-syntax-ns#"
   xmlns:cc="http://creativecommons.org/ns#"
   xmlns:dc="http://purl.org/dc/elements/1.1/">
  <metadata
     id="metadata8">
    <rdf:RDF>
      <cc:Work
         rdf:about="">
        <dc:format>image/svg+xml</dc:format>
        <dc:type
           rdf:resource="http://purl.org/dc/dcmitype/StillImage" />
      </cc:Work>
    </rdf:RDF>
  </metadata>
  <defs
     id="defs6" />
  <sodipodi:namedview
     pagecolor="#ffffff"
     bordercolor="#666666"
     borderopacity="1"
     objecttolerance="10"
     gridtolerance="10"
     guidetolerance="10"
     inkscape:pageopacity="0"
     inkscape:pageshadow="2"
     inkscape:window-width="1472"
     inkscape:window-height="822"
     id="namedview4"
     showgrid="false"
     fit-margin-top="10"
     fit-margin-left="10"
     fit-margin-right="10"
     fit-margin-bottom="10"
     inkscape:zoom="1.0225"
     inkscape:cx="120.2934"
     inkscape:cy="67.97066"
     inkscape:window-x="0"
     inkscape:window-y="37"
     inkscape:window-maximized="0"
     inkscape:current-layer="svg2"
     inkscape:showpageshadow="2"
     inkscape:pagecheckerboard="0"
     inkscape:deskcolor="#d1d1d1" />
  <path
     style="fill:#ff8200;fill-opacity:1;stroke-width:0.650106"
     d="m 199.17803,124.1404 c -0.21038,-0.54828 -0.41309,-19.94122 -0.45043,-43.095445 l -0.0678,-42.09858 h 4.36326 c 4.81393,0 5.13776,0.24503 5.79968,4.388216 0.21424,1.340846 0.69472,2.437899 1.06777,2.437899 0.37307,0 2.18821,-1.322043 4.03371,-2.937876 4.67936,-4.097075 8.83507,-5.525688 15.89435,-5.464043 6.3688,0.05559 8.52662,0.672265 12.71229,3.632908 5.98066,4.230308 8.97891,12.386211 9.04229,24.597253 0.0831,16.059051 -5.68512,27.102184 -16.89794,32.349308 -3.60347,1.686268 -5.3872,2.094 -10.15872,2.32214 -3.56981,0.17067 -7.18656,-0.0583 -9.43782,-0.597506 -2.00749,-0.480812 -3.94254,-0.884187 -4.30008,-0.896359 -0.40204,-0.01385 -0.77413,4.939315 -0.97517,12.979955 l -0.32506,13.00213 -4.95884,0.18843 c -3.97648,0.15111 -5.03458,-0.008 -5.34135,-0.80844 z m 28.75686,-33.810444 c 4.29944,-1.516932 7.03796,-4.041423 9.24311,-8.520716 2.68456,-5.453138 3.6674,-12.637312 2.71537,-19.848278 -1.43447,-10.865128 -6.19583,-16.055068 -14.01627,-15.277894 -2.06492,0.205211 -4.57335,0.796602 -5.5743,1.314204 -2.41716,1.249978 -9.73769,9.121881 -10.18699,10.954283 -0.19524,0.796581 -0.27242,7.735725 -0.17128,15.42032 l 0.18387,13.971987 3.57559,1.448066 c 4.23268,1.714181 10.25232,1.94177 14.23096,0.538028 z M 27.022481,99.382417 c -7.006985,-1.564734 -9.00722,-2.613336 -8.961794,-4.69815 0.05608,-2.57038 0.987672,-7.898012 1.464607,-8.374933 0.224063,-0.224065 1.95217,0.260408 3.840219,1.076595 7.371515,3.186633 15.719345,4.157229 21.633668,2.51532 3.897671,-1.082047 7.892187,-5.3781 8.448211,-9.085944 C 54.303258,75.107957 50.853022,70.618669 41.258144,64.955287 23.415937,54.42389 18.692285,48.973099 18.678389,38.899659 c -0.0082,-6.613343 1.441226,-10.272888 5.801222,-14.637473 5.628419,-5.634383 9.077415,-6.753142 20.846776,-6.762123 8.011828,-0.006 10.133899,0.215135 14.139812,1.474255 2.592298,0.814797 4.746914,1.838713 4.788053,2.275373 0.163746,1.738448 -0.223577,9.275195 -0.49987,9.727077 -0.162122,0.26497 -1.375972,0.01039 -2.697697,-0.565763 -8.521168,-3.714432 -17.853241,-4.712605 -23.380911,-2.500866 -5.246216,2.099121 -8.171654,7.797899 -6.653391,12.96087 1.07296,3.648623 6.701033,8.935333 14.346809,13.476617 15.267543,9.068321 20.114758,14.715196 20.262372,23.605125 0.102997,6.204245 -1.642473,10.38253 -6.270195,15.009337 -5.594652,5.593523 -9.229965,6.905823 -19.885939,7.178522 -5.518204,0.14121 -9.514957,-0.10212 -12.452949,-0.758193 z m 66.977467,0.01541 c -8.89218,-2.837797 -15.43736,-11.060222 -17.51196,-21.99955 -0.92489,-4.876915 -0.72407,-14.648975 0.38883,-18.921726 2.24567,-8.621684 7.82963,-15.673231 15.11546,-19.088092 3.15541,-1.478949 4.76835,-1.775439 10.670092,-1.961415 8.247,-0.259873 13.01221,0.862508 16.44016,3.872289 2.44979,2.150968 3.83364,5.613061 3.48171,8.710578 -0.21766,1.915629 -0.27212,1.94084 -4.60486,2.130709 l -4.38462,0.192148 -1.08194,-2.26886 c -1.46169,-3.065204 -3.62782,-3.823605 -10.12967,-3.546623 -6.122622,0.260824 -7.887682,1.205871 -11.079862,5.932371 -2.95508,4.375409 -3.88688,8.739125 -3.62526,16.977375 0.2111,6.647722 0.40903,7.615893 2.3725,11.604234 4.30317,8.740955 12.011712,12.025862 21.631242,9.217917 1.94206,-0.566899 4.80348,-1.766482 6.35868,-2.665748 1.55522,-0.899267 3.06519,-1.386223 3.35548,-1.082127 0.29033,0.304099 0.62688,2.290368 0.74795,4.413933 0.21448,3.762153 0.16334,3.89967 -1.99782,5.369387 -3.66771,2.49437 -8.3101,3.612907 -15.98506,3.851483 -5.053612,0.15708 -8.034012,-0.0595 -10.161052,-0.738271 z m 53.579092,0.04037 C 138.8183,96.700256 132.08353,89.25521 129.463,79.411546 c -1.27043,-4.77219 -1.19974,-16.867878 0.12474,-21.331657 2.6107,-8.799187 7.05814,-14.352299 14.40112,-17.981394 l 4.96214,-2.452422 h 8.48508 c 7.84469,0 8.76568,0.131506 12.20247,1.742324 6.83059,3.201501 12.04909,9.385876 14.5427,17.234325 1.55696,4.900524 1.90574,15.928669 0.66958,21.173222 -2.63783,11.191181 -9.82964,18.935308 -20.13245,21.67854 -4.1911,1.115916 -13.51564,1.096176 -17.13927,-0.03619 z m 17.69195,-9.84296 c 5.24741,-2.707843 9.04315,-11.678706 8.91471,-21.069056 -0.11073,-8.096055 -1.97565,-13.601205 -5.95586,-17.581435 -3.49297,-3.492941 -6.18364,-4.513017 -11.91869,-4.518551 -8.44845,-0.0082 -13.09878,4.431007 -15.84059,15.121325 -1.23055,4.797835 -0.9055,12.570725 0.75119,17.964071 1.27072,4.13681 6.43607,9.75291 10.07196,10.950927 3.53929,1.166177 10.92479,0.70791 13.97728,-0.867281 z m 109.62418,9.678413 c -3.88421,-1.372631 -7.45991,-5.122781 -8.94197,-9.378254 -1.10186,-3.163747 -1.21593,-5.717489 -1.21593,-27.220172 v -23.72885 l 4.95574,-0.188389 c 4.68966,-0.178271 4.97714,-0.10848 5.3545,1.300212 0.2193,0.818733 0.40438,10.557584 0.41126,21.641896 0.007,12.114757 0.28634,21.139518 0.69913,22.625844 0.37761,1.359904 1.49701,3.379598 2.48756,4.488204 1.50412,1.683379 2.39324,2.064763 5.3938,2.313592 5.91227,0.490291 10.25868,-1.149705 13.82333,-5.215882 5.62265,-6.413734 5.556,-6.077922 5.556,-27.992593 V 38.62132 h 4.83743 c 2.66059,0 4.98028,0.231168 5.15492,0.513704 0.17451,0.282534 0.38392,13.812872 0.46508,30.067414 l 0.14772,29.553708 -3.73212,0.196606 c -4.42266,0.232988 -5.43766,-0.42306 -5.98902,-3.871033 -0.55544,-3.473721 -1.33287,-3.692 -3.55365,-0.997789 -1.04485,1.267596 -3.69755,3.203098 -5.89486,4.301114 -3.69959,1.848686 -4.48038,1.992566 -10.55486,1.945046 -4.13365,-0.0322 -7.61169,-0.423061 -9.40399,-1.056427 z m 62.32895,0.182714 c -4.28578,-1.184817 -7.70592,-2.949919 -8.09169,-4.176039 -0.37578,-1.19427 0.5226,-7.699851 1.14992,-8.327166 0.21963,-0.219643 2.58246,0.679335 5.25068,1.997739 8.11154,4.007981 17.13099,3.891888 21.29701,-0.27413 1.50942,-1.509432 1.84757,-2.410614 1.84757,-4.923736 0,-2.718518 -0.28846,-3.350557 -2.48122,-5.436489 -1.36469,-1.298184 -5.36629,-3.764108 -8.89248,-5.479824 -8.55984,-4.164912 -13.32766,-7.494881 -15.62318,-10.911572 -1.59201,-2.369656 -1.93512,-3.612127 -2.12655,-7.701301 -0.19523,-4.169299 -0.002,-5.299693 1.33245,-7.801276 1.98239,-3.715841 6.0668,-6.847167 10.68091,-8.188523 5.46572,-1.588927 16.8065,-1.034101 21.98588,1.075612 l 3.90063,1.588848 0.16803,3.89972 c 0.2524,5.855292 -0.22379,6.18623 -5.2387,3.640783 -4.87375,-2.473779 -12.7435,-3.432118 -16.90519,-2.058632 -2.89769,0.956319 -5.65524,4.095143 -5.64947,6.430611 0.01,4.010584 3.00395,6.550569 13.99731,11.874452 11.95261,5.78845 16.67846,11.82687 15.70286,20.064166 -0.76909,6.494013 -5.12223,11.767326 -11.76587,14.253048 -2.96584,1.109665 -5.0442,1.367395 -10.64926,1.320615 -3.83035,-0.032 -8.28073,-0.422083 -9.88976,-0.866906 z M 382.25677,35.70714 c -3.95172,-1.717933 -5.92977,-7.510705 -3.84656,-11.264815 1.31722,-2.373719 4.34634,-4.014972 7.41891,-4.019717 2.2309,-0.0032 3.22762,0.41281 5.10238,2.130893 4.38535,4.018898 3.32472,10.949408 -2.01729,13.181442 -2.75139,1.149601 -3.96068,1.144559 -6.65744,-0.02783 z m 5.29687,-2.199804 c 0.1914,-0.309776 -0.25652,-1.110395 -0.99549,-1.779168 -1.31275,-1.188028 -1.36417,-1.187821 -2.23922,0.0088 -0.4926,0.673655 -0.74145,1.474281 -0.55302,1.779161 0.44759,0.724245 3.33881,0.717458 3.78773,-0.009 z m -5.49382,-5.450266 -0.0215,-4.063164 -1.27859,1.534759 c -1.44387,1.733162 -1.54985,2.542877 -0.64457,4.923981 1.10909,2.917138 1.96743,1.859832 1.94477,-2.395576 z m 9.12311,0.183675 c 0,-1.480156 -0.44232,-2.820357 -1.13888,-3.450732 -1.71733,-1.554151 -4.35725,-2.394412 -5.41645,-1.723977 -0.67967,0.430218 -0.47345,0.58551 0.7873,0.592857 2.42404,0.01401 3.40409,1.471088 2.87753,4.277797 -0.27494,1.465618 -0.1495,2.678685 0.33762,3.265673 1.20269,1.44912 2.55288,-0.117282 2.55288,-2.961618 z m -5.20084,-1.684789 c 0,-0.557441 -0.29733,-0.829772 -0.66073,-0.605183 -0.36336,0.224584 -0.49238,0.680673 -0.28667,1.013527 0.55729,0.901725 0.9474,0.733586 0.9474,-0.408344 z"
     id="path4487"
     inkscape:connector-curvature="0" />
</svg>
