<?xml version="1.0" encoding="UTF-8" standalone="no"?>
<svg
   id="Vrstva_1"
   viewBox="0 0 548.87218 34.72799"
   version="1.1"
   sodipodi:docname="logo_repo_final3.svg"
   inkscape:version="1.2.1 (9c6d41e410, 2022-07-14)"
   width="548.87219"
   height="34.727989"
   inkscape:export-filename="logo_repo_final4.svg"
   inkscape:export-xdpi="96"
   inkscape:export-ydpi="96"
   xmlns:inkscape="http://www.inkscape.org/namespaces/inkscape"
   xmlns:sodipodi="http://sodipodi.sourceforge.net/DTD/sodipodi-0.dtd"
   xmlns="http://www.w3.org/2000/svg"
   xmlns:svg="http://www.w3.org/2000/svg">
  <sodipodi:namedview
     id="namedview240"
     pagecolor="#ffffff"
     bordercolor="#000000"
     borderopacity="0.25"
     inkscape:showpageshadow="2"
     inkscape:pageopacity="0.0"
     inkscape:pagecheckerboard="0"
     inkscape:deskcolor="#d1d1d1"
     showgrid="false"
     inkscape:zoom="1.0001262"
     inkscape:cx="232.9706"
     inkscape:cy="-51.993438"
     inkscape:window-width="1600"
     inkscape:window-height="837"
     inkscape:window-x="163"
     inkscape:window-y="1072"
     inkscape:window-maximized="1"
     inkscape:current-layer="g1249">
    <inkscape:grid
       type="xygrid"
       id="grid1234"
       originx="-63.228924"
       originy="-299.596" />
  </sodipodi:namedview>
  <defs
     id="defs217">
    <style
       id="style212">.cls-1{fill:none;}.cls-2{clip-path:url(#clippath);}.cls-3{fill:#d2313f;}.cls-4{fill:#d32e3f;}.cls-5{fill:#1d1d1b;}</style>
    <clipPath
       id="clippath">
      <path
         class="cls-1"
         d="M 26.23,379.11 V 195.67 L 4,183.93 337.46,7.83 670.93,183.92 337.46,360.01 87.36,227.95 h 238.98 c 6.67,0 11.12,-5.87 11.12,-14.67 0,-8.8 -4.45,-14.67 -11.12,-14.67 H 48.45 V 379.1 c 6.67,4.4 11.12,14.67 11.12,24.95 0,16.14 -22.23,88.05 -22.23,88.05 0,0 -22.23,-71.9 -22.23,-88.05 0,-10.27 4.45,-20.54 11.12,-24.95 v 0.02 0 z"
         id="path214" />
    </clipPath>
  </defs>
  <g
     id="g1249"
     transform="matrix(0.80366169,0,0,0.80366169,-167.43032,-282.69567)"
     inkscape:export-filename="logo_repo_final3.svg"
     inkscape:export-xdpi="96"
     inkscape:export-ydpi="96">
    <g
       id="g1648"
       inkscape:export-filename="logo_repo_final3.svg"
       inkscape:export-xdpi="96"
       inkscape:export-ydpi="96">
      <g
         id="g360"
         inkscape:label="celek"
         transform="matrix(0.07022606,0,0,0.07022606,208.05342,351.20967)">
        <polygon
           class="cls-3"
           points="337.82,518.06 311.34,502.78 311.34,471.57 119.42,365.21 119.42,443.55 338.48,565.2 556.87,442.93 556.87,228.93 337.82,349.94 66.49,200.27 66.49,167.78 337.82,18.11 609.81,169.06 609.81,471.58 337.82,623.16 66.49,472.86 66.49,275.42 364.29,441 364.29,502.78 "
           id="polygon219" />
        <g
           class="cls-2"
           clip-path="url(#clippath)"
           id="g223">
          <rect
             class="cls-3"
             x="-107.62"
             y="252.53999"
             width="257.51001"
             height="172.41"
             transform="rotate(-62.31,21.134034,338.74858)"
             id="rect221" />
        </g>
        <path
           class="cls-4"
           d="m 445.61,393.46 c 17.05,-8.98 34.09,-17.96 51.14,-26.94 27.22,-14.34 54.44,-28.68 81.66,-43.02 6.32,-3.33 12.63,-6.66 18.95,-9.98 3.42,-1.8 0.39,-6.98 -3.03,-5.18 -17.05,8.98 -34.09,17.96 -51.14,26.94 -27.22,14.34 -54.44,28.68 -81.66,43.02 -6.32,3.33 -12.63,6.66 -18.95,9.98 -3.42,1.8 -0.39,6.98 3.03,5.18 z"
           id="path225" />
        <path
           class="cls-4"
           d="m 424.52,441.64 c 17.05,-8.98 34.09,-17.96 51.14,-26.94 27.22,-14.34 54.44,-28.68 81.66,-43.02 6.32,-3.33 12.63,-6.66 18.95,-9.98 3.42,-1.8 0.39,-6.98 -3.03,-5.18 -17.05,8.98 -34.09,17.96 -51.14,26.94 l -81.66,43.02 c -6.32,3.33 -12.63,6.66 -18.95,9.98 -3.42,1.8 -0.39,6.98 3.03,5.18 z"
           id="path227" />
        <path
           class="cls-4"
           d="m 407.25,488.44 c 17.05,-8.98 34.09,-17.96 51.14,-26.94 27.22,-14.34 54.44,-28.68 81.66,-43.02 6.32,-3.33 12.63,-6.66 18.95,-9.98 3.42,-1.8 0.39,-6.98 -3.03,-5.18 -17.05,8.98 -34.09,17.96 -51.14,26.94 l -81.66,43.02 c -6.32,3.33 -12.63,6.66 -18.95,9.98 -3.42,1.8 -0.39,6.98 3.03,5.18 z"
           id="path229" />
        <path
           class="cls-4"
           d="m 466.84,344.21 c 36.4,-19.02 72.81,-38.05 109.21,-57.07 5.23,-2.73 10.46,-5.47 15.7,-8.2 3.42,-1.79 0.39,-6.97 -3.03,-5.18 -36.4,19.02 -72.81,38.05 -109.21,57.07 -5.23,2.73 -10.46,5.47 -15.7,8.2 -3.42,1.79 -0.39,6.97 3.03,5.18 z"
           id="path231" />
        <polygon
           class="cls-5"
           points="337.46,7.83 670.93,183.92 337.46,360.01 4.63,184.68 "
           id="polygon233" />
        <path
           class="cls-4"
           d="m 338.94,172 c -2.69,0.1 -5.38,0.2 -8.06,0.3 l -21.84,0.8 c -10.76,0.39 -21.52,0.79 -32.28,1.18 -13.17,0.48 -26.35,0.97 -39.52,1.45 -14.33,0.53 -28.66,1.05 -42.99,1.58 -14.33,0.53 -29.13,1.07 -43.69,1.6 -13.53,0.5 -27.06,0.99 -40.6,1.49 -11.44,0.42 -22.87,0.84 -34.31,1.26 -8.25,0.3 -16.5,0.6 -24.74,0.91 -3.88,0.14 -7.76,0.26 -11.65,0.43 -0.17,0 -0.34,0 -0.51,0.02 -3.28,0.12 -6.49,1.31 -8.84,3.66 -2.17,2.17 -3.8,5.73 -3.66,8.84 0.14,3.11 1.21,6.59 3.66,8.84 2.45,2.25 5.5,3.78 8.84,3.66 2.69,-0.1 5.38,-0.2 8.06,-0.3 l 21.84,-0.8 c 10.76,-0.39 21.52,-0.79 32.28,-1.18 13.17,-0.48 26.35,-0.97 39.52,-1.45 14.33,-0.53 28.66,-1.05 42.99,-1.58 14.33,-0.53 29.13,-1.07 43.69,-1.6 13.53,-0.5 27.06,-0.99 40.6,-1.49 11.44,-0.42 22.87,-0.84 34.31,-1.26 8.25,-0.3 16.5,-0.6 24.74,-0.91 3.88,-0.14 7.76,-0.26 11.65,-0.43 0.17,0 0.34,0 0.51,-0.02 3.28,-0.12 6.49,-1.31 8.84,-3.66 2.17,-2.17 3.8,-5.73 3.66,-8.84 -0.14,-3.11 -1.21,-6.59 -3.66,-8.84 -2.45,-2.25 -5.5,-3.78 -8.84,-3.66 z"
           id="path235" />
        <ellipse
           class="cls-4"
           cx="337.48001"
           cy="183.92999"
           rx="15.9"
           ry="16.42"
           id="ellipse237" />
      </g>
      <g
         aria-label="Repozitář publikační činnosti UK"
         id="text416"
         style="font-size:44.7329px;font-family:'café &amp; brewery';-inkscape-font-specification:'café &amp; brewery, Normal';fill:#800000;stroke-width:2.93759">
        <path
           d="m 273.85036,358.38023 h -4.38382 v 11.13849 h 4.16016 q 2.9971,0 5.09955,-1.20779 2.14718,-1.25252 2.19191,-4.33909 0,-3.22077 -1.96825,-4.38383 -1.92351,-1.20778 -5.09955,-1.20778 z m 9.21498,26.795 -6.7994,-12.30155 q -0.71573,0.0447 -1.43146,0.0895 -0.67099,0.0447 -1.38672,0.0447 h -3.98122 v 12.16735 h -4.29436 v -30.41837 h 8.72291 q 4.83116,0 8.14139,2.14718 3.35497,2.10245 3.35497,6.88887 -0.0447,2.9971 -1.52092,5.01008 -1.47619,1.96825 -3.8023,2.95237 l 7.64933,13.41987 z"
           style="font-weight:500;font-family:Palanquin;-inkscape-font-specification:'Palanquin, Medium';fill:#000000"
           id="path1548" />
        <path
           d="m 311.11283,375.28926 h -15.38812 q 0.22366,2.99711 1.87878,4.92062 1.65512,1.92351 4.96535,1.92351 1.92352,0 3.22077,-0.40259 1.34199,-0.44733 2.68398,-1.07359 l 1.34198,3.1313 q -1.43145,0.98413 -3.6681,1.43145 -2.19191,0.49207 -3.57863,0.49207 -5.45741,0 -8.40978,-3.13131 -2.90764,-3.17603 -2.90764,-8.27558 0,-5.05482 2.72871,-8.23086 2.77344,-3.17603 7.64932,-3.17603 5.27848,0 7.38093,3.71283 2.10245,3.71283 2.10245,8.67818 z m -4.16016,-2.90764 q -0.4026,-2.68397 -1.69985,-4.24962 -1.29726,-1.56565 -3.75757,-1.56565 -2.50504,0 -3.93649,1.61038 -1.43145,1.56565 -1.74458,4.20489 z"
           style="font-weight:500;font-family:Palanquin;-inkscape-font-specification:'Palanquin, Medium';fill:#000000"
           id="path1550" />
        <path
           d="m 320.68571,380.16515 q 1.11832,0.89466 2.41558,1.43145 1.29725,0.49206 2.41558,0.49206 3.35496,0 4.69695,-2.32611 1.38672,-2.37084 1.38672,-5.45741 0,-3.2655 -1.29725,-5.54688 -1.29726,-2.32611 -4.78642,-2.32611 -1.11833,0 -2.41558,0.53679 -1.29726,0.49206 -2.41558,1.43145 z m -4.29436,14.80659 v -31.49196 h 2.41558 l 0.93939,1.83404 q 1.43145,-1.11832 3.2655,-1.83404 1.83405,-0.71573 3.35497,-0.71573 4.78642,0 7.202,3.31023 2.41557,3.26551 2.41557,8.18612 0,4.92062 -2.46031,8.18613 -2.41557,3.2655 -7.15726,3.2655 -1.34199,0 -2.86291,-0.5368 -1.52091,-0.49206 -2.81817,-1.38672 v 10.69116 z"
           style="font-weight:500;font-family:Palanquin;-inkscape-font-specification:'Palanquin, Medium';fill:#000000"
           id="path1552" />
        <path
           d="m 350.20946,385.75676 q -4.92062,-0.0447 -7.47039,-3.22077 -2.54978,-3.22077 -2.54978,-8.27559 0.0447,-5.01008 2.77344,-8.14138 2.72871,-3.17604 7.64933,-3.22077 5.09955,0 7.69406,3.2655 2.63924,3.22077 2.63924,8.32032 0,5.05482 -2.86291,8.14139 -2.8629,3.08657 -7.87299,3.1313 z m 6.39681,-11.27269 q 0,-3.48917 -1.38672,-5.68108 -1.38672,-2.23664 -4.47329,-2.23664 -3.08657,0 -4.60749,2.10244 -1.52092,2.05772 -1.56565,5.54688 0,3.62337 1.29725,5.77055 1.34199,2.10244 4.42856,2.10244 3.04183,0 4.65222,-2.01298 1.61038,-2.01298 1.65512,-5.59161 z"
           style="font-weight:500;font-family:Palanquin;-inkscape-font-specification:'Palanquin, Medium';fill:#000000"
           id="path1554" />
        <path
           d="m 382.10402,365.85062 -12.03315,15.92491 h 11.67529 l 0.44732,3.3997 h -17.26689 l -0.5368,-2.23664 11.89895,-15.96965 h -10.0649 l -0.93939,-3.48916 h 16.5959 z"
           style="font-weight:500;font-family:Palanquin;-inkscape-font-specification:'Palanquin, Medium';fill:#000000"
           id="path1556" />
        <path
           d="m 389.12705,359.58801 q -1.11833,0 -1.87879,-0.76046 -0.76046,-0.80519 -0.76046,-1.92351 -0.0447,-1.11832 0.71573,-1.87878 0.80519,-0.80519 1.92352,-0.80519 1.11832,0 1.92351,0.80519 0.80519,0.76046 0.80519,1.87878 0,1.11832 -0.80519,1.92351 -0.80519,0.76046 -1.92351,0.76046 z m -2.14718,25.58722 v -21.69545 h 4.33909 v 21.69545 z"
           style="font-weight:500;font-family:Palanquin;-inkscape-font-specification:'Palanquin, Medium';fill:#000000"
           id="path1558" />
        <path
           d="m 408.85424,384.9963 q -0.58153,0.31313 -1.65512,0.62626 -1.02886,0.31313 -2.01298,0.31313 -3.17604,0 -5.05482,-1.74458 -1.87878,-1.74458 -1.87878,-5.05482 v -12.12261 h -3.04184 l -0.0447,-3.26551 h 3.08657 v -5.41268 l 4.29436,-0.98412 v 6.3968 h 3.93649 l 1.34199,3.26551 h -5.27848 v 11.45162 q 0,1.65511 0.71572,2.7287 0.76046,1.02886 2.37085,1.02886 0.53679,0 1.07359,-0.1342 0.58153,-0.17893 1.02885,-0.35786 z"
           style="font-weight:500;font-family:Palanquin;-inkscape-font-specification:'Palanquin, Medium';fill:#000000"
           id="path1560" />
        <path
           d="m 420.57425,351.75976 h 4.56276 l -4.02596,7.06779 h -3.2655 z m -4.69695,27.15287 q 0,1.25252 0.89466,2.32611 0.89466,1.07359 2.7287,1.07359 1.65512,0 3.08657,-0.8052 1.47619,-0.80519 2.59451,-2.05771 v -4.38382 h -5.27848 q -1.96825,0 -2.9971,1.16305 -1.02886,1.16306 -1.02886,2.68398 z m -2.54978,-14.09087 q 1.25253,-0.84992 3.62337,-1.38672 2.37084,-0.53679 3.75756,-0.53679 3.75757,0 6.26261,2.10244 2.50504,2.10245 2.50504,5.45742 v 14.71712 h -2.41558 q -0.31313,-0.49206 -0.58152,-1.02885 -0.2684,-0.5368 -0.5368,-1.02886 -1.11832,0.98412 -2.8629,1.78931 -1.74459,0.8052 -3.48917,0.8052 -3.84703,0 -5.72581,-1.92352 -1.83405,-1.92351 -1.83405,-4.87588 0,-3.26551 2.19191,-4.96536 2.23665,-1.74458 5.77055,-1.74458 h 5.14428 q 0,-2.23664 -0.89466,-3.84703 -0.89466,-1.61038 -3.44443,-1.61038 -1.92352,0 -3.48917,0.49206 -1.56565,0.44733 -2.77344,0.98412 z"
           style="font-weight:500;font-family:Palanquin;-inkscape-font-specification:'Palanquin, Medium';fill:#000000"
           id="path1562" />
        <path
           d="m 432.87578,351.75976 h 4.11542 q 0.76046,0.98412 1.56566,1.92351 0.80519,0.93939 1.61038,1.92352 l 3.1313,-3.84703 h 4.02596 l -5.81527,7.06779 h -2.86291 z m 2.90764,33.41547 v -21.69545 h 2.41557 l 1.38672,3.08657 q 1.25252,-1.07359 3.1313,-2.05772 1.92352,-1.02885 3.6681,-1.02885 l 0.93939,3.44443 q -1.78931,0 -3.75756,0.98412 -1.92351,0.93939 -3.48917,2.46031 v 14.80659 z"
           style="font-weight:500;font-family:Palanquin;-inkscape-font-specification:'Palanquin, Medium';fill:#000000"
           id="path1564" />
        <path
           d="m 465.93342,380.16515 q 1.11833,0.89466 2.41558,1.43145 1.29725,0.49206 2.41558,0.49206 3.35496,0 4.69695,-2.32611 1.38672,-2.37084 1.38672,-5.45741 0,-3.2655 -1.29725,-5.54688 -1.29726,-2.32611 -4.78642,-2.32611 -1.11833,0 -2.41558,0.53679 -1.29725,0.49206 -2.41558,1.43145 z m -4.29436,14.80659 v -31.49196 h 2.41558 l 0.93939,1.83404 q 1.43146,-1.11832 3.2655,-1.83404 1.83405,-0.71573 3.35497,-0.71573 4.78642,0 7.202,3.31023 2.41557,3.26551 2.41557,8.18612 0,4.92062 -2.4603,8.18613 -2.41558,3.2655 -7.15727,3.2655 -1.34199,0 -2.8629,-0.5368 -1.52092,-0.49206 -2.81818,-1.38672 v 10.69116 z"
           style="font-weight:500;font-family:Palanquin;-inkscape-font-specification:'Palanquin, Medium';fill:#000000"
           id="path1566" />
        <path
           d="m 501.09352,382.89385 q -1.43145,1.34199 -3.44443,2.19192 -1.96825,0.80519 -3.71283,0.80519 -3.98123,0 -5.81528,-2.28138 -1.78931,-2.32611 -1.78931,-5.81528 v -14.31452 h 4.33909 v 14.00139 q 0,2.10245 1.02886,3.44444 1.07359,1.29725 3.1313,1.29725 1.20779,0 2.77344,-0.62626 1.56565,-0.67099 2.90764,-1.78932 v -16.3275 h 4.29436 v 21.69545 h -2.46031 z"
           style="font-weight:500;font-family:Palanquin;-inkscape-font-specification:'Palanquin, Medium';fill:#000000"
           id="path1568" />
        <path
           d="m 511.47152,385.17523 v -31.08936 l 4.29436,-0.49206 v 11.13849 q 1.29726,-0.84993 2.81817,-1.38672 1.52092,-0.58153 2.86291,-0.58153 4.78642,0 7.202,3.31023 2.41557,3.26551 2.41557,8.18612 0,4.92062 -2.46031,8.18613 -2.41557,3.2655 -7.15726,3.2655 -1.52092,0 -3.31023,-0.62626 -1.78932,-0.671 -3.22077,-1.78932 l -1.02886,1.87878 z m 4.29436,-5.01008 q 1.11832,0.89466 2.41558,1.43145 1.29725,0.49206 2.41557,0.49206 3.35497,0 4.69696,-2.32611 1.38672,-2.37084 1.38672,-5.45741 0,-3.2655 -1.29726,-5.54688 -1.29725,-2.32611 -4.78642,-2.32611 -1.11832,0 -2.41557,0.53679 -1.29726,0.49206 -2.41558,1.43145 z"
           style="font-weight:500;font-family:Palanquin;-inkscape-font-specification:'Palanquin, Medium';fill:#000000"
           id="path1570" />
        <path
           d="m 536.56672,385.17523 v -31.08936 l 4.29436,-0.49206 v 31.58142 z"
           style="font-weight:500;font-family:Palanquin;-inkscape-font-specification:'Palanquin, Medium';fill:#000000"
           id="path1572" />
        <path
           d="m 549.71816,359.58801 q -1.11833,0 -1.87879,-0.76046 -0.76046,-0.80519 -0.76046,-1.92351 -0.0447,-1.11832 0.71573,-1.87878 0.80519,-0.80519 1.92352,-0.80519 1.11832,0 1.92351,0.80519 0.80519,0.76046 0.80519,1.87878 0,1.11832 -0.80519,1.92351 -0.80519,0.76046 -1.92351,0.76046 z m -2.14718,25.58722 v -21.69545 h 4.33909 v 21.69545 z"
           style="font-weight:500;font-family:Palanquin;-inkscape-font-specification:'Palanquin, Medium';fill:#000000"
           id="path1574" />
        <path
           d="m 558.57524,385.17523 v -31.08936 l 4.29436,-0.49206 v 18.74308 l 9.6623,-9.43864 2.50504,2.8629 -6.44153,6.17314 8.63345,13.24094 h -5.01009 l -6.57573,-10.4675 -2.77344,2.68398 v 7.78352 z"
           style="font-weight:500;font-family:Palanquin;-inkscape-font-specification:'Palanquin, Medium';fill:#000000"
           id="path1576" />
        <path
           d="m 583.80459,378.91263 q 0,1.25252 0.89466,2.32611 0.89466,1.07359 2.72871,1.07359 1.65511,0 3.08657,-0.8052 1.47618,-0.80519 2.5945,-2.05771 v -4.38382 h -5.27848 q -1.96825,0 -2.9971,1.16305 -1.02886,1.16306 -1.02886,2.68398 z m -2.54977,-14.09087 q 1.25252,-0.84992 3.62336,-1.38672 2.37084,-0.53679 3.75756,-0.53679 3.75757,0 6.26261,2.10244 2.50504,2.10245 2.50504,5.45742 v 14.71712 h -2.41557 q -0.31313,-0.49206 -0.58153,-1.02885 -0.2684,-0.5368 -0.5368,-1.02886 -1.11832,0.98412 -2.8629,1.78931 -1.74459,0.8052 -3.48917,0.8052 -3.84703,0 -5.72581,-1.92352 -1.83405,-1.92351 -1.83405,-4.87588 0,-3.26551 2.19191,-4.96536 2.23665,-1.74458 5.77055,-1.74458 h 5.14428 q 0,-2.23664 -0.89466,-3.84703 -0.89465,-1.61038 -3.44443,-1.61038 -1.92351,0 -3.48917,0.49206 -1.56565,0.44733 -2.77344,0.98412 z"
           style="font-weight:500;font-family:Palanquin;-inkscape-font-specification:'Palanquin, Medium';fill:#000000"
           id="path1578" />
        <path
           d="m 605.67894,351.75976 h 4.11543 l 3.17603,3.84703 3.17604,-3.84703 h 3.93649 l -5.72581,7.06779 h -2.90764 z m 7.33619,14.80659 q -3.04183,0 -4.56275,2.23664 -1.47619,2.19191 -1.52092,5.45741 0,3.3997 1.43145,5.63635 1.43146,2.19191 4.51803,2.19191 1.96824,0 3.08657,-0.40259 1.16305,-0.4026 2.54977,-1.07359 l 1.29726,3.08657 q -1.43146,0.98412 -3.48917,1.52091 -2.05771,0.5368 -3.44443,0.5368 -5.01009,0 -7.69406,-3.17604 -2.63924,-3.17603 -2.63924,-8.27558 0.0447,-5.05482 2.7287,-8.23086 2.72871,-3.17603 7.78353,-3.17603 1.34198,0 3.35497,0.58153 2.05771,0.53679 3.48916,1.52091 l -1.25252,3.04184 q -1.38672,-0.58153 -2.54978,-1.02885 -1.16305,-0.44733 -3.08657,-0.44733 z"
           style="font-weight:500;font-family:Palanquin;-inkscape-font-specification:'Palanquin, Medium';fill:#000000"
           id="path1580" />
        <path
           d="m 628.67172,366.34268 q 1.38672,-1.52092 3.57863,-2.54977 2.19191,-1.02886 4.07069,-1.02886 3.98123,0 5.77055,2.32611 1.83404,2.28138 1.83404,5.77054 v 14.31453 h -4.29435 V 371.2633 q 0,-2.19191 -1.07359,-3.48917 -1.02886,-1.29725 -3.13131,-1.34198 -1.34198,0 -3.1313,0.84992 -1.78931,0.84993 -3.08657,2.23665 v 15.65651 h -4.29436 v -21.69545 h 2.41558 z"
           style="font-weight:500;font-family:Palanquin;-inkscape-font-specification:'Palanquin, Medium';fill:#000000"
           id="path1582" />
        <path
           d="m 652.96168,351.75976 h 4.60749 l -4.02597,7.06779 h -3.2655 z m -2.72871,33.41547 v -21.69545 h 4.33909 v 21.69545 z"
           style="font-weight:500;font-family:Palanquin;-inkscape-font-specification:'Palanquin, Medium';fill:#000000"
           id="path1584" />
        <path
           d="m 673.67299,351.75976 h 4.11543 l 3.17603,3.84703 3.17604,-3.84703 h 3.93649 l -5.72581,7.06779 h -2.90764 z m 7.33619,14.80659 q -3.04183,0 -4.56275,2.23664 -1.47619,2.19191 -1.52092,5.45741 0,3.3997 1.43145,5.63635 1.43146,2.19191 4.51803,2.19191 1.96824,0 3.08657,-0.40259 1.16305,-0.4026 2.54977,-1.07359 l 1.29725,3.08657 q -1.43145,0.98412 -3.48916,1.52091 -2.05771,0.5368 -3.44443,0.5368 -5.01009,0 -7.69406,-3.17604 -2.63924,-3.17603 -2.63924,-8.27558 0.0447,-5.05482 2.7287,-8.23086 2.72871,-3.17603 7.78353,-3.17603 1.34198,0 3.35496,0.58153 2.05772,0.53679 3.48917,1.52091 l -1.25252,3.04184 q -1.38672,-0.58153 -2.54978,-1.02885 -1.16305,-0.44733 -3.08657,-0.44733 z"
           style="font-weight:500;font-family:Palanquin;-inkscape-font-specification:'Palanquin, Medium';fill:#000000"
           id="path1586" />
        <path
           d="m 695.10008,359.58801 q -1.11832,0 -1.87878,-0.76046 -0.76046,-0.80519 -0.76046,-1.92351 -0.0447,-1.11832 0.71573,-1.87878 0.80519,-0.80519 1.92351,-0.80519 1.11833,0 1.92352,0.80519 0.80519,0.76046 0.80519,1.87878 0,1.11832 -0.80519,1.92351 -0.80519,0.76046 -1.92352,0.76046 z m -2.14718,25.58722 v -21.69545 h 4.3391 v 21.69545 z"
           style="font-weight:500;font-family:Palanquin;-inkscape-font-specification:'Palanquin, Medium';fill:#000000"
           id="path1588" />
        <path
           d="m 707.58053,366.34268 q 1.38672,-1.52092 3.57863,-2.54977 2.19191,-1.02886 4.0707,-1.02886 3.98122,0 5.77054,2.32611 1.83405,2.28138 1.83405,5.77054 v 14.31453 h -4.29436 V 371.2633 q 0,-2.19191 -1.07359,-3.48917 -1.02886,-1.29725 -3.1313,-1.34198 -1.34199,0 -3.13131,0.84992 -1.78931,0.84993 -3.08657,2.23665 v 15.65651 h -4.29435 v -21.69545 h 2.41557 z"
           style="font-weight:500;font-family:Palanquin;-inkscape-font-specification:'Palanquin, Medium';fill:#000000"
           id="path1590" />
        <path
           d="m 732.89935,366.34268 q 1.38672,-1.52092 3.57863,-2.54977 2.19191,-1.02886 4.07069,-1.02886 3.98123,0 5.77055,2.32611 1.83405,2.28138 1.83405,5.77054 v 14.31453 h -4.29436 V 371.2633 q 0,-2.19191 -1.07359,-3.48917 -1.02886,-1.29725 -3.13131,-1.34198 -1.34198,0 -3.1313,0.84992 -1.78931,0.84993 -3.08657,2.23665 v 15.65651 h -4.29436 v -21.69545 h 2.41558 z"
           style="font-weight:500;font-family:Palanquin;-inkscape-font-specification:'Palanquin, Medium';fill:#000000"
           id="path1592" />
        <path
           d="m 763.31771,385.75676 q -4.92061,-0.0447 -7.47039,-3.22077 -2.54977,-3.22077 -2.54977,-8.27559 0.0447,-5.01008 2.77343,-8.14138 2.72871,-3.17604 7.64933,-3.22077 5.09955,0 7.69406,3.2655 2.63924,3.22077 2.63924,8.32032 0,5.05482 -2.86291,8.14139 -2.8629,3.08657 -7.87299,3.1313 z m 6.39681,-11.27269 q 0,-3.48917 -1.38672,-5.68108 -1.38672,-2.23664 -4.47329,-2.23664 -3.08657,0 -4.60749,2.10244 -1.52092,2.05772 -1.56565,5.54688 0,3.62337 1.29725,5.77055 1.34199,2.10244 4.42856,2.10244 3.04184,0 4.65222,-2.01298 1.61039,-2.01298 1.65512,-5.59161 z"
           style="font-weight:500;font-family:Palanquin;-inkscape-font-specification:'Palanquin, Medium';fill:#000000"
           id="path1594" />
        <path
           d="m 791.90205,368.04253 q -1.25252,-0.58153 -2.63924,-1.02885 -1.34198,-0.44733 -3.08657,-0.44733 -1.69985,0 -2.7287,0.71572 -0.98413,0.671 -0.98413,1.83405 0.0447,0.98413 1.16306,1.74458 1.16305,0.71573 3.1313,1.38672 2.68397,0.98413 5.01008,2.68398 2.32612,1.65512 2.32612,4.33909 0,3.04184 -2.28138,4.78642 -2.23665,1.69985 -6.53101,1.69985 -1.38672,0 -3.57863,-0.49206 -2.19191,-0.49206 -3.57863,-1.47619 l 1.34199,-3.17603 q 1.38672,0.67099 2.8629,1.07359 1.47619,0.40259 2.95237,0.40259 2.14718,0 3.31024,-0.67099 1.20779,-0.671 1.20779,-1.92352 0,-1.25252 -1.29726,-2.14718 -1.25252,-0.93939 -3.35496,-1.61038 -2.54978,-0.84992 -4.83116,-2.37084 -2.28138,-1.52092 -2.28138,-4.16016 0,-2.95237 2.19192,-4.60749 2.23664,-1.69985 6.03894,-1.69985 1.38672,0 3.48916,0.53679 2.10245,0.5368 3.48917,1.52092 z"
           style="font-weight:500;font-family:Palanquin;-inkscape-font-specification:'Palanquin, Medium';fill:#000000"
           id="path1596" />
        <path
           d="m 810.19777,384.9963 q -0.58152,0.31313 -1.65511,0.62626 -1.02886,0.31313 -2.01298,0.31313 -3.17604,0 -5.05482,-1.74458 -1.87878,-1.74458 -1.87878,-5.05482 v -12.12261 h -3.04184 l -0.0447,-3.26551 h 3.08657 v -5.41268 l 4.29435,-0.98412 v 6.3968 h 3.9365 l 1.34199,3.26551 h -5.27849 v 11.45162 q 0,1.65511 0.71573,2.7287 0.76046,1.02886 2.37084,1.02886 0.5368,0 1.07359,-0.1342 0.58153,-0.17893 1.02886,-0.35786 z"
           style="font-weight:500;font-family:Palanquin;-inkscape-font-specification:'Palanquin, Medium';fill:#000000"
           id="path1598" />
        <path
           d="m 816.59462,359.58801 q -1.11832,0 -1.87878,-0.76046 -0.76046,-0.80519 -0.76046,-1.92351 -0.0447,-1.11832 0.71573,-1.87878 0.80519,-0.80519 1.92351,-0.80519 1.11832,0 1.92352,0.80519 0.80519,0.76046 0.80519,1.87878 0,1.11832 -0.80519,1.92351 -0.8052,0.76046 -1.92352,0.76046 z m -2.14718,25.58722 v -21.69545 h 4.33909 v 21.69545 z"
           style="font-weight:500;font-family:Palanquin;-inkscape-font-specification:'Palanquin, Medium';fill:#000000"
           id="path1600" />
        <path
           d="m 840.75034,373.90254 q 0,3.84703 2.05771,6.03894 2.05771,2.19191 5.41268,2.19191 3.48917,0 5.45741,-2.23664 1.96825,-2.23665 1.96825,-5.99421 v -19.14568 h 4.33909 v 19.54828 q 0,4.87588 -3.17603,8.14139 -3.13131,3.22076 -8.58872,3.22076 -5.45741,0 -8.63345,-3.22076 -3.1313,-3.22077 -3.1313,-8.14139 v -19.54828 h 4.29436 z"
           style="font-weight:500;font-family:Palanquin;-inkscape-font-specification:'Palanquin, Medium';fill:#000000"
           id="path1602" />
        <path
           d="m 891.29853,385.17523 h -5.23375 q -2.68398,-3.48916 -5.41268,-7.0678 -2.72871,-3.57863 -5.41269,-7.11253 -0.76045,0.93939 -1.56565,1.87878 -0.80519,0.89466 -1.56565,1.78932 v 10.51223 h -4.29436 v -30.41837 h 4.29436 v 14.09086 l 12.52521,-14.76185 q 0.76046,0.62626 1.52092,1.25252 0.80519,0.62626 1.52092,1.25252 l -9.66231,11.18322 z"
           style="font-weight:500;font-family:Palanquin;-inkscape-font-specification:'Palanquin, Medium';fill:#000000"
           id="path1604" />
      </g>
    </g>
  </g>
</svg>
