<?xml version="1.0" encoding="UTF-8" standalone="no"?>
<!-- Created with Inkscape (http://www.inkscape.org/) -->

<svg
   width="40.655922mm"
   height="40.655399mm"
   viewBox="0 0 40.655922 40.655399"
   version="1.1"
   id="svg1"
   xml:space="preserve"
   xmlns:inkscape="http://www.inkscape.org/namespaces/inkscape"
   xmlns:sodipodi="http://sodipodi.sourceforge.net/DTD/sodipodi-0.dtd"
   xmlns="http://www.w3.org/2000/svg"
   xmlns:svg="http://www.w3.org/2000/svg"><sodipodi:namedview
     id="namedview1"
     pagecolor="#ffffff"
     bordercolor="#000000"
     borderopacity="0.25"
     inkscape:showpageshadow="2"
     inkscape:pageopacity="0.0"
     inkscape:pagecheckerboard="0"
     inkscape:deskcolor="#d1d1d1"
     inkscape:document-units="mm" /><defs
     id="defs1" /><g
     inkscape:label="Layer 1"
     inkscape:groupmode="layer"
     id="layer1"
     transform="translate(-63.21113,-116.01876)"><path
       id="path1"
       style="fill:#d22d40;fill-opacity:1;stroke-width:0.264583"
       d="m 83.539087,116.01876 a 20.327856,20.327856 0 0 0 -20.327958,20.32796 20.327856,20.327856 0 0 0 20.327958,20.32744 20.327856,20.327856 0 0 0 20.327963,-20.32744 20.327856,20.327856 0 0 0 -20.327963,-20.32796 z m 6.40426,5.13819 c 1.192252,0 2.291795,0.11811 3.299024,0.3545 1.017503,0.22612 1.855234,0.48323 2.513025,0.77101 0.657784,0.28778 1.109839,0.51355 1.356506,0.67799 v 5.01055 c -0.873611,-0.62697 -1.849836,-1.18718 -2.92902,-1.68052 -1.068891,-0.49333 -2.214961,-0.74 -3.438033,-0.74 -0.801679,0 -1.382278,0.15417 -1.742013,0.4625 -0.359716,0.30835 -0.539502,0.6888 -0.539502,1.14102 0,0.42139 0.179786,0.78618 0.539502,1.0945 0.359735,0.30835 1.002014,0.68357 1.927014,1.12552 1.644471,0.77081 2.960362,1.46485 3.947046,2.08152 0.986657,0.61668 1.757508,1.33107 2.312521,2.14302 0.565284,0.80168 0.84801,1.80352 0.84801,3.00602 0,1.33613 -0.344388,2.49263 -1.033012,3.46904 -0.678337,0.97639 -1.629468,1.72634 -2.852539,2.25051 -1.223055,0.5139 -2.62572,0.77101 -4.208529,0.77101 -0.441942,0 -0.986512,-0.0308 -1.634009,-0.0925 -0.637238,-0.0515 -1.490642,-0.20562 -2.559533,-0.4625 -1.058617,-0.25694 -2.163388,-0.63739 -3.314527,-1.14102 v -5.24154 c 1.079184,0.66807 2.137965,1.22308 3.176034,1.66502 1.048343,0.44194 2.168285,0.663 3.360518,0.663 1.099731,0 1.808899,-0.17977 2.127519,-0.5395 0.328894,-0.37001 0.49351,-0.71441 0.49351,-1.03301 0,-0.57556 -0.277497,-1.05894 -0.832507,-1.44952 -0.555013,-0.40083 -1.361908,-0.8116 -2.420525,-1.233 -1.171683,-0.49334 -2.199129,-1.02796 -3.083015,-1.60352 -0.883908,-0.58586 -1.608743,-1.3154 -2.174028,-2.18902 -0.554992,-0.87362 -0.832507,-1.9068 -0.832507,-3.09903 0,-1.15112 0.282725,-2.18902 0.84801,-3.11402 0.565285,-0.9353 1.428629,-1.68053 2.590023,-2.23553 1.161393,-0.55501 2.579748,-0.8325 4.255037,-0.8325 z m -18.685164,0.293 h 6.444051 v 21.36769 h -6.444051 z m 7.142199,21.44934 h 0.888835 l 0.752409,0.76894 0.744141,-0.76894 h 0.888834 l -0.752409,1.4304 h -1.769401 z m -7.565429,1.85208 h 1.79834 l 1.310514,3.30729 1.347721,-3.30729 h 1.802474 l -2.583821,5.8043 h -1.141016 z m 7.044531,0 h 4.24987 v 1.14929 h -2.52181 v 1.05006 h 2.406055 v 1.15342 h -2.406055 v 1.2237 h 2.59209 v 1.15341 h -4.32015 z m 5.477702,0 h 2.38125 c 0.35829,0 0.664215,0.0193 0.917773,0.0579 0.256316,0.0358 0.486448,0.0882 0.690397,0.1571 0.20395,0.0661 0.377583,0.14192 0.520899,0.22737 0.143316,0.0827 0.271474,0.17225 0.384473,0.26872 0.195681,0.15985 0.366559,0.34865 0.51263,0.56637 0.148828,0.21774 0.26596,0.46992 0.351399,0.75655 0.08819,0.28663 0.132292,0.59807 0.132292,0.93431 0,0.58704 -0.107488,1.05833 -0.322461,1.41386 -0.212219,0.35554 -0.463022,0.64355 -0.752409,0.86403 -0.410656,0.32246 -0.985298,0.48369 -1.723925,0.48369 h -3.092318 z m 8.45013,0 h 1.909961 l 2.525944,5.72988 H 94.47382 l -0.467155,-1.16168 h -2.488737 l -0.475423,1.16168 h -1.769401 z m -6.72207,1.14929 v 3.3941 h 0.735872 c 0.451996,0 0.84336,-0.10748 1.174089,-0.32246 0.330728,-0.21497 0.496093,-0.65732 0.496093,-1.32705 0,-0.46578 -0.08957,-0.8282 -0.268717,-1.08727 -0.176388,-0.26183 -0.389984,-0.43683 -0.640788,-0.52503 -0.248046,-0.0882 -0.501606,-0.13229 -0.760677,-0.13229 z m 7.685319,0.33072 -0.847494,2.09187 h 1.686719 z" /></g></svg>
