<?xml version="1.0" encoding="UTF-8" standalone="no"?>
<!-- Created with Inkscape (http://www.inkscape.org/) -->

<svg
   width="10.842993mm"
   height="15.05043mm"
   viewBox="0 0 10.842993 15.05043"
   version="1.1"
   id="svg1"
   xml:space="preserve"
   inkscape:version="1.3 (0e150ed, 2023-07-21)"
   sodipodi:docname="open_access.svg"
   xmlns:inkscape="http://www.inkscape.org/namespaces/inkscape"
   xmlns:sodipodi="http://sodipodi.sourceforge.net/DTD/sodipodi-0.dtd"
   xmlns="http://www.w3.org/2000/svg"
   xmlns:svg="http://www.w3.org/2000/svg"><sodipodi:namedview
     id="namedview1"
     pagecolor="#ffffff"
     bordercolor="#000000"
     borderopacity="0.25"
     inkscape:showpageshadow="2"
     inkscape:pageopacity="0.0"
     inkscape:pagecheckerboard="0"
     inkscape:deskcolor="#d1d1d1"
     inkscape:document-units="mm"
     inkscape:zoom="1.4615431"
     inkscape:cx="262.736"
     inkscape:cy="305.15692"
     inkscape:window-width="1472"
     inkscape:window-height="821"
     inkscape:window-x="0"
     inkscape:window-y="37"
     inkscape:window-maximized="0"
     inkscape:current-layer="layer1" /><defs
     id="defs1" /><g
     inkscape:label="Layer 1"
     inkscape:groupmode="layer"
     id="layer1"
     transform="translate(-20.550957,-37.689906)"><g
       id="g612"
       style="fill:#ffffff;fill-opacity:1"
       inkscape:export-filename="open_access.svg"
       inkscape:export-xdpi="96"
       inkscape:export-ydpi="96"><path
         id="path601"
         style="fill:#ffffff;fill-opacity:1"
         d="m 26.217004,37.690206 c -1.292936,-0.01372 -2.605528,0.446889 -3.378605,1.363741 -0.731518,0.867564 -0.927075,1.517224 -0.927075,3.080949 0,1.278328 -0.03625,1.444828 -0.334346,1.539441 -0.183837,0.05835 -0.488266,0.302715 -0.676962,0.542602 -0.319749,0.406496 -0.343131,0.677184 -0.343131,3.982186 0,4.875222 -0.39731,4.536157 5.312854,4.536157 2.807625,0 4.467645,-0.06601 4.735628,-0.188102 0.702701,-0.320172 0.788582,-0.79762 0.788582,-4.383712 0,-2.109685 -0.07044,-3.52549 -0.188102,-3.783748 -0.319097,-0.70034 -0.801294,-0.788582 -4.30723,-0.788582 -3.294029,0 -3.293856,4.4e-5 -3.293856,-1.416451 0,-1.562033 0.236855,-2.072504 1.191658,-2.566252 1.183758,-0.612145 3.160482,-0.110395 3.437517,0.872298 0.132551,0.470187 0.236925,0.541754 0.925524,0.636137 0.426804,0.0585 0.833797,0.04831 0.904855,-0.02274 0.262003,-0.262003 -0.25182,-1.613166 -0.854728,-2.246891 -0.726109,-0.763222 -1.851757,-1.144933 -2.992583,-1.157035 z m -0.208256,8.536947 c 0.990281,0 1.541143,1.439672 0.805636,2.105297 -0.322079,0.291477 -0.322079,0.304888 0,1.056267 0.179424,0.418578 0.326078,0.792628 0.326078,0.831473 0,0.03885 -0.5323,0.0708 -1.182873,0.0708 -1.182862,0 -1.182434,-8.9e-5 -0.848011,-0.848527 0.333368,-0.845762 0.333277,-0.849626 -0.0026,-1.185457 -0.714148,-0.714148 -0.129569,-2.02985 0.901753,-2.02985 z" /></g></g></svg>
