<?xml version="1.0" encoding="UTF-8" standalone="no"?>
<!-- Created with Inkscape (http://www.inkscape.org/) -->

<svg
   width="11.006979mm"
   height="15.387328mm"
   viewBox="0 0 11.006979 15.387328"
   version="1.1"
   id="svg1"
   xml:space="preserve"
   inkscape:version="1.3 (0e150ed, 2023-07-21)"
   sodipodi:docname="open_access.svg"
   xmlns:inkscape="http://www.inkscape.org/namespaces/inkscape"
   xmlns:sodipodi="http://sodipodi.sourceforge.net/DTD/sodipodi-0.dtd"
   xmlns="http://www.w3.org/2000/svg"
   xmlns:svg="http://www.w3.org/2000/svg"><sodipodi:namedview
     id="namedview1"
     pagecolor="#ffffff"
     bordercolor="#000000"
     borderopacity="0.25"
     inkscape:showpageshadow="2"
     inkscape:pageopacity="0.0"
     inkscape:pagecheckerboard="0"
     inkscape:deskcolor="#d1d1d1"
     inkscape:document-units="mm"
     inkscape:zoom="1.4615431"
     inkscape:cx="262.736"
     inkscape:cy="305.15692"
     inkscape:window-width="1472"
     inkscape:window-height="821"
     inkscape:window-x="0"
     inkscape:window-y="37"
     inkscape:window-maximized="0"
     inkscape:current-layer="layer1" /><defs
     id="defs1" /><g
     inkscape:label="Layer 1"
     inkscape:groupmode="layer"
     id="layer1"
     transform="translate(-23.609412,-86.253484)"><path
       id="path603"
       style="fill:#ffffff;fill-opacity:1"
       d="m 29.137756,86.25365 c -1.229315,-0.01032 -2.46004,0.440494 -3.23236,1.356506 -0.748129,0.887315 -0.941545,1.525883 -0.941545,3.113505 0,1.373497 -0.02109,1.45711 -0.406177,1.60352 -0.886741,0.337139 -0.948262,0.632283 -0.948262,4.542358 0,2.144675 0.07062,3.746301 0.173632,3.938781 0.403368,0.7537 0.855729,0.82482 5.295801,0.83199 3.424184,0.006 4.290499,-0.0405 4.693771,-0.24908 0.272012,-0.14066 0.573315,-0.4027 0.669209,-0.58188 0.232757,-0.43491 0.232757,-7.372881 0,-7.807792 -0.09589,-0.179178 -0.400839,-0.442954 -0.677478,-0.58601 -0.490886,-0.253847 -0.502811,-0.290863 -0.502811,-1.548226 0,-1.57493 -0.228632,-2.386918 -0.901237,-3.202905 -0.765702,-0.928929 -1.993227,-1.400443 -3.222543,-1.410767 z m -0.121439,1.890324 c 0.443579,-0.0033 0.902789,0.07445 1.283642,0.233577 0.915133,0.382368 1.266875,1.125424 1.267623,2.677356 6.33e-4,1.312331 6.98e-4,1.312065 -2.45463,1.312065 -2.455329,0 -2.455264,2.67e-4 -2.454631,-1.312065 7.22e-4,-1.497281 0.317482,-2.218724 1.168404,-2.658752 0.317783,-0.164333 0.746011,-0.248879 1.189592,-0.252181 z m 0.09922,6.93136 c 0.346283,-0.0031 0.68196,0.14721 0.917774,0.447001 0.444417,0.564985 0.442684,0.91577 -0.0072,1.487764 -0.344264,0.437662 -0.347631,0.48315 -0.08475,1.171505 0.150427,0.393888 0.273885,0.770935 0.273885,0.837675 0,0.0667 -0.495342,0.120923 -1.100708,0.120923 -0.605732,0 -1.100708,-0.07457 -1.100708,-0.165882 0,-0.0913 0.123794,-0.475739 0.275435,-0.854728 0.265884,-0.664507 0.263303,-0.702872 -0.08423,-1.072802 -0.470406,-0.500724 -0.45779,-1.142288 0.03152,-1.60197 0.25995,-0.244209 0.573473,-0.366778 0.879016,-0.369486 z" /></g></svg>
