<?xml version="1.0" encoding="utf-8"?>
<!-- Generator: Adobe Illustrator 27.0.1, SVG Export Plug-In . SVG Version: 6.00 Build 0)  -->
<svg version="1.1" xmlns="http://www.w3.org/2000/svg" xmlns:xlink="http://www.w3.org/1999/xlink" x="0px" y="0px"
	 viewBox="0 0 111.4 106.9" style="enable-background:new 0 0 111.4 106.9;" xml:space="preserve">
<style type="text/css">
	.st0{fill:#FFFFFF;}
	.st1{display:none;}
	.st2{display:inline;}
	.st3{fill:none;stroke:#C40D3C;stroke-width:9.260176e-02;stroke-miterlimit:10;}
	.st4{fill:none;stroke:#C40D3C;stroke-width:9.260176e-02;stroke-miterlimit:10;stroke-dasharray:5.6918,2.8459;}
	.st5{fill:none;stroke:#C40D3C;stroke-width:9.260176e-02;stroke-miterlimit:10;stroke-dasharray:5.2833,2.6416;}
	.st6{fill:none;stroke:#C40D3C;stroke-width:9.022072e-02;stroke-miterlimit:10;}
	.st7{fill:none;stroke:#C40D3C;stroke-width:9.022072e-02;stroke-miterlimit:10;stroke-dasharray:5.3,2.65;}
	.st8{fill:none;stroke:#C40D3C;stroke-width:9.022072e-02;stroke-miterlimit:10;stroke-dasharray:5.4868,2.7434;}
	.st9{display:inline;opacity:0.1;fill:#C40D3C;}
	.st10{display:inline;opacity:0.7;}
	.st11{fill:none;stroke:#003E5B;stroke-width:0.1;stroke-miterlimit:10;}
	.st12{fill:none;stroke:#003E5B;stroke-width:0.1;stroke-miterlimit:10;stroke-dasharray:5.9722,2.9861;}
	.st13{fill:none;stroke:#003E5B;stroke-width:0.1;stroke-miterlimit:10;stroke-dasharray:5.7719,2.886;}
	.st14{display:inline;fill:none;}
	.st15{display:inline;opacity:0.5;fill:#003E5B;}
	.st16{font-family:'Silka-Regular';}
	.st17{font-size:8px;}
</style>
<g id="LOGO_EN">
	<path class="st0" d="M62.5,31.4c-0.4-0.2-0.8-0.3-1.3-0.4c0.6-1.6,0.6-3.3,0.1-4.8c-1.6,0.4-3,1.3-4,2.6c-0.2-0.4-0.6-0.7-1-0.9
		c-1.4-0.8-3.1-0.3-3.8,1.1c-0.8,1.4-0.3,3.1,1.1,3.8c0.7,0.4,1.5,0.4,2.2,0.2c-1.2,1.3-3,2.2-5,2.2c-3.1,0-5.7-2.1-6.5-4.9
		c0.5,0.5,1.2,0.9,2,0.9c1.5,0,2.8-1.3,2.8-2.8c0-1.6-1.3-2.8-2.8-2.8c-0.5,0-0.9,0.1-1.3,0.3c-0.2-1.7-1.1-3.2-2.2-4.3
		c-1.2,1.1-2,2.6-2.2,4.3c-0.4-0.2-0.8-0.3-1.3-0.3c-1.5,0-2.8,1.3-2.8,2.8c0,1.6,1.3,2.8,2.8,2.8c0.8,0,1.5-0.3,2-0.9
		c-0.8,2.8-3.4,4.9-6.5,4.9c-2,0-3.8-0.8-5-2.2c0.7,0.2,1.5,0.2,2.2-0.2c1.4-0.8,1.8-2.5,1.1-3.8c-0.8-1.4-2.5-1.8-3.8-1.1
		c-0.4,0.2-0.7,0.5-1,0.9c-1-1.3-2.5-2.2-4-2.6c-0.5,1.5-0.5,3.2,0.1,4.8c-0.4,0-0.9,0.1-1.3,0.4c-1.4,0.8-1.8,2.5-1.1,3.8
		c0.8,1.4,2.5,1.8,3.8,1.1c0.5-0.3,0.9-0.7,1.1-1.2c0.8,1.5,1.2,3.2,1.2,4.9c0,0.7-0.1,1.3-0.2,1.9c0,0.1,0.1,0.2,0.2,0.2
		c4.2,0.6,9.2,1,14.6,1s10.4-0.4,14.6-1c0.1,0,0.2-0.1,0.2-0.2c-0.1-0.6-0.2-1.3-0.2-1.9c0-1.8,0.4-3.5,1.2-4.9
		c0.2,0.5,0.6,0.9,1.1,1.2c1.4,0.8,3.1,0.3,3.8-1.1C64.3,33.8,63.8,32.1,62.5,31.4z"/>
	<path class="st0" d="M59.1,70.1V58.4c0-3.6-1.5-7.8-1.5-8v-0.2h12.6v0.2c0,0.2-1.5,4.4-1.5,8v12.9c0,7.1,2.9,10.1,7.5,10.1
		c4.6,0,7.5-3.1,7.5-9.7v-9.2c0-5.5-3-11.7-3-12v-0.3h9.2v0.3c0,0.3-3,6.5-3,12v9.2c0,9.8-6,13.7-13.3,13.7
		C66.7,85.3,59.1,81.8,59.1,70.1z"/>
	<path class="st0" d="M24.8,67.5c0-10.8,7.3-17.8,17.3-17.8c3.6,0,7.7,0.8,12.2,1.9v10.5h-0.3c-2.7-4-6.7-10-10.8-10
		c-4.1,0-7.8,6.3-7.8,15.4c0,9.1,3.7,15.4,7.8,15.4c3.6,0,7.3-5,10.8-10.1h0.3v10.6c-4.6,1.1-8.4,1.9-12.6,1.9
		C32.1,85.3,24.8,78.2,24.8,67.5z"/>
</g>
<g id="SAFE_ZONE" class="st1">
	<g class="st2">
		<g>
			<polyline class="st3" points="89.8,82.5 89.8,85.3 87,85.3 			"/>
			<line class="st4" x1="84.2" y1="85.3" x2="25.8" y2="85.3"/>
			<polyline class="st3" points="24.4,85.3 21.6,85.3 21.6,82.5 			"/>
			<line class="st5" x1="21.6" y1="79.9" x2="21.6" y2="25.7"/>
			<polyline class="st3" points="21.6,24.4 21.6,21.6 24.4,21.6 			"/>
			<line class="st4" x1="27.2" y1="21.6" x2="85.6" y2="21.6"/>
			<polyline class="st3" points="87,21.6 89.8,21.6 89.8,24.4 			"/>
			<line class="st5" x1="89.8" y1="27" x2="89.8" y2="81.2"/>
		</g>
	</g>
	<g class="st2">
		<g>
			<polyline class="st6" points="111.4,104.2 111.4,106.9 108.7,106.9 			"/>
			<line class="st7" x1="106.1" y1="106.9" x2="4" y2="106.9"/>
			<polyline class="st6" points="2.7,106.9 0,106.9 0,104.2 			"/>
			<line class="st8" x1="0" y1="101.5" x2="0" y2="4.1"/>
			<polyline class="st6" points="0,2.7 0,0 2.7,0 			"/>
			<line class="st7" x1="5.4" y1="0" x2="107.4" y2="0"/>
			<polyline class="st6" points="108.7,0 111.4,0 111.4,2.7 			"/>
			<line class="st8" x1="111.4" y1="5.5" x2="111.4" y2="102.8"/>
		</g>
	</g>
	<path class="st9" d="M62.5,9.7c-0.4-0.2-0.8-0.3-1.3-0.4c0.6-1.6,0.6-3.3,0.1-4.8c-1.6,0.4-3,1.3-4,2.6c-0.2-0.4-0.6-0.7-1-0.9
		C55,5.6,53.3,6,52.5,7.4c-0.8,1.4-0.3,3.1,1.1,3.8c0.7,0.4,1.5,0.4,2.2,0.2c-1.2,1.3-3,2.2-5,2.2c-3.1,0-5.7-2.1-6.5-4.9
		c0.5,0.5,1.2,0.9,2,0.9c1.5,0,2.8-1.3,2.8-2.8c0-1.6-1.3-2.8-2.8-2.8c-0.5,0-0.9,0.1-1.3,0.3C44.8,2.6,44,1.1,42.8,0
		c-1.2,1.1-2,2.6-2.2,4.3c-0.4-0.2-0.8-0.3-1.3-0.3c-1.5,0-2.8,1.3-2.8,2.8c0,1.6,1.3,2.8,2.8,2.8c0.8,0,1.5-0.3,2-0.9
		c-0.8,2.8-3.4,4.9-6.5,4.9c-2,0-3.8-0.8-5-2.2c0.7,0.2,1.5,0.2,2.2-0.2c1.4-0.8,1.8-2.5,1.1-3.8c-0.8-1.4-2.5-1.8-3.8-1.1
		c-0.4,0.2-0.7,0.5-1,0.9c-1-1.3-2.5-2.2-4-2.6c-0.5,1.5-0.5,3.2,0.1,4.8c-0.4,0-0.9,0.1-1.3,0.4c-1.4,0.8-1.8,2.5-1.1,3.8
		c0.8,1.4,2.5,1.8,3.8,1.1c0.5-0.3,0.9-0.7,1.1-1.2c0.8,1.5,1.2,3.2,1.2,4.9c0,0.7-0.1,1.3-0.2,1.9c0,0.1,0.1,0.2,0.2,0.2
		c4.2,0.6,9.2,1,14.6,1s10.4-0.4,14.6-1c0.1,0,0.2-0.1,0.2-0.2c-0.1-0.6-0.2-1.3-0.2-1.9c0-1.8,0.4-3.5,1.2-4.9
		c0.2,0.5,0.6,0.9,1.1,1.2c1.4,0.8,3.1,0.3,3.8-1.1C64.3,12.2,63.8,10.5,62.5,9.7z"/>
	<path class="st9" d="M101.7,69.9c0.2-0.4,0.3-0.8,0.4-1.3c1.6,0.6,3.3,0.6,4.8,0.1c-0.4-1.6-1.3-3-2.6-4c0.4-0.2,0.7-0.6,0.9-1
		c0.8-1.4,0.3-3.1-1.1-3.8c-1.4-0.8-3.1-0.3-3.8,1.1c-0.4,0.7-0.4,1.5-0.2,2.2c-1.3-1.2-2.2-3-2.2-5c0-3.1,2.1-5.7,4.9-6.5
		c-0.5,0.5-0.9,1.2-0.9,2c0,1.5,1.3,2.8,2.8,2.8c1.6,0,2.8-1.3,2.8-2.8c0-0.5-0.1-0.9-0.3-1.3c1.7-0.2,3.2-1.1,4.3-2.2
		c-1.1-1.2-2.6-2-4.3-2.2c0.2-0.4,0.3-0.8,0.3-1.3c0-1.5-1.3-2.8-2.8-2.8c-1.6,0-2.8,1.3-2.8,2.8c0,0.8,0.3,1.5,0.9,2
		c-2.8-0.8-4.9-3.4-4.9-6.5c0-2,0.8-3.8,2.2-5c-0.2,0.7-0.2,1.5,0.2,2.2c0.8,1.4,2.5,1.8,3.8,1.1c1.4-0.8,1.8-2.5,1.1-3.8
		c-0.2-0.4-0.5-0.7-0.9-1c1.3-1,2.2-2.5,2.6-4c-1.5-0.5-3.2-0.5-4.8,0.1c0-0.4-0.1-0.9-0.4-1.3c-0.8-1.4-2.5-1.8-3.8-1.1
		c-1.4,0.8-1.8,2.5-1.1,3.8c0.3,0.5,0.7,0.9,1.2,1.1c-1.5,0.8-3.2,1.2-4.9,1.2c-0.7,0-1.3-0.1-1.9-0.2c-0.1,0-0.2,0.1-0.2,0.2
		c-0.6,4.2-1,9.2-1,14.6s0.4,10.4,1,14.6c0,0.1,0.1,0.2,0.2,0.2c0.6-0.1,1.3-0.2,1.9-0.2c1.8,0,3.5,0.4,4.9,1.2
		c-0.5,0.2-0.9,0.6-1.2,1.1c-0.8,1.4-0.3,3.1,1.1,3.8C99.2,71.7,100.9,71.2,101.7,69.9z"/>
	<path class="st9" d="M36,97.2c0.4,0.2,0.8,0.3,1.3,0.4c-0.6,1.6-0.6,3.3-0.1,4.8c1.6-0.4,3-1.3,4-2.6c0.2,0.4,0.6,0.7,1,0.9
		c1.4,0.8,3.1,0.3,3.8-1.1c0.8-1.4,0.3-3.1-1.1-3.8c-0.7-0.4-1.5-0.4-2.2-0.2c1.2-1.3,3-2.2,5-2.2c3.1,0,5.7,2.1,6.5,4.9
		c-0.5-0.5-1.2-0.9-2-0.9c-1.5,0-2.8,1.3-2.8,2.8c0,1.6,1.3,2.8,2.8,2.8c0.5,0,0.9-0.1,1.3-0.3c0.2,1.7,1.1,3.2,2.2,4.3
		c1.2-1.1,2-2.6,2.2-4.3c0.4,0.2,0.8,0.3,1.3,0.3c1.5,0,2.8-1.3,2.8-2.8c0-1.6-1.3-2.8-2.8-2.8c-0.8,0-1.5,0.3-2,0.9
		c0.8-2.8,3.4-4.9,6.5-4.9c2,0,3.8,0.8,5,2.2c-0.7-0.2-1.5-0.2-2.2,0.2c-1.4,0.8-1.8,2.5-1.1,3.8c0.8,1.4,2.5,1.8,3.8,1.1
		c0.4-0.2,0.7-0.5,1-0.9c1,1.3,2.5,2.2,4,2.6c0.5-1.5,0.5-3.2-0.1-4.8c0.4,0,0.9-0.1,1.3-0.4c1.4-0.8,1.8-2.5,1.1-3.8
		c-0.8-1.4-2.5-1.8-3.8-1.1c-0.5,0.3-0.9,0.7-1.1,1.2c-0.8-1.5-1.2-3.2-1.2-4.9c0-0.7,0.1-1.3,0.2-1.9c0-0.1-0.1-0.2-0.2-0.2
		c-4.2-0.6-9.2-1-14.6-1c-5.4,0-10.4,0.4-14.6,1c-0.1,0-0.2,0.1-0.2,0.2c0.1,0.6,0.2,1.3,0.2,1.9c0,1.8-0.4,3.5-1.2,4.9
		c-0.2-0.5-0.6-0.9-1.1-1.2c-1.4-0.8-3.1-0.3-3.8,1.1C34.2,94.7,34.6,96.4,36,97.2z"/>
	<path class="st9" d="M9.7,14.1c-0.2,0.4-0.3,0.8-0.4,1.3c-1.6-0.6-3.3-0.6-4.8-0.1c0.4,1.6,1.3,3,2.6,4c-0.4,0.2-0.7,0.6-0.9,1
		c-0.8,1.4-0.3,3.1,1.1,3.8c1.4,0.8,3.1,0.3,3.8-1.1c0.4-0.7,0.4-1.5,0.2-2.2c1.3,1.2,2.2,3,2.2,5c0,3.1-2.1,5.7-4.9,6.5
		c0.5-0.5,0.9-1.2,0.9-2c0-1.5-1.3-2.8-2.8-2.8c-1.6,0-2.8,1.3-2.8,2.8c0,0.5,0.1,0.9,0.3,1.3c-1.7,0.2-3.2,1.1-4.3,2.2
		c1.1,1.2,2.6,2,4.3,2.2c-0.2,0.4-0.3,0.8-0.3,1.3c0,1.5,1.3,2.8,2.8,2.8c1.6,0,2.8-1.3,2.8-2.8c0-0.8-0.3-1.5-0.9-2
		c2.8,0.8,4.9,3.4,4.9,6.5c0,2-0.8,3.8-2.2,5c0.2-0.7,0.2-1.5-0.2-2.2c-0.8-1.4-2.5-1.8-3.8-1.1c-1.4,0.8-1.8,2.5-1.1,3.8
		c0.2,0.4,0.5,0.7,0.9,1c-1.3,1-2.2,2.5-2.6,4c1.5,0.5,3.2,0.5,4.8-0.1c0,0.4,0.1,0.9,0.4,1.3c0.8,1.4,2.5,1.8,3.8,1.1
		c1.4-0.8,1.8-2.5,1.1-3.8c-0.3-0.5-0.7-0.9-1.2-1.1c1.5-0.8,3.2-1.2,4.9-1.2c0.7,0,1.3,0.1,1.9,0.2c0.1,0,0.2-0.1,0.2-0.2
		c0.6-4.2,1-9.2,1-14.6s-0.4-10.4-1-14.6c0-0.1-0.1-0.2-0.2-0.2c-0.6,0.1-1.3,0.2-1.9,0.2c-1.8,0-3.5-0.4-4.9-1.2
		c0.5-0.2,0.9-0.6,1.2-1.1c0.8-1.4,0.3-3.1-1.1-3.8C12.2,12.3,10.5,12.8,9.7,14.1z"/>
</g>
<g id="KOTY" class="st1">
	<g class="st10">
		<g>
			<line class="st11" x1="15.8" y1="84.7" x2="18.8" y2="84.7"/>
			<line class="st12" x1="21.8" y1="84.7" x2="92" y2="84.7"/>
			<line class="st11" x1="93.4" y1="84.7" x2="96.4" y2="84.7"/>
		</g>
	</g>
	<g class="st10">
		<g>
			<line class="st11" x1="15.8" y1="50.2" x2="18.8" y2="50.2"/>
			<line class="st12" x1="21.8" y1="50.2" x2="92" y2="50.2"/>
			<line class="st11" x1="93.4" y1="50.2" x2="96.4" y2="50.2"/>
		</g>
	</g>
	<g class="st10">
		<g>
			<line class="st11" x1="15.8" y1="43.2" x2="18.8" y2="43.2"/>
			<line class="st12" x1="21.8" y1="43.2" x2="92" y2="43.2"/>
			<line class="st11" x1="93.4" y1="43.2" x2="96.4" y2="43.2"/>
		</g>
	</g>
	<g class="st10">
		<g>
			<line class="st11" x1="54.4" y1="30.7" x2="54.4" y2="33.7"/>
			<line class="st13" x1="54.4" y1="36.6" x2="54.4" y2="87.1"/>
			<line class="st11" x1="54.4" y1="88.5" x2="54.4" y2="91.5"/>
		</g>
	</g>
	<g class="st10">
		<g>
			<line class="st11" x1="57.6" y1="30.7" x2="57.6" y2="33.7"/>
			<line class="st13" x1="57.6" y1="36.6" x2="57.6" y2="87.1"/>
			<line class="st11" x1="57.6" y1="88.5" x2="57.6" y2="91.5"/>
		</g>
	</g>
	<rect x="-15" y="43.2" class="st14" width="34" height="6.9"/>
	<text transform="matrix(1 0 0 1 1.3696 49.6968)" class="st15 st16 st17">0.2 ×</text>
	<rect x="-17.7" y="50.2" class="st14" width="34" height="34.6"/>
	<text transform="matrix(1 0 0 1 6.8465 70.4327)" class="st15 st16 st17">1 ×</text>
</g>
</svg>
