<?xml version="1.0" encoding="utf-8"?>
<!-- Generator: Adobe Illustrator 26.5.0, SVG Export Plug-In . SVG Version: 6.00 Build 0)  -->
<svg version="1.1" xmlns="http://www.w3.org/2000/svg" xmlns:xlink="http://www.w3.org/1999/xlink" x="0px" y="0px"
	 viewBox="0 0 353.6 267.9" style="enable-background:new 0 0 353.6 267.9;" xml:space="preserve">
<style type="text/css">
	.st0{fill:#FFFFFF;}
	.st1{display:none;}
	.st2{display:inline;opacity:0.1;fill:#C40D3C;}
	.st3{display:inline;}
	.st4{fill:none;stroke:#C40D3C;stroke-width:0.1;stroke-miterlimit:10;}
	.st5{fill:none;stroke:#C40D3C;stroke-width:0.1;stroke-miterlimit:10;stroke-dasharray:5.9489,2.9744;}
	.st6{fill:none;stroke:#C40D3C;stroke-width:0.1;stroke-miterlimit:10;stroke-dasharray:6.0836,3.0418;}
	.st7{fill:none;stroke:#C40D3C;stroke-width:0.1;stroke-miterlimit:10;stroke-dasharray:6.0451,3.0226;}
	.st8{fill:none;stroke:#C40D3C;stroke-width:0.1;stroke-miterlimit:10;stroke-dasharray:5.9514,2.9757;}
	.st9{display:inline;opacity:0.7;}
	.st10{fill:none;stroke:#023B59;stroke-width:0.1;stroke-miterlimit:10;}
	.st11{fill:none;stroke:#023B59;stroke-width:0.1;stroke-miterlimit:10;stroke-dasharray:5.9352,2.9676;}
	.st12{display:inline;fill:none;}
	.st13{display:inline;opacity:0.5;fill:#023B59;}
	.st14{font-family:'Silka-Regular';}
	.st15{font-size:8px;}
</style>
<g id="LOGO">
	<g>
		<path class="st0" d="M96.4,216H83.9v-0.2c0-0.2,1.5-4.4,1.5-8v-18.1c0-3.6-1.5-7.8-1.5-8v-0.2h12.6v0.2c0,0.2-1.5,4.4-1.5,8v18.1
			c0,3.6,1.5,7.8,1.5,8V216z M102,208.9l-6.4-9.9c-0.1-0.2-0.2-0.3,0.1-0.6l4.1-3.8l4.5-4.2c4-3.7,2.3-8.4,2.3-8.7v-0.3H118v0.2
			c-2,1.3-4.2,3.3-6.9,5.8l-7.6,7.1l10.1,14.5c2.1,3,5.4,6.6,5.4,6.8v0.2h-14.8C104.2,215.8,103.9,212,102,208.9z"/>
		<path class="st0" d="M120.2,208.6c0-4.9,4.3-8,9.1-8c1.4,0,3.6,0.3,5.5,1.1V199c0-3.3,0-5.4-1.1-5.4c-2.7,0-11.2,6.8-11.2,6.8
			h-0.2v-7.6c4.8-1.1,9.4-1.6,12-1.6c7.2,0,9.5,3.8,9.5,8.5v8.3c0,3.1,0.5,4.6,3,3.3l0.1,0.1c-0.2,2.8-2.3,5-5.9,5
			c-3,0-5-1.5-5.9-4.2c-1,1.9-3.4,4.2-7.3,4.2C122.8,216.5,120.2,212.3,120.2,208.6z M133.1,211.6c0.7,0,1.2-0.2,1.8-0.6
			c-0.1-0.5-0.1-1.1-0.1-1.7v-6c-0.5-0.1-1-0.2-1.4-0.2c-2.8,0-3.8,1.7-3.8,4C129.5,209.7,130.8,211.6,133.1,211.6z"/>
		<path class="st0" d="M161.1,216h-12v-0.2c0-0.2,1.5-4.4,1.5-8v-8.1c0-3.6-1.5-7.8-1.5-8v-0.2h10.5v5.2c1.7-3.9,4.7-7.2,10.4-5.3
			l-1.4,9.5h-0.2c-2-2.3-5.1-4.7-8.7-2.9v9.8c0,3.6,1.5,7.8,1.5,8V216z"/>
		<path class="st0" d="M184.1,216h-12v-0.2c0-0.2,1.5-4.4,1.5-8v-18.6c0-3.6-1.6-7.6-1.6-7.8l0-0.2l1.5-0.2l9.2-1v27.8
			c0,3.6,1.5,7.8,1.5,8V216z"/>
		<path class="st0" d="M186.9,203.7c0-8.8,6.3-12.5,13.3-12.5c7,0,13.3,3.7,13.3,12.5c0,8.8-6.4,12.9-13.3,12.9
			C193.2,216.6,186.9,212.6,186.9,203.7z M203.4,203.7c0-4.8-0.4-10.3-3.3-10.3c-2.9,0-3.2,5.6-3.2,10.3c0,4.8,0.3,10.7,3.2,10.7
			C203,214.4,203.4,208.5,203.4,203.7z"/>
		<path class="st0" d="M213.9,191.7v-0.1h14.3v0.2c0,0.1-1.8,3.6-0.5,6.7l4.1,9.1l3.7-9.1c1.2-3-0.6-6.6-0.6-6.7v-0.2h7.4v0.2
			c0,0.2-2.6,4.1-4,7.5l-7.1,16.8h-5.5l-7.6-16.8C216.6,195.8,213.9,191.9,213.9,191.7z"/>
		<path class="st0" d="M242.9,208.6c0-4.9,4.3-8,9.1-8c1.4,0,3.6,0.3,5.5,1.1V199c0-3.3,0-5.4-1.1-5.4c-2.7,0-11.2,6.8-11.2,6.8H245
			v-7.6c4.8-1.1,9.4-1.6,12-1.6c7.2,0,9.5,3.8,9.5,8.5v8.3c0,3.1,0.5,4.6,3,3.3l0.1,0.1c-0.2,2.8-2.3,5-5.9,5c-3,0-5-1.5-5.9-4.2
			c-1,1.9-3.4,4.2-7.3,4.2C245.5,216.5,242.9,212.3,242.9,208.6z M255.9,211.6c0.7,0,1.2-0.2,1.8-0.6c-0.1-0.5-0.1-1.1-0.1-1.7v-6
			c-0.5-0.1-1-0.2-1.4-0.2c-2.8,0-3.8,1.7-3.8,4C252.2,209.7,253.5,211.6,255.9,211.6z"/>
	</g>
	<g>
		<path class="st0" d="M97.6,164.2h-12V164c0-0.2,1.5-4.4,1.5-8v-8.1c0-3.6-1.5-7.8-1.5-8v-0.2h10.5v4.1c1.2-2.2,3.8-4.4,7.7-4.4
			c4.5,0,8,2.9,8,8v8.6c0,3.6,1.5,7.8,1.5,8v0.2h-12V164c0-0.2,1.5-4.4,1.5-8v-7.3c0-2.8-1.7-3.7-3.5-3.8c-1.1,0-2.2,0.3-3.2,0.7
			V156c0,3.6,1.5,7.8,1.5,8V164.2z"/>
		<path class="st0" d="M129.7,164.2h-12V164c0-0.2,1.5-4.4,1.5-8v-8.1c0-3.6-1.5-7.8-1.5-8v-0.2h10.5V156c0,3.6,1.5,7.8,1.5,8V164.2
			z M117.8,132.3c0-3,2.4-5.3,5.4-5.3c3,0,5.4,2.4,5.4,5.3c0,3-2.5,5.3-5.4,5.3C120.4,137.6,117.8,135.3,117.8,132.3z"/>
		<path class="st0" d="M159.9,152c0-8.1,5.3-12.6,13.1-12.6c9.1,0,11.8,6.7,11.8,12.2h-14.8c0.6,4.3,2.4,7.3,7,7.3
			c2.4,0,4.3-0.6,7.1-2.1l0.2,0.1c-1,3.1-4.8,7.8-11.4,7.8C166.8,164.8,159.9,161,159.9,152z M169.8,150.4l6.1-1.9
			c0-2.9-0.2-6.9-3.1-6.9c-2.8,0-3.2,3.9-3.1,6.9C169.7,149.2,169.7,149.8,169.8,150.4z"/>
		<path class="st0" d="M199.8,164.2h-12V164c0-0.2,1.5-4.4,1.5-8v-8.1c0-3.6-1.5-7.8-1.5-8v-0.2h10.5v5.2c1.7-3.9,4.7-7.2,10.4-5.3
			l-1.4,9.5h-0.2c-2-2.3-5.1-4.7-8.7-2.9v9.8c0,3.6,1.5,7.8,1.5,8V164.2z"/>
		<path class="st0" d="M223.6,142H222c-4.4,0-9.4,6.7-9.6,6.7h-0.2v-8.9h23.7l-12.2,22.2h1.3c4.4,0,9.4-6.7,9.6-6.7h0.2v9h-23.3
			L223.6,142z"/>
		<path class="st0" d="M251.1,164.2h-12V164c0-0.2,1.5-4.4,1.5-8v-8.1c0-3.6-1.5-7.8-1.5-8v-0.2h10.5V156c0,3.6,1.5,7.8,1.5,8V164.2
			z M239.3,132.3c0-3,2.4-5.3,5.4-5.3c3,0,5.4,2.4,5.4,5.3c0,3-2.5,5.3-5.4,5.3C241.8,137.6,239.3,135.3,239.3,132.3z"/>
		<path class="st0" d="M256.7,156.3v-14.2h-3.5v-2.4c5.4-2.8,9.2-5.8,12.5-9.1v9.1h6.4v2.4h-6.4l0,13.4c0,2.4,1.3,3.4,3.1,3.4
			c1,0,2-0.3,3.1-0.7c-1.1,3.2-3.3,6.6-8.1,6.6C259.5,164.8,256.7,161.9,256.7,156.3z"/>
		<path class="st0" d="M274.9,156.7c0-4.9,4.3-8,9.1-8c1.4,0,3.6,0.3,5.5,1.1v-2.6c0-3.3,0-5.4-1.1-5.4c-2.7,0-11.2,6.8-11.2,6.8
			H277V141c4.8-1.1,9.4-1.6,12-1.6c7.2,0,9.5,3.8,9.5,8.5v8.3c0,3.1,0.5,4.6,3,3.3l0.1,0.1c-0.2,2.8-2.3,5-5.9,5c-3,0-5-1.5-5.9-4.2
			c-1,1.9-3.4,4.2-7.3,4.2C277.5,164.7,274.9,160.5,274.9,156.7z M287.9,159.8c0.7,0,1.2-0.2,1.8-0.6c-0.1-0.5-0.1-1.1-0.1-1.7v-6
			c-0.5-0.1-1-0.2-1.4-0.2c-2.8,0-3.8,1.7-3.8,4C284.3,157.8,285.5,159.8,287.9,159.8z"/>
		<path class="st0" d="M131.8,139.8v-0.1H146v0.2c0,0.1-1.8,3.6-0.5,6.7l4.1,9.1l3.7-9.1c1.2-3-0.6-6.6-0.6-6.7v-0.2h7.4v0.2
			c0,0.2-2.6,4.1-4,7.5l-7.1,16.8h-5.5l-7.6-16.8C134.5,144,131.8,140,131.8,139.8z"/>
		<path class="st0" d="M53.3,149.6v-11.8c0-3.6-1.5-7.8-1.5-8v-0.2h12.6v0.2c0,0.2-1.5,4.4-1.5,8v12.9c0,7.1,2.9,10.1,7.5,10.1
			c4.6,0,7.5-3.1,7.5-9.7v-9.2c0-5.5-3-11.7-3-12v-0.3h9.2v0.3c0,0.3-3,6.5-3,12v9.2c0,9.8-6,13.7-13.3,13.7
			C61,164.8,53.3,161.2,53.3,149.6z"/>
	</g>
	<path class="st0" d="M224.1,75.2c-1-0.5-2-0.8-3-0.8c1.4-3.8,1.5-7.8,0.3-11.5c-3.8,0.9-7.2,3.1-9.7,6.3c-0.6-0.9-1.3-1.6-2.3-2.1
		c-3.2-1.8-7.3-0.6-9.2,2.6c-1.8,3.3-0.7,7.4,2.5,9.2c1.7,0.9,3.6,1.1,5.3,0.5c-3,3.2-7.3,5.3-12,5.3c-7.5,0-13.7-5-15.7-11.8
		c1.2,1.3,2.9,2.1,4.8,2.1c3.7,0,6.7-3,6.7-6.8c0-3.7-3-6.8-6.7-6.8c-1.1,0-2.1,0.3-3,0.7c-0.6-4-2.5-7.6-5.4-10.2
		C174,54.5,172,58,171.4,62c-0.9-0.5-1.9-0.7-3-0.7c-3.7,0-6.7,3-6.7,6.8c0,3.7,3,6.8,6.7,6.8c1.9,0,3.6-0.8,4.8-2.1
		c-2,6.8-8.2,11.8-15.7,11.8c-4.7,0-9-2-12-5.3c1.7,0.5,3.6,0.4,5.3-0.5c3.2-1.8,4.4-5.9,2.5-9.2c-1.8-3.3-5.9-4.4-9.2-2.6
		c-1,0.5-1.7,1.3-2.3,2.1c-2.5-3.2-5.9-5.4-9.7-6.3c-1.2,3.7-1.2,7.7,0.3,11.5c-1,0-2,0.3-3,0.8c-3.2,1.8-4.4,5.9-2.5,9.2
		c1.8,3.3,5.9,4.4,9.2,2.6c1.2-0.7,2.1-1.6,2.7-2.8c1.9,3.5,2.9,7.6,2.9,11.8c0,1.6-0.1,3.1-0.4,4.6c-0.1,0.3,0.1,0.5,0.4,0.6
		c10.1,1.5,22.1,2.4,35.1,2.4s25-0.9,35.1-2.4c0.3,0,0.5-0.3,0.4-0.6c-0.3-1.5-0.4-3-0.4-4.6c0-4.3,1.1-8.3,2.9-11.8
		c0.6,1.1,1.5,2.1,2.7,2.8c3.2,1.8,7.3,0.6,9.2-2.6C228.5,81.1,227.3,77,224.1,75.2z"/>
</g>
<g id="SAFE_ZONE" class="st1">
	<path class="st2" d="M224.1,23.4c-1-0.5-2-0.8-3-0.8c1.4-3.8,1.5-7.8,0.3-11.5c-3.8,0.9-7.2,3.1-9.7,6.3c-0.6-0.9-1.3-1.6-2.3-2.1
		c-3.2-1.8-7.3-0.6-9.2,2.6c-1.8,3.3-0.7,7.4,2.5,9.2c1.7,0.9,3.6,1.1,5.3,0.5c-3,3.2-7.3,5.3-12,5.3c-7.5,0-13.7-5-15.7-11.8
		c1.2,1.3,2.9,2.1,4.8,2.1c3.7,0,6.7-3,6.7-6.8c0-3.7-3-6.8-6.7-6.8c-1.1,0-2.1,0.3-3,0.7c-0.6-4-2.5-7.6-5.4-10.2
		c-2.8,2.6-4.8,6.2-5.4,10.2c-0.9-0.5-1.9-0.7-3-0.7c-3.7,0-6.7,3-6.7,6.8c0,3.7,3,6.8,6.7,6.8c1.9,0,3.6-0.8,4.8-2.1
		c-2,6.8-8.2,11.8-15.7,11.8c-4.7,0-9-2-12-5.3c1.7,0.5,3.6,0.4,5.3-0.5c3.2-1.8,4.4-5.9,2.5-9.2c-1.8-3.3-5.9-4.4-9.2-2.6
		c-1,0.5-1.7,1.3-2.3,2.1c-2.5-3.2-5.9-5.4-9.7-6.3c-1.2,3.7-1.2,7.7,0.3,11.5c-1,0-2,0.3-3,0.8c-3.2,1.8-4.4,5.9-2.5,9.2
		c1.8,3.3,5.9,4.4,9.2,2.6c1.2-0.7,2.1-1.6,2.7-2.8c1.9,3.5,2.9,7.6,2.9,11.8c0,1.6-0.1,3.1-0.4,4.6c-0.1,0.3,0.1,0.5,0.4,0.6
		c10.1,1.5,22.1,2.4,35.1,2.4s25-0.9,35.1-2.4c0.3,0,0.5-0.3,0.4-0.6c-0.3-1.5-0.4-3-0.4-4.6c0-4.3,1.1-8.3,2.9-11.8
		c0.6,1.1,1.5,2.1,2.7,2.8c3.2,1.8,7.3,0.6,9.2-2.6C228.5,29.3,227.3,25.2,224.1,23.4z"/>
	<path class="st2" d="M224.1,244.5c-1,0.5-2,0.8-3,0.8c1.4,3.8,1.5,7.8,0.3,11.5c-3.8-0.9-7.2-3.1-9.7-6.3c-0.6,0.9-1.3,1.6-2.3,2.1
		c-3.2,1.8-7.3,0.6-9.2-2.6c-1.8-3.3-0.7-7.4,2.5-9.2c1.7-0.9,3.6-1.1,5.3-0.5c-3-3.2-7.3-5.3-12-5.3c-7.5,0-13.7,5-15.7,11.8
		c1.2-1.3,2.9-2.1,4.8-2.1c3.7,0,6.7,3,6.7,6.8c0,3.7-3,6.8-6.7,6.8c-1.1,0-2.1-0.3-3-0.7c-0.6,4-2.5,7.6-5.4,10.2
		c-2.8-2.6-4.8-6.2-5.4-10.2c-0.9,0.5-1.9,0.7-3,0.7c-3.7,0-6.7-3-6.7-6.8c0-3.7,3-6.8,6.7-6.8c1.9,0,3.6,0.8,4.8,2.1
		c-2-6.8-8.2-11.8-15.7-11.8c-4.7,0-9,2-12,5.3c1.7-0.5,3.6-0.4,5.3,0.5c3.2,1.8,4.4,5.9,2.5,9.2c-1.8,3.3-5.9,4.4-9.2,2.6
		c-1-0.5-1.7-1.3-2.3-2.1c-2.5,3.2-5.9,5.4-9.7,6.3c-1.2-3.7-1.2-7.7,0.3-11.5c-1,0-2-0.3-3-0.8c-3.2-1.8-4.4-5.9-2.5-9.2
		c1.8-3.3,5.9-4.4,9.2-2.6c1.2,0.7,2.1,1.6,2.7,2.8c1.9-3.5,2.9-7.6,2.9-11.8c0-1.6-0.1-3.1-0.4-4.6c-0.1-0.3,0.1-0.5,0.4-0.6
		c10.1-1.5,22.1-2.4,35.1-2.4s25,0.9,35.1,2.4c0.3,0,0.5,0.3,0.4,0.6c-0.3,1.5-0.4,3-0.4,4.6c0,4.3,1.1,8.3,2.9,11.8
		c0.6-1.1,1.5-2.1,2.7-2.8c3.2-1.8,7.3-0.6,9.2,2.6C228.5,238.6,227.3,242.7,224.1,244.5z"/>
	<path class="st2" d="M23.4,82.3c-0.5,1-0.8,2-0.8,3c-3.8-1.4-7.8-1.5-11.5-0.3c0.9,3.8,3.1,7.2,6.3,9.7c-0.9,0.6-1.6,1.3-2.1,2.3
		c-1.8,3.2-0.6,7.3,2.6,9.2c3.3,1.8,7.4,0.7,9.2-2.5c0.9-1.7,1.1-3.6,0.5-5.3c3.2,3,5.3,7.3,5.3,12c0,7.5-5,13.7-11.8,15.7
		c1.3-1.2,2.1-2.9,2.1-4.8c0-3.7-3-6.7-6.8-6.7c-3.7,0-6.8,3-6.8,6.7c0,1.1,0.3,2.1,0.7,3c-4,0.6-7.6,2.5-10.2,5.4
		c2.6,2.8,6.2,4.8,10.2,5.4c-0.5,0.9-0.7,1.9-0.7,3c0,3.7,3,6.7,6.8,6.7c3.7,0,6.8-3,6.8-6.7c0-1.9-0.8-3.6-2.1-4.8
		c6.8,2,11.8,8.2,11.8,15.7c0,4.7-2,9-5.3,12c0.5-1.7,0.4-3.6-0.5-5.3c-1.8-3.2-5.9-4.4-9.2-2.5c-3.3,1.8-4.4,5.9-2.6,9.2
		c0.5,1,1.3,1.7,2.1,2.3c-3.2,2.5-5.4,5.9-6.3,9.7c3.7,1.2,7.7,1.2,11.5-0.3c0,1,0.3,2,0.8,3c1.8,3.2,5.9,4.4,9.2,2.5
		c3.3-1.8,4.4-5.9,2.6-9.2c-0.7-1.2-1.6-2.1-2.8-2.7c3.5-1.9,7.6-2.9,11.8-2.9c1.6,0,3.1,0.1,4.6,0.4c0.3,0.1,0.5-0.1,0.6-0.4
		c1.5-10.1,2.4-22.1,2.4-35.1s-0.9-25-2.4-35.1c0-0.3-0.3-0.5-0.6-0.4c-1.5,0.3-3,0.4-4.6,0.4c-4.3,0-8.3-1.1-11.8-2.9
		c1.1-0.6,2.1-1.5,2.8-2.7c1.8-3.2,0.6-7.3-2.6-9.2C29.3,77.9,25.2,79.1,23.4,82.3z"/>
	<path class="st2" d="M330.2,207.1c0.5-1,0.8-2,0.8-3c3.8,1.4,7.8,1.5,11.5,0.3c-0.9-3.8-3.1-7.2-6.3-9.7c0.9-0.6,1.6-1.3,2.1-2.3
		c1.8-3.2,0.6-7.3-2.6-9.2c-3.3-1.8-7.4-0.7-9.2,2.5c-0.9,1.7-1.1,3.6-0.5,5.3c-3.2-3-5.3-7.3-5.3-12c0-7.5,5-13.7,11.8-15.7
		c-1.3,1.2-2.1,2.9-2.1,4.8c0,3.7,3,6.7,6.8,6.7c3.7,0,6.8-3,6.8-6.7c0-1.1-0.3-2.1-0.7-3c4-0.6,7.6-2.5,10.2-5.4
		c-2.6-2.8-6.2-4.8-10.2-5.4c0.5-0.9,0.7-1.9,0.7-3c0-3.7-3-6.7-6.8-6.7c-3.7,0-6.8,3-6.8,6.7c0,1.9,0.8,3.6,2.1,4.8
		c-6.8-2-11.8-8.2-11.8-15.7c0-4.7,2-9,5.3-12c-0.5,1.7-0.4,3.6,0.5,5.3c1.8,3.2,5.9,4.4,9.2,2.5c3.3-1.8,4.4-5.9,2.6-9.2
		c-0.5-1-1.3-1.7-2.1-2.3c3.2-2.5,5.4-5.9,6.3-9.7c-3.7-1.2-7.7-1.2-11.5,0.3c0-1-0.3-2-0.8-3c-1.8-3.2-5.9-4.4-9.2-2.5
		c-3.3,1.8-4.4,5.9-2.6,9.2c0.7,1.2,1.6,2.1,2.8,2.7c-3.5,1.9-7.6,2.9-11.8,2.9c-1.6,0-3.1-0.1-4.6-0.4c-0.3-0.1-0.5,0.1-0.6,0.4
		c-1.5,10.1-2.4,22.1-2.4,35.1s0.9,25,2.4,35.1c0,0.3,0.3,0.5,0.6,0.4c1.5-0.3,3-0.4,4.6-0.4c4.3,0,8.3,1.1,11.8,2.9
		c-1.1,0.6-2.1,1.5-2.8,2.7c-1.8,3.2-0.6,7.3,2.6,9.2C324.3,211.5,328.4,210.3,330.2,207.1z"/>
	<g class="st3">
		<g>
			<polyline class="st4" points="301.7,213 301.7,216 298.7,216 			"/>
			<line class="st5" x1="295.8" y1="216" x2="56.3" y2="216"/>
			<polyline class="st4" points="54.8,216 51.8,216 51.8,213 			"/>
			<line class="st6" x1="51.8" y1="210" x2="51.8" y2="56.4"/>
			<polyline class="st4" points="51.8,54.8 51.8,51.8 54.8,51.8 			"/>
			<line class="st5" x1="57.8" y1="51.8" x2="297.3" y2="51.8"/>
			<polyline class="st4" points="298.7,51.8 301.7,51.8 301.7,54.8 			"/>
			<line class="st6" x1="301.7" y1="57.9" x2="301.7" y2="211.5"/>
		</g>
	</g>
	<g class="st3">
		<g>
			<polyline class="st4" points="353.6,264.9 353.6,267.9 350.6,267.9 			"/>
			<line class="st7" x1="347.6" y1="267.9" x2="4.5" y2="267.9"/>
			<polyline class="st4" points="3,267.9 0,267.9 0,264.9 			"/>
			<line class="st8" x1="0" y1="261.9" x2="0" y2="4.5"/>
			<polyline class="st4" points="0,3 0,0 3,0 			"/>
			<line class="st7" x1="6" y1="0" x2="349.1" y2="0"/>
			<polyline class="st4" points="350.6,0 353.6,0 353.6,3 			"/>
			<line class="st8" x1="353.6" y1="6" x2="353.6" y2="263.4"/>
		</g>
	</g>
</g>
<g id="KOTY" class="st1">
	<g class="st9">
		<g>
			<line class="st10" x1="42.5" y1="216" x2="45.5" y2="216"/>
			<line class="st11" x1="48.5" y1="216" x2="305.2" y2="216"/>
			<line class="st10" x1="306.7" y1="216" x2="309.7" y2="216"/>
		</g>
	</g>
	<g class="st9">
		<g>
			<line class="st10" x1="42.5" y1="181.5" x2="45.5" y2="181.5"/>
			<line class="st11" x1="48.5" y1="181.5" x2="305.2" y2="181.5"/>
			<line class="st10" x1="306.7" y1="181.5" x2="309.7" y2="181.5"/>
		</g>
	</g>
	<g class="st9">
		<g>
			<line class="st10" x1="42.5" y1="164.2" x2="45.5" y2="164.2"/>
			<line class="st11" x1="48.5" y1="164.2" x2="305.2" y2="164.2"/>
			<line class="st10" x1="306.7" y1="164.2" x2="309.7" y2="164.2"/>
		</g>
	</g>
	<g class="st9">
		<g>
			<line class="st10" x1="42.5" y1="129.6" x2="45.5" y2="129.6"/>
			<line class="st11" x1="48.5" y1="129.6" x2="305.2" y2="129.6"/>
			<line class="st10" x1="306.7" y1="129.6" x2="309.7" y2="129.6"/>
		</g>
	</g>
	<g class="st9">
		<g>
			<line class="st10" x1="42.5" y1="103.7" x2="45.5" y2="103.7"/>
			<line class="st11" x1="48.5" y1="103.7" x2="305.2" y2="103.7"/>
			<line class="st10" x1="306.7" y1="103.7" x2="309.7" y2="103.7"/>
		</g>
	</g>
	<g class="st9">
		<g>
			<line class="st10" x1="42.5" y1="51.8" x2="45.5" y2="51.8"/>
			<line class="st11" x1="48.5" y1="51.8" x2="305.2" y2="51.8"/>
			<line class="st10" x1="306.7" y1="51.8" x2="309.7" y2="51.8"/>
		</g>
	</g>
	<rect x="7" y="51.2" class="st12" width="34" height="52.4"/>
	<text transform="matrix(1 0 0 1 24.5101 80.4017)" class="st13 st14 st15">1.5 ×</text>
	<rect x="7" y="103.6" class="st12" width="34" height="26"/>
	<text transform="matrix(1 0 0 1 18.702 119.6154)" class="st13 st14 st15">0.75 ×</text>
	<rect x="7" y="129.6" class="st12" width="34" height="34.6"/>
	<text transform="matrix(1 0 0 1 31.558 149.8952)" class="st13 st14 st15">1 ×</text>
	<rect x="7" y="181.4" class="st12" width="34" height="34.6"/>
	<text transform="matrix(1 0 0 1 31.558 201.6607)" class="st13 st14 st15">1 ×</text>
	<rect x="7" y="164.2" class="st12" width="34" height="17.2"/>
	<text transform="matrix(1 0 0 1 23.1419 175.7784)" class="st13 st14 st15">0.5 ×</text>
</g>
</svg>
