<?xml version="1.0" encoding="utf-8"?>
<!-- Generator: Adobe Illustrator 27.0.1, SVG Export Plug-In . SVG Version: 6.00 Build 0)  -->
<svg version="1.1" xmlns="http://www.w3.org/2000/svg" xmlns:xlink="http://www.w3.org/1999/xlink" x="0px" y="0px"
	 viewBox="0 0 126 116.1" style="enable-background:new 0 0 126 116.1;" xml:space="preserve">
<style type="text/css">
	.st0{fill:#FFFFFF;}
	.st1{display:none;}
	.st2{display:inline;}
	.st3{fill:none;stroke:#C40D3C;stroke-width:0.1;stroke-miterlimit:10;}
	.st4{fill:none;stroke:#C40D3C;stroke-width:0.1;stroke-miterlimit:10;stroke-dasharray:6.3894,3.1947;}
	.st5{fill:none;stroke:#C40D3C;stroke-width:0.1;stroke-miterlimit:10;stroke-dasharray:6.3527,3.1764;}
	.st6{fill:none;stroke:#C40D3C;stroke-width:0.1;stroke-miterlimit:10;stroke-dasharray:6.0021,3.001;}
	.st7{fill:none;stroke:#C40D3C;stroke-width:0.1;stroke-miterlimit:10;stroke-dasharray:5.9518,2.9759;}
	.st8{display:inline;opacity:0.1;fill:#C40D3C;}
	.st9{display:inline;opacity:0.7;}
	.st10{fill:none;stroke:#003E5B;stroke-width:0.1;stroke-miterlimit:10;}
	.st11{fill:none;stroke:#003E5B;stroke-width:0.1;stroke-miterlimit:10;stroke-dasharray:5.9722,2.9861;}
	.st12{fill:none;stroke:#003E5B;stroke-width:0.1;stroke-miterlimit:10;stroke-dasharray:5.7719,2.886;}
	.st13{display:inline;fill:none;}
	.st14{display:inline;opacity:0.5;fill:#003E5B;}
	.st15{font-family:'Silka-Regular';}
	.st16{font-size:8px;}
</style>
<g id="LOGO">
	<path class="st0" d="M99.5,36.1c-0.5-0.3-0.9-0.4-1.4-0.4c0.7-1.8,0.7-3.8,0.1-5.5c-1.8,0.4-3.5,1.5-4.6,3c-0.3-0.4-0.6-0.8-1.1-1
		c-1.6-0.9-3.5-0.3-4.4,1.3c-0.9,1.6-0.3,3.5,1.2,4.4c0.8,0.5,1.7,0.5,2.5,0.3c-1.4,1.5-3.5,2.5-5.8,2.5c-3.6,0-6.6-2.4-7.5-5.7
		c0.6,0.6,1.4,1,2.3,1c1.8,0,3.2-1.5,3.2-3.2c0-1.8-1.4-3.2-3.2-3.2c-0.5,0-1,0.1-1.5,0.4c-0.3-1.9-1.2-3.6-2.6-4.9
		c-1.4,1.3-2.3,3-2.6,4.9c-0.4-0.2-0.9-0.4-1.5-0.4c-1.8,0-3.2,1.5-3.2,3.2c0,1.8,1.4,3.2,3.2,3.2c0.9,0,1.7-0.4,2.3-1
		c-1,3.3-4,5.7-7.5,5.7c-2.3,0-4.3-1-5.8-2.5c0.8,0.3,1.7,0.2,2.5-0.3c1.6-0.9,2.1-2.8,1.2-4.4c-0.9-1.6-2.8-2.1-4.4-1.3
		c-0.5,0.3-0.8,0.6-1.1,1c-1.2-1.5-2.8-2.6-4.6-3c-0.6,1.8-0.6,3.7,0.1,5.5c-0.5,0-1,0.1-1.4,0.4c-1.6,0.9-2.1,2.8-1.2,4.4
		c0.9,1.6,2.8,2.1,4.4,1.3c0.6-0.3,1-0.8,1.3-1.3c0.9,1.7,1.4,3.6,1.4,5.7c0,0.8-0.1,1.5-0.2,2.2c0,0.1,0.1,0.3,0.2,0.3
		c4.8,0.7,10.6,1.1,16.8,1.1c6.2,0,12-0.4,16.8-1.1c0.1,0,0.2-0.1,0.2-0.3c-0.1-0.7-0.2-1.5-0.2-2.2c0-2.1,0.5-4,1.4-5.7
		c0.3,0.5,0.7,1,1.3,1.3c1.6,0.9,3.5,0.3,4.4-1.3C101.6,38.9,101.1,37,99.5,36.1z"/>
	<path class="st0" d="M26.4,76.6V64.9c0-3.6-1.5-7.8-1.5-8v-0.2h12.6v0.2c0,0.2-1.5,4.4-1.5,8v12.9c0,7.1,2.9,10.1,7.5,10.1
		c4.6,0,7.5-3.1,7.5-9.7V69c0-5.5-3-11.7-3-12v-0.3h9.2V57c0,0.3-3,6.5-3,12v9.2c0,9.8-6,13.7-13.3,13.7
		C34,91.8,26.4,88.3,26.4,76.6z"/>
	<path class="st0" d="M72.4,91.2H59.8V91c0-0.2,1.5-4.4,1.5-8V64.9c0-3.6-1.5-7.8-1.5-8v-0.2h12.6v0.2c0,0.2-1.5,4.4-1.5,8V83
		c0,3.6,1.5,7.8,1.5,8V91.2z M77.9,84.1l-6.4-9.9c-0.1-0.2-0.2-0.3,0.1-0.6l4.1-3.8l4.5-4.2c4-3.7,2.3-8.4,2.3-8.7v-0.3h11.4v0.2
		c-2,1.3-4.2,3.3-6.9,5.8l-7.6,7.1l10.1,14.5c2.1,3,5.4,6.6,5.4,6.8v0.2H80.1C80.1,91,79.9,87.2,77.9,84.1z"/>
</g>
<g id="SAFE_ZONE" class="st1">
	<g class="st2">
		<g>
			<polyline class="st3" points="101.2,88.2 101.2,91.2 98.2,91.2 			"/>
			<line class="st4" x1="95" y1="91.2" x2="29.5" y2="91.2"/>
			<polyline class="st3" points="27.9,91.2 24.9,91.2 24.9,88.2 			"/>
			<line class="st5" x1="24.9" y1="85.1" x2="24.9" y2="29.5"/>
			<polyline class="st3" points="24.9,27.9 24.9,24.9 27.9,24.9 			"/>
			<line class="st4" x1="31.1" y1="24.9" x2="96.6" y2="24.9"/>
			<polyline class="st3" points="98.2,24.9 101.2,24.9 101.2,27.9 			"/>
			<line class="st5" x1="101.2" y1="31.1" x2="101.2" y2="86.6"/>
		</g>
	</g>
	<g class="st2">
		<g>
			<polyline class="st3" points="126,113.1 126,116.1 123,116.1 			"/>
			<line class="st6" x1="120" y1="116.1" x2="4.5" y2="116.1"/>
			<polyline class="st3" points="3,116.1 0,116.1 0,113.1 			"/>
			<line class="st7" x1="0" y1="110.1" x2="0" y2="4.5"/>
			<polyline class="st3" points="0,3 0,0 3,0 			"/>
			<line class="st6" x1="6" y1="0" x2="121.5" y2="0"/>
			<polyline class="st3" points="123,0 126,0 126,3 			"/>
			<line class="st7" x1="126" y1="6" x2="126" y2="111.6"/>
		</g>
	</g>
	<path class="st8" d="M99.5,11.2c-0.5-0.3-0.9-0.4-1.4-0.4C98.8,9,98.8,7,98.2,5.3c-1.8,0.4-3.5,1.5-4.6,3c-0.3-0.4-0.6-0.8-1.1-1
		c-1.6-0.9-3.5-0.3-4.4,1.3c-0.9,1.6-0.3,3.5,1.2,4.4c0.8,0.5,1.7,0.5,2.5,0.3c-1.4,1.5-3.5,2.5-5.8,2.5c-3.6,0-6.6-2.4-7.5-5.7
		c0.6,0.6,1.4,1,2.3,1c1.8,0,3.2-1.5,3.2-3.2c0-1.8-1.4-3.2-3.2-3.2c-0.5,0-1,0.1-1.5,0.4C79.1,3,78.2,1.3,76.8,0
		c-1.4,1.3-2.3,3-2.6,4.9c-0.4-0.2-0.9-0.4-1.5-0.4c-1.8,0-3.2,1.5-3.2,3.2c0,1.8,1.4,3.2,3.2,3.2c0.9,0,1.7-0.4,2.3-1
		c-1,3.3-4,5.7-7.5,5.7c-2.3,0-4.3-1-5.8-2.5c0.8,0.3,1.7,0.2,2.5-0.3c1.6-0.9,2.1-2.8,1.2-4.4c-0.9-1.6-2.8-2.1-4.4-1.3
		c-0.5,0.3-0.8,0.6-1.1,1c-1.2-1.5-2.8-2.6-4.6-3C54.9,7,54.9,9,55.6,10.8c-0.5,0-1,0.1-1.4,0.4c-1.6,0.9-2.1,2.8-1.2,4.4
		c0.9,1.6,2.8,2.1,4.4,1.3c0.6-0.3,1-0.8,1.3-1.3c0.9,1.7,1.4,3.6,1.4,5.7c0,0.8-0.1,1.5-0.2,2.2c0,0.1,0.1,0.3,0.2,0.3
		c4.8,0.7,10.6,1.1,16.8,1.1c6.2,0,12-0.4,16.8-1.1c0.1,0,0.2-0.1,0.2-0.3c-0.1-0.7-0.2-1.5-0.2-2.2c0-2.1,0.5-4,1.4-5.7
		c0.3,0.5,0.7,1,1.3,1.3c1.6,0.9,3.5,0.3,4.4-1.3C101.6,14.1,101.1,12.1,99.5,11.2z"/>
	<path class="st8" d="M99.5,104.9c-0.5,0.3-0.9,0.4-1.4,0.4c0.7,1.8,0.7,3.8,0.1,5.5c-1.8-0.4-3.5-1.5-4.6-3c-0.3,0.4-0.6,0.8-1.1,1
		c-1.6,0.9-3.5,0.3-4.4-1.3c-0.9-1.6-0.3-3.5,1.2-4.4c0.8-0.5,1.7-0.5,2.5-0.3c-1.4-1.5-3.5-2.5-5.8-2.5c-3.6,0-6.6,2.4-7.5,5.7
		c0.6-0.6,1.4-1,2.3-1c1.8,0,3.2,1.5,3.2,3.2c0,1.8-1.4,3.2-3.2,3.2c-0.5,0-1-0.1-1.5-0.4c-0.3,1.9-1.2,3.6-2.6,4.9
		c-1.4-1.3-2.3-3-2.6-4.9c-0.4,0.2-0.9,0.4-1.5,0.4c-1.8,0-3.2-1.5-3.2-3.2c0-1.8,1.4-3.2,3.2-3.2c0.9,0,1.7,0.4,2.3,1
		c-1-3.3-4-5.7-7.5-5.7c-2.3,0-4.3,1-5.8,2.5c0.8-0.3,1.7-0.2,2.5,0.3c1.6,0.9,2.1,2.8,1.2,4.4c-0.9,1.6-2.8,2.1-4.4,1.3
		c-0.5-0.3-0.8-0.6-1.1-1c-1.2,1.5-2.8,2.6-4.6,3c-0.6-1.8-0.6-3.7,0.1-5.5c-0.5,0-1-0.1-1.4-0.4c-1.6-0.9-2.1-2.8-1.2-4.4
		c0.9-1.6,2.8-2.1,4.4-1.3c0.6,0.3,1,0.8,1.3,1.3c0.9-1.7,1.4-3.6,1.4-5.7c0-0.8-0.1-1.5-0.2-2.2c0-0.1,0.1-0.3,0.2-0.3
		c4.8-0.7,10.6-1.1,16.8-1.1c6.2,0,12,0.4,16.8,1.1c0.1,0,0.2,0.1,0.2,0.3c-0.1,0.7-0.2,1.5-0.2,2.2c0,2.1,0.5,4,1.4,5.7
		c0.3-0.5,0.7-1,1.3-1.3c1.6-0.9,3.5-0.3,4.4,1.3C101.6,102.1,101.1,104,99.5,104.9z"/>
	<path class="st8" d="M11.2,79.4c-0.3-0.5-0.4-0.9-0.4-1.4C9,78.6,7,78.6,5.3,78.1c0.4-1.8,1.5-3.5,3-4.6c-0.4-0.3-0.8-0.6-1-1.1
		c-0.9-1.6-0.3-3.5,1.3-4.4c1.6-0.9,3.5-0.3,4.4,1.2c0.5,0.8,0.5,1.7,0.3,2.5c1.5-1.4,2.5-3.5,2.5-5.8c0-3.6-2.4-6.6-5.7-7.5
		c0.6,0.6,1,1.4,1,2.3c0,1.8-1.5,3.2-3.2,3.2c-1.8,0-3.2-1.4-3.2-3.2c0-0.5,0.1-1,0.4-1.5C3,59,1.3,58,0,56.7c1.3-1.4,3-2.3,4.9-2.6
		c-0.2-0.4-0.4-0.9-0.4-1.5c0-1.8,1.5-3.2,3.2-3.2c1.8,0,3.2,1.4,3.2,3.2c0,0.9-0.4,1.7-1,2.3c3.3-1,5.7-4,5.7-7.5
		c0-2.3-1-4.3-2.5-5.8c0.3,0.8,0.2,1.7-0.3,2.5c-0.9,1.6-2.8,2.1-4.4,1.2c-1.6-0.9-2.1-2.8-1.3-4.4c0.3-0.5,0.6-0.8,1-1.1
		c-1.5-1.2-2.6-2.8-3-4.6c1.8-0.6,3.7-0.6,5.5,0.1c0-0.5,0.1-1,0.4-1.4c0.9-1.6,2.8-2.1,4.4-1.2c1.6,0.9,2.1,2.8,1.3,4.4
		c-0.3,0.6-0.8,1-1.3,1.3c1.7,0.9,3.6,1.4,5.7,1.4c0.8,0,1.5-0.1,2.2-0.2c0.1,0,0.3,0.1,0.3,0.2c0.7,4.8,1.1,10.6,1.1,16.8
		s-0.4,12-1.1,16.8c0,0.1-0.1,0.2-0.3,0.2c-0.7-0.1-1.5-0.2-2.2-0.2c-2.1,0-4,0.5-5.7,1.4c0.5,0.3,1,0.7,1.3,1.3
		c0.9,1.6,0.3,3.5-1.3,4.4C14.1,81.5,12.1,80.9,11.2,79.4z"/>
	<path class="st8" d="M114.8,16.3c0.3,0.5,0.4,0.9,0.4,1.4c1.8-0.7,3.8-0.7,5.5-0.1c-0.4,1.8-1.5,3.5-3,4.6c0.4,0.3,0.8,0.6,1,1.1
		c0.9,1.6,0.3,3.5-1.3,4.4c-1.6,0.9-3.5,0.3-4.4-1.2c-0.5-0.8-0.5-1.7-0.3-2.5c-1.5,1.4-2.5,3.5-2.5,5.8c0,3.6,2.4,6.6,5.7,7.5
		c-0.6-0.6-1-1.4-1-2.3c0-1.8,1.5-3.2,3.2-3.2c1.8,0,3.2,1.4,3.2,3.2c0,0.5-0.1,1-0.4,1.5c1.9,0.3,3.6,1.2,4.9,2.6
		c-1.3,1.4-3,2.3-4.9,2.6c0.2,0.4,0.4,0.9,0.4,1.5c0,1.8-1.5,3.2-3.2,3.2c-1.8,0-3.2-1.4-3.2-3.2c0-0.9,0.4-1.7,1-2.3
		c-3.3,1-5.7,4-5.7,7.5c0,2.3,1,4.3,2.5,5.8c-0.3-0.8-0.2-1.7,0.3-2.5c0.9-1.6,2.8-2.1,4.4-1.2c1.6,0.9,2.1,2.8,1.3,4.4
		c-0.3,0.5-0.6,0.8-1,1.1c1.5,1.2,2.6,2.8,3,4.6c-1.8,0.6-3.7,0.6-5.5-0.1c0,0.5-0.1,1-0.4,1.4c-0.9,1.6-2.8,2.1-4.4,1.2
		c-1.6-0.9-2.1-2.8-1.3-4.4c0.3-0.6,0.8-1,1.3-1.3c-1.7-0.9-3.6-1.4-5.7-1.4c-0.8,0-1.5,0.1-2.2,0.2c-0.1,0-0.3-0.1-0.3-0.2
		c-0.7-4.8-1.1-10.6-1.1-16.8s0.4-12,1.1-16.8c0-0.1,0.1-0.2,0.3-0.2c0.7,0.1,1.5,0.2,2.2,0.2c2.1,0,4-0.5,5.7-1.4
		c-0.5-0.3-1-0.7-1.3-1.3c-0.9-1.6-0.3-3.5,1.3-4.4C112,14.2,114,14.8,114.8,16.3z"/>
</g>
<g id="KOTY" class="st1">
	<g class="st9">
		<g>
			<line class="st10" x1="20.5" y1="91.2" x2="23.5" y2="91.2"/>
			<line class="st11" x1="26.5" y1="91.2" x2="96.7" y2="91.2"/>
			<line class="st10" x1="98.2" y1="91.2" x2="101.2" y2="91.2"/>
		</g>
	</g>
	<g class="st9">
		<g>
			<line class="st10" x1="20.5" y1="56.7" x2="23.5" y2="56.7"/>
			<line class="st11" x1="26.5" y1="56.7" x2="96.7" y2="56.7"/>
			<line class="st10" x1="98.2" y1="56.7" x2="101.2" y2="56.7"/>
		</g>
	</g>
	<g class="st9">
		<g>
			<line class="st10" x1="20.5" y1="49.8" x2="23.5" y2="49.8"/>
			<line class="st11" x1="26.5" y1="49.8" x2="96.7" y2="49.8"/>
			<line class="st10" x1="98.2" y1="49.8" x2="101.2" y2="49.8"/>
		</g>
	</g>
	<g class="st9">
		<g>
			<line class="st10" x1="93.9" y1="37.2" x2="93.9" y2="40.2"/>
			<line class="st12" x1="93.9" y1="43.1" x2="93.9" y2="93.6"/>
			<line class="st10" x1="93.9" y1="95.1" x2="93.9" y2="98.1"/>
		</g>
	</g>
	<g class="st9">
		<g>
			<line class="st10" x1="59.8" y1="37.2" x2="59.8" y2="40.2"/>
			<line class="st12" x1="59.8" y1="43.1" x2="59.8" y2="93.6"/>
			<line class="st10" x1="59.8" y1="95.1" x2="59.8" y2="98.1"/>
		</g>
	</g>
	<rect x="-14.4" y="49.8" class="st13" width="34" height="6.9"/>
	<text transform="matrix(1 0 0 1 1.9811 56.214)" class="st14 st15 st16">0.2 ×</text>
	<rect x="-14.4" y="56.7" class="st13" width="34" height="34.6"/>
	<text transform="matrix(1 0 0 1 10.2208 76.9499)" class="st14 st15 st16">1 ×</text>
</g>
</svg>
