<?xml version="1.0" encoding="UTF-8" standalone="no"?>
<!-- Created with Inkscape (http://www.inkscape.org/) -->

<svg
   version="1.1"
   id="svg1"
   width="1208.7192"
   height="125.20457"
   viewBox="0 0 1208.7192 125.20457"
   sodipodi:docname="Screenshot 2024-01-22 at 11.41.17.png"
   xmlns:inkscape="http://www.inkscape.org/namespaces/inkscape"
   xmlns:sodipodi="http://sodipodi.sourceforge.net/DTD/sodipodi-0.dtd"
   xmlns="http://www.w3.org/2000/svg"
   xmlns:svg="http://www.w3.org/2000/svg">
  <defs
     id="defs1" />
  <sodipodi:namedview
     id="namedview1"
     pagecolor="#ffffff"
     bordercolor="#000000"
     borderopacity="0.25"
     inkscape:showpageshadow="2"
     inkscape:pageopacity="0.0"
     inkscape:pagecheckerboard="0"
     inkscape:deskcolor="#d1d1d1" />
  <g
     inkscape:groupmode="layer"
     inkscape:label="Image"
     id="g1"
     transform="translate(-24.973723,-50.731053)">
    <path
       style="fill:#030303"
       d="m 227.45336,175.9346 c -3.77505,-0.0226 -7.98888,-0.52552 -10.98861,-1.3114 -2.67604,-0.70108 -6.72604,-2.25044 -9,-3.44302 -2.34837,-1.23161 -6.17676,-4.19311 -8.86194,-6.85527 -3.57092,-3.5403 -5.40869,-6.07326 -7.51201,-10.3536 -1.5315,-3.11667 -3.22393,-7.76667 -3.76096,-10.33334 -0.53703,-2.56666 -0.97642,-6.91666 -0.97642,-9.66666 0,-2.75 0.43703,-7.1 0.97117,-9.66667 0.53414,-2.56667 2.21003,-7.12848 3.7242,-10.13736 1.78944,-3.55585 4.09602,-6.82268 6.58993,-9.33333 2.11028,-2.12445 5.75418,-4.995585 8.09755,-6.380284 2.34337,-1.38471 6.21067,-3.14671 8.594,-3.91555 2.87509,-0.92748 6.80114,-1.50451 11.66667,-1.71469 5.3624,-0.23165 8.56957,-0.0267 11.93304,0.76241 2.52983,0.59356 6.48933,1.98104 8.79887,3.08328 2.30955,1.10225 5.88911,3.548574 7.95457,5.436294 2.06547,1.88772 4.88518,5.10479 6.26602,7.14906 1.38085,2.04426 3.28219,5.66684 4.2252,8.05017 0.94301,2.38333 2.18881,6.64569 2.76844,9.47189 0.57962,2.82621 1.05386,7.10121 1.05386,9.5 v 4.36144 h -29.41666 -29.41667 l 0.41064,2.05323 c 0.22586,1.12927 0.90128,3.08716 1.50095,4.35086 0.59966,1.2637 2.41901,3.46722 4.043,4.89671 1.62398,1.42949 4.3395,3.0716 6.03448,3.64914 1.69498,0.57753 4.47389,1.05006 6.17535,1.05006 1.70147,0 4.72071,-0.4832 6.70942,-1.07379 2.55429,-0.75854 4.48409,-1.94203 6.57324,-4.03118 l 2.95739,-2.95739 11.3811,1.14144 c 6.2596,0.62779 11.48496,1.22069 11.6119,1.31754 0.12694,0.0968 -0.76505,2.07223 -1.9822,4.38974 -1.21886,2.32075 -4.16766,6.18653 -6.56414,8.60536 -3.20984,3.23978 -5.83748,5.11904 -10.0178,7.16462 -3.11666,1.5251 -7.86128,3.22383 -10.54358,3.77495 -2.68231,0.55113 -7.63231,0.98553 -11,0.96534 z m -0.0957,-49.96329 h 17.78387 l -0.45125,-1.83334 c -0.24817,-1.00833 -1.20698,-3.13161 -2.1307,-4.71839 -0.96478,-1.65734 -2.99782,-3.72114 -4.77747,-4.84976 -1.7039,-1.08058 -4.30261,-2.29066 -5.77492,-2.68907 -1.4723,-0.39841 -4.34863,-0.5743 -6.39184,-0.39087 -2.04321,0.18344 -4.89321,0.94051 -6.33334,1.68239 -1.44012,0.74187 -3.55982,2.35015 -4.71043,3.57395 -1.15062,1.2238 -2.53762,3.12509 -3.08221,4.22509 -0.5446,1.1 -1.1984,2.675 -1.4529,3.5 l -0.46271,1.5 z m 101.99926,49.955 c -2.94796,-0.0248 -6.70993,-0.41251 -8.35993,-0.86169 -1.65,-0.44919 -4.48086,-1.55394 -6.2908,-2.45501 -1.80994,-0.90106 -4.73494,-3.07759 -6.5,-4.83672 l -3.2092,-3.19841 v 4.69841 4.69842 H 293.66361 282.33028 V 113.30464 52.637976 h 11.33333 11.33334 v 25.42456 25.424564 l 3.35355,-3.13686 c 1.84445,-1.725264 4.91945,-3.823554 6.83333,-4.662844 1.91388,-0.8393 5.09015,-1.90718 7.05837,-2.37306 2.25658,-0.53413 5.9508,-0.72241 10,-0.50967 4.55243,0.23919 7.73815,0.82459 10.94543,2.01132 2.4882,0.92066 5.7829,2.53225 7.32154,3.5813 1.53864,1.049049 4.08191,3.178534 5.6517,4.732194 1.5698,1.55366 4.00923,4.61193 5.42097,6.79617 1.41174,2.18423 3.43267,6.61305 4.49095,9.84183 1.75056,5.34085 1.92018,6.68248 1.88,14.87049 -0.0387,7.89588 -0.26278,9.66071 -1.8262,14.38561 -0.98012,2.96208 -2.93376,7.16208 -4.34141,9.33333 -1.40766,2.17125 -4.40402,5.65056 -6.65859,7.7318 -2.25457,2.08124 -5.98107,4.69976 -8.2811,5.81892 -2.30003,1.11917 -5.9699,2.49134 -8.15527,3.04926 -2.18537,0.55793 -6.38537,0.99417 -9.33334,0.96942 z m -3.35993,-20.15746 c 2.98647,-0.16218 5.63756,-0.7512 7.3633,-1.63596 1.48314,-0.7604 3.9327,-2.72351 5.44345,-4.36249 1.51075,-1.63897 3.17557,-3.83926 3.6996,-4.88952 0.52402,-1.05027 1.33516,-3.32282 1.80254,-5.05012 0.46737,-1.7273 0.72544,-5.0273 0.57348,-7.33333 -0.17131,-2.59987 -0.92365,-5.58583 -1.98024,-7.85946 -0.93719,-2.01666 -2.57356,-4.53134 -3.63638,-5.58817 -1.06283,-1.05682 -2.98242,-2.58577 -4.26575,-3.39767 -1.28334,-0.81189 -3.93176,-1.85775 -5.88539,-2.32414 -2.16182,-0.51609 -4.90155,-0.67048 -7,-0.39446 -1.89637,0.24944 -4.74688,1.10011 -6.33446,1.89038 -1.58758,0.79027 -3.89959,2.55821 -5.13779,3.92875 -1.23821,1.37055 -2.86776,3.70029 -3.62122,5.17721 -0.75347,1.47692 -1.61879,4.50487 -1.92293,6.72877 -0.30589,2.23677 -0.28911,5.72613 0.0376,7.80932 0.3248,2.07123 1.36024,5.18005 2.30098,6.9085 0.94074,1.72845 2.68226,4.08456 3.87004,5.2358 1.18778,1.15124 3.92966,2.83946 6.09306,3.75159 3.24249,1.3671 4.75325,1.61391 8.60014,1.405 z M 456.997,175.69058 c -5.1832,0.17641 -9.07037,-0.0545 -12,-0.71286 -2.38334,-0.53558 -6.80532,-2.19417 -9.82662,-3.68573 -3.27359,-1.61612 -7.15854,-4.24919 -9.61443,-6.51631 -2.26663,-2.09241 -5.27286,-5.58085 -6.68052,-7.7521 -1.40765,-2.17125 -3.27954,-6.22748 -4.15976,-9.01385 -0.88021,-2.78637 -1.79644,-7.45989 -2.03606,-10.38561 -0.29536,-3.60618 -0.11174,-7.1216 0.57011,-10.91472 0.63697,-3.54353 2.00302,-7.67354 3.72534,-11.26296 2.15856,-4.49855 3.78217,-6.71828 7.87075,-10.76052 3.03557,-3.00117 6.84495,-5.980174 9.27522,-7.253414 2.26821,-1.18833 6.4412,-2.75323 9.27331,-3.47756 3.29188,-0.84193 7.35684,-1.31697 11.26932,-1.31697 3.92338,0 7.97808,0.47521 11.29663,1.32395 2.84712,0.72817 7.57798,2.60317 10.51302,4.16666 3.79514,2.021664 6.61507,4.191834 9.7634,7.513744 2.43483,2.56906 5.39763,6.50293 6.584,8.74193 1.18638,2.239 2.66312,5.98704 3.28166,8.32898 0.71329,2.70067 1.12462,6.81833 1.12462,11.25807 0,4.43501 -0.41137,8.55747 -1.12266,11.25043 -0.61746,2.33774 -2.24084,6.37833 -3.60751,8.9791 -1.36667,2.60078 -4.26243,6.62892 -6.43504,8.95144 -2.1726,2.32252 -5.92597,5.38477 -8.34082,6.80501 -2.41484,1.42023 -6.34063,3.23252 -8.72396,4.0273 -3.12432,1.04188 -6.47236,1.51786 -12,1.70599 z m -2.86615,-19.78624 c 0.80695,0.0368 3.05062,-0.27262 4.98593,-0.68767 1.93532,-0.41505 4.60623,-1.44113 5.93537,-2.28018 1.32915,-0.83905 3.4724,-2.75899 4.7628,-4.26652 1.29039,-1.50754 2.86978,-4.40567 3.50975,-6.4403 0.8601,-2.73449 1.09109,-5.20669 0.88566,-9.47884 -0.23018,-4.78673 -0.6079,-6.38515 -2.19886,-9.30512 -1.05652,-1.93908 -3.19392,-4.699 -4.74979,-6.13314 -1.86228,-1.7166 -4.13642,-2.98766 -6.65574,-3.72005 -2.69438,-0.78328 -4.92907,-0.98353 -7.55127,-0.67668 -2.0484,0.23971 -4.96256,1.03419 -6.47589,1.76552 -1.51334,0.73132 -3.88013,2.42577 -5.25953,3.76543 -1.37941,1.33966 -3.2585,4.07503 -4.17577,6.0786 -1.31702,2.87676 -1.67958,4.77879 -1.72397,9.04439 -0.0399,3.83128 0.32659,6.45097 1.26062,9.01153 0.72426,1.9855 2.63085,5.07297 4.23686,6.86105 1.60602,1.78807 3.77127,3.69123 4.81167,4.22924 1.0404,0.53801 3.02639,1.24541 4.41331,1.57199 1.38691,0.32658 3.1819,0.62392 3.98885,0.66075 z m 182.86616,19.7964 c -4.95,0.10701 -10.40075,-0.06 -12.11277,-0.37112 -1.71202,-0.31113 -4.84232,-1.06849 -6.95622,-1.68302 -2.11391,-0.61453 -6.11317,-2.26005 -8.88724,-3.65672 -2.77408,-1.39666 -6.84377,-3.90726 -9.04377,-5.57911 -2.2,-1.67185 -4.86325,-3.77143 -5.91833,-4.66574 -1.29911,-1.10116 -1.73963,-1.91884 -1.36474,-2.5332 0.30447,-0.49895 3.08312,-4.35719 6.17478,-8.57386 3.09166,-4.21666 5.86095,-7.93182 6.15397,-8.25589 0.29352,-0.32462 2.1416,0.78523 4.11527,2.47139 1.97037,1.68334 5.36522,4.13582 7.5441,5.44995 2.17889,1.31413 6.44524,3.16505 9.48078,4.11316 4.5639,1.42546 6.42358,1.67147 10.74453,1.42133 4.10493,-0.23763 5.87833,-0.68516 8.27061,-2.08712 1.67488,-0.98154 3.73389,-2.75176 4.57558,-3.9338 1.12493,-1.57982 1.59359,-3.3011 1.76908,-6.49743 0.21833,-3.97645 0.0659,-4.58555 -1.7822,-7.12347 -1.11151,-1.52637 -3.32802,-3.67452 -4.92558,-4.77367 -1.59756,-1.09915 -8.88962,-5.00996 -16.20458,-8.69069 -8.4178,-4.23565 -14.76826,-7.90932 -17.29994,-10.00782 -2.2,-1.82357 -5.11806,-4.78749 -6.48457,-6.5865 -1.36652,-1.799 -3.24943,-4.941575 -4.18425,-6.983484 -0.93482,-2.04192 -1.95196,-5.76834 -2.26032,-8.28093 -0.32215,-2.62506 -0.2977,-6.49867 0.0575,-9.10619 0.33998,-2.49581 1.22127,-5.94581 1.95844,-7.66666 0.73717,-1.72086 2.53502,-4.71189 3.99521,-6.64674 1.46019,-1.93485 4.50304,-4.86271 6.76189,-6.50635 2.25885,-1.64364 6.38388,-3.8665 9.16674,-4.93968 2.78286,-1.07319 7.12348,-2.31063 9.64582,-2.74988 2.70522,-0.47109 7.33884,-0.65059 11.29815,-0.43768 4.61851,0.24836 8.37559,0.90315 12.0454,2.0993 2.93334,0.95609 7.51441,2.85896 10.18017,4.2286 2.66576,1.36964 7.08948,4.14026 9.83049,6.15693 2.74101,2.01666 4.98494,3.92514 4.9865,4.24106 0.002,0.31592 -2.92216,4.2763 -6.49716,8.80086 -3.575,4.52456 -6.8285,8.24108 -7.23001,8.25894 -0.4015,0.0179 -1.29088,-0.58729 -1.97639,-1.34478 -0.68552,-0.75748 -3.30086,-2.74305 -5.81187,-4.41237 -2.51101,-1.66931 -6.57164,-3.74322 -9.0236,-4.60869 -2.71149,-0.95706 -5.99498,-1.57908 -8.38078,-1.58763 -2.15746,-0.008 -5.08474,0.33411 -6.50505,0.75965 -1.42032,0.42553 -3.74223,1.76647 -5.1598,2.97986 -1.79284,1.5346 -2.7997,3.08898 -3.30767,5.10632 -0.51198,2.03322 -0.52421,3.64646 -0.0409,5.39676 0.37914,1.37313 1.88064,3.68789 3.33666,5.14391 1.86197,1.86198 6.13461,4.33656 14.4026,8.341554 6.4654,3.13183 13.42963,6.75927 15.47606,8.06098 2.04643,1.30171 5.61795,3.8989 7.93671,5.77153 2.31876,1.87263 5.39098,5.16444 6.82715,7.31512 1.43618,2.15069 3.21401,5.86192 3.95074,8.24719 0.91103,2.94956 1.33952,6.21122 1.33952,10.1964 0,3.98518 -0.42849,7.24684 -1.33952,10.1964 -0.73673,2.38526 -2.55846,6.16223 -4.04828,8.39325 -1.48982,2.23103 -4.26204,5.36711 -6.16049,6.96908 -1.89844,1.60196 -4.80171,3.68699 -6.45171,4.63339 -1.65,0.9464 -5.4,2.53568 -8.33334,3.53173 -4.57337,1.55295 -6.61577,1.83873 -14.33333,2.00558 z m 92.12309,0.23386 c -3.39976,-0.0216 -7.75411,-0.55169 -10.5484,-1.28425 -2.61725,-0.68615 -6.36725,-2.05314 -8.33333,-3.03775 -1.96608,-0.98461 -5.17563,-3.01319 -7.13233,-4.50795 -1.95669,-1.49476 -4.88679,-4.44509 -6.51131,-6.55628 -1.62453,-2.11119 -3.84193,-5.71672 -4.92756,-8.01228 -1.08563,-2.29557 -2.46832,-6.39624 -3.07266,-9.1126 -0.7978,-3.58597 -1.00508,-6.78968 -0.75671,-11.69552 0.2138,-4.22316 0.88276,-8.45203 1.78404,-11.27807 0.80811,-2.53389 2.97864,-6.78067 4.93774,-9.661 1.95685,-2.87704 5.19424,-6.50792 7.35401,-8.24787 2.12204,-1.70955 5.55892,-4.013954 7.63751,-5.120904 2.07858,-1.10694 6.16075,-2.63577 9.07147,-3.39739 3.63362,-0.95077 7.29,-1.37732 11.66667,-1.36101 3.50594,0.0131 8.02444,0.43373 10.04111,0.93482 2.01666,0.50109 4.97286,1.3881 6.56931,1.97114 1.59646,0.58303 4.96301,2.42978 7.48122,4.103889 2.51822,1.674095 5.79827,4.451395 7.28901,6.171775 1.49074,1.72038 3.73429,5.22026 4.98567,7.77751 l 2.27523,4.64956 -10.46689,3.19025 -10.46688,3.19025 -0.96244,-1.50648 c -0.52934,-0.82856 -2.53288,-3.06685 -4.4523,-4.97398 -2.68638,-2.66918 -4.3701,-3.7234 -7.31319,-4.57898 -2.68322,-0.78003 -4.9253,-0.98196 -7.51875,-0.67715 -2.03248,0.23888 -5.01126,1.09149 -6.6195,1.89468 -1.60824,0.80319 -3.84093,2.5046 -4.96154,3.7809 -1.12061,1.27631 -2.79162,3.96784 -3.71336,5.98118 -1.10445,2.41244 -1.77996,5.28232 -1.98111,8.41668 -0.20715,3.22776 0.0426,5.95238 0.77707,8.47904 0.60633,2.08568 2.23753,5.18446 3.70912,7.04615 1.76421,2.2319 3.89144,3.9419 6.47785,5.20731 3.18317,1.55738 4.72167,1.88509 8.87126,1.88962 3.86901,0.004 5.64136,-0.32442 7.72893,-1.43319 1.48979,-0.79127 3.79918,-2.56136 5.13197,-3.93354 1.3328,-1.37219 2.77528,-3.3447 3.20551,-4.38337 0.43023,-1.03866 1.12084,-1.88335 1.53469,-1.87707 0.41385,0.006 5.08015,1.34898 10.36956,2.98378 5.28941,1.6348 9.83841,3.20466 10.10888,3.48858 0.27047,0.28393 -0.44871,2.46623 -1.59817,4.84956 -1.36917,2.83891 -3.63221,5.87085 -6.56203,8.79161 -3.28301,3.27286 -5.94696,5.17181 -10.01895,7.14184 -3.05076,1.47596 -7.74145,3.14474 -10.42376,3.70839 -2.6823,0.56366 -7.4823,1.00831 -10.66666,0.98812 z m 135.66667,0 c -3.77504,-0.0226 -7.98888,-0.52552 -10.98861,-1.3114 -2.67603,-0.70108 -6.72603,-2.25044 -9,-3.44302 -2.34837,-1.23161 -6.17675,-4.19311 -8.86194,-6.85527 -3.57023,-3.53962 -5.40925,-6.07408 -7.51264,-10.3536 -1.53185,-3.11667 -3.25913,-7.91667 -3.83841,-10.66667 -0.74118,-3.51857 -0.9516,-6.97524 -0.7102,-11.66667 0.20429,-3.97013 0.89793,-8.41941 1.71489,-11 0.75452,-2.38333 2.5048,-6.24599 3.88951,-8.58368 1.38471,-2.3377 4.06803,-5.77654 5.96293,-7.64187 1.8949,-1.86534 5.34032,-4.537365 7.65648,-5.937854 2.31616,-1.40049 6.16579,-3.17365 8.55472,-3.94035 2.87002,-0.9211 6.83129,-1.50147 11.67686,-1.71079 5.36239,-0.23165 8.56956,-0.0267 11.93303,0.76241 2.52984,0.59356 6.57984,2.01656 9,3.16223 3.14544,1.489 5.82619,3.528904 9.4003,7.153134 3.40683,3.4546 5.68578,6.49006 7.15225,9.5265 1.18373,2.45102 2.77633,6.65102 3.53912,9.33333 0.76278,2.68232 1.5629,7.80194 1.77803,11.37694 l 0.39115,6.5 h -29.43027 c -27.58688,0 -29.42987,0.0731 -29.42377,1.16667 0.004,0.64167 0.71276,2.68335 1.57596,4.53707 0.86319,1.85372 2.84523,4.46244 4.40454,5.79715 1.55931,1.33471 4.20357,2.89303 5.87614,3.46293 1.67257,0.5699 4.43314,1.03618 6.13461,1.03618 1.70146,0 4.7207,-0.4832 6.70942,-1.07379 2.55428,-0.75854 4.48408,-1.94203 6.57323,-4.03118 l 2.9574,-2.95739 11.38109,1.14144 c 6.25961,0.62779 11.48496,1.22069 11.6119,1.31754 0.12694,0.0968 -0.76505,2.07223 -1.9822,4.38974 -1.22894,2.33995 -4.18925,6.21265 -6.65728,8.70909 -3.3638,3.40253 -5.79928,5.1418 -10.0178,7.1541 -3.06543,1.46226 -7.76813,3.11432 -10.45044,3.67122 -2.6823,0.55691 -7.6323,0.99605 -11,0.97586 z m -0.0957,-49.96329 h 17.78379 l -0.45121,-1.83334 c -0.24817,-1.00833 -1.20698,-3.13161 -2.13069,-4.71839 -0.96478,-1.65734 -2.99783,-3.72114 -4.77748,-4.84976 -1.7039,-1.08058 -4.30261,-2.29066 -5.77491,-2.68907 -1.47231,-0.39841 -4.34864,-0.5743 -6.39185,-0.39087 -2.04321,0.18344 -4.89321,0.94051 -6.33333,1.68239 -1.44013,0.74187 -3.55982,2.35015 -4.71044,3.57395 -1.15062,1.2238 -2.53761,3.12509 -3.08221,4.22509 -0.5446,1.1 -1.1984,2.675 -1.45289,3.5 l -0.46272,1.5 z m 185.77303,49.94446 c -3.1903,-0.0306 -7.5323,-0.47515 -9.649,-0.98799 -2.1167,-0.51285 -5.4167,-1.59279 -7.3333,-2.39987 -1.9167,-0.80708 -4.8349,-2.37714 -6.4849,-3.48903 -1.65,-1.11188 -4.2491,-3.17128 -5.7758,-4.57645 -1.5266,-1.40517 -4.0002,-4.43436 -5.4969,-6.73154 -1.4966,-2.29718 -3.5182,-6.40785 -4.4923,-9.13481 -1.4022,-3.92506 -1.8355,-6.55908 -2.0799,-12.64197 -0.2301,-5.72831 -0.033,-8.78232 0.775,-12 0.596,-2.37387 2.1764,-6.56614 3.5121,-9.31614 1.7628,-3.62949 3.7253,-6.28026 7.1597,-9.67075 2.9673,-2.92924 6.5211,-5.608335 9.5311,-7.185334 2.6399,-1.38302 7.1129,-3.10617 9.94,-3.82924 3.2831,-0.83968 7.3515,-1.31467 11.2604,-1.31467 3.9583,0 7.9801,0.47574 11.3861,1.34684 2.8964,0.74077 6.7694,2.12367 8.6067,3.07312 1.8373,0.94946 4.8405,2.873429 6.6738,4.275494 1.8334,1.40207 4.4765,4.05066 5.8737,5.88577 1.3972,1.83511 3.2722,4.85358 4.1667,6.70773 0.8945,1.85414 1.6263,3.62345 1.6263,3.93178 0,0.30834 -4.6835,1.97626 -10.4079,3.70651 -5.7243,1.73024 -10.4722,3.05444 -10.5509,2.94266 -0.079,-0.11178 -0.8164,-1.32307 -1.6394,-2.69176 -0.823,-1.36868 -2.737,-3.55044 -4.2533,-4.84835 -1.5163,-1.29791 -4.2495,-2.80308 -6.0737,-3.34482 -1.8242,-0.54174 -4.4079,-0.98498 -5.7415,-0.98498 -1.3335,0 -3.9353,0.44861 -5.7816,0.99691 -1.959,0.58177 -4.6312,2.11856 -6.4169,3.69038 -1.7304,1.5232 -3.8727,4.34868 -4.9307,6.50309 -1.6893,3.43999 -1.8708,4.48881 -1.8708,10.80962 0,6.02161 0.2137,7.40022 1.5289,9.86338 0.8409,1.57485 2.5684,4.01399 3.8389,5.4203 1.2705,1.40631 3.8825,3.24991 5.8045,4.09689 2.6299,1.15899 4.7313,1.54112 8.4944,1.54468 3.8094,0.004 5.6458,-0.33261 7.7121,-1.41198 1.4917,-0.77919 3.8305,-2.65454 5.1973,-4.16745 1.3668,-1.5129 2.8195,-3.48463 3.2282,-4.38161 0.4087,-0.89698 1.0449,-1.63087 1.4137,-1.63087 0.3689,0 5.0457,1.38111 10.393,3.06914 5.3473,1.68802 9.8407,3.18133 9.9853,3.31847 0.1446,0.13713 -0.2558,1.60748 -0.8897,3.26743 -0.634,1.65996 -2.4641,4.79957 -4.067,6.97692 -1.7511,2.37876 -4.8074,5.2883 -7.6575,7.28987 -2.6088,1.8321 -6.747,4.07661 -9.196,4.98781 -2.449,0.9112 -6.0425,1.9793 -7.9855,2.37354 -1.9431,0.39425 -6.1431,0.69182 -9.3334,0.66128 z m 89.2595,0.0188 c -4.0434,-0.0232 -8.1817,-0.50523 -11.2589,-1.3114 -2.676,-0.70108 -6.7144,-2.25956 -8.9741,-3.46329 -2.2598,-1.20373 -5.8968,-3.8386 -8.0823,-5.85527 -2.1854,-2.01667 -5.0981,-5.40119 -6.4727,-7.52115 -1.3745,-2.11997 -3.296,-6.16997 -4.27,-9 -1.2969,-3.76805 -1.8668,-7.01943 -2.1289,-12.14552 -0.1991,-3.89429 -0.039,-8.69776 0.3606,-10.82661 0.3952,-2.10464 1.524,-5.85464 2.5084,-8.33334 0.9844,-2.47869 2.705,-5.85671 3.8235,-7.50671 1.1185,-1.65 3.6274,-4.5397 5.5752,-6.42156 1.9479,-1.88185 5.5631,-4.469905 8.0337,-5.751234 2.4707,-1.28134 6.1422,-2.89012 8.1588,-3.57509 2.8359,-0.9632 5.6304,-1.24615 12.3334,-1.24875 5.4562,-0.002 9.9014,0.34539 12,0.9381 1.8333,0.51781 5.2833,1.84388 7.6666,2.94682 3.0298,1.40208 5.7454,3.425194 9.0272,6.725194 2.9735,2.98998 5.5811,6.43022 7.1146,9.38652 1.3314,2.56666 3.0612,7.06666 3.844,10 0.7829,2.93333 1.6004,8.10833 1.8168,11.5 l 0.3933,6.16669 h -29.4312 c -29.1419,0 -29.4313,0.0133 -29.4313,1.35475 0,0.74511 0.4124,2.34193 0.9166,3.54848 0.5041,1.20656 1.8953,3.30839 3.0914,4.67074 1.1962,1.36235 3.4956,3.25103 5.1099,4.19708 1.9875,1.16473 4.2874,1.82863 7.1234,2.05628 2.8637,0.22987 5.4381,-0.0258 8.1402,-0.8084 3.0037,-0.87001 4.6357,-1.85636 6.8023,-4.11142 l 2.8506,-2.96682 11.4828,1.14474 c 6.3155,0.62961 11.5866,1.22182 11.7136,1.31601 0.1269,0.0942 -0.7731,2.06575 -2,4.38123 -1.227,2.31547 -4.1808,6.18956 -6.5642,8.60909 -3.0528,3.09924 -5.8107,5.11966 -9.3333,6.83753 -2.75,1.34111 -7.373,3.03816 -10.2733,3.77121 -3.545,0.896 -7.3687,1.32081 -11.6667,1.29613 z m -0.4256,-49.96329 h 17.7243 l -0.4249,-1.83331 c -0.2336,-1.00833 -1.1657,-3.13161 -2.0711,-4.71839 -0.9642,-1.68989 -2.9296,-3.69897 -4.7442,-4.84976 -1.7039,-1.08058 -4.3026,-2.29066 -5.7749,-2.68907 -1.4723,-0.39841 -4.3486,-0.5743 -6.3919,-0.39087 -2.0432,0.18344 -4.8932,0.94051 -6.3333,1.68239 -1.4401,0.74187 -3.5598,2.35015 -4.7104,3.57395 -1.1506,1.2238 -2.5376,3.12509 -3.0822,4.22509 -0.5446,1.1 -1.1984,2.675 -1.4529,3.5 l -0.4627,1.5 z m -1070.643353,48 H 54.61111 L 39.780833,113.80464 C 31.624182,80.712976 24.96099,53.412976 24.973741,53.137976 c 0.01275,-0.275 5.83757,-0.5 12.944042,-0.5 H 50.83864 l 0.683299,2.83333 c 0.375815,1.55834 4.530758,20.75834 9.233207,42.66667 4.70245,21.908334 8.724193,39.833334 8.937208,39.833334 0.213015,0 5.495512,-19.125 11.738882,-42.499994 l 11.35158,-42.50001 12.773734,-0.18106 c 7.02554,-0.0996 12.77372,-0.0501 12.77372,0.11 0,0.16008 5.12498,19.44154 11.38884,42.84768 6.26386,23.406134 11.48266,42.650434 11.59732,42.765104 0.11467,0.11466 0.81413,-2.43531 1.55436,-5.66662 0.74023,-3.23131 5.01513,-22.3751 9.49978,-42.541764 4.48465,-20.16667 8.35718,-36.89864 8.60563,-37.18216 0.24845,-0.28353 5.84473,-0.43353 12.43618,-0.33334 l 11.98445,0.18216 -14.72857,60.333334 -14.72857,60.33333 -14.10308,0.17983 -14.10307,0.17982 -0.57749,-2.17982 c -0.31763,-1.19891 -5.34654,-20.40483 -11.17537,-42.67983 -5.82883,-22.275 -10.78149,-40.499994 -11.00591,-40.499994 -0.22442,0 -5.328494,19.199994 -11.342384,42.666664 l -10.93434,42.66667 z m 459.675713,0 h -11.3334 v -29.97499 -29.97498 l -6.16667,-0.19168 -6.16666,-0.19169 -0.18498,-9.5 -0.18497,-9.499994 h 6.27718 6.27718 l 0.31462,-14.16667 c 0.24341,-10.96008 0.56627,-14.85416 1.4264,-17.204 0.61147,-1.67054 2.00952,-4.12647 3.10677,-5.45762 1.09726,-1.33116 3.71389,-3.26311 5.81474,-4.29322 3.36029,-1.64765 4.72794,-1.90215 11.37054,-2.11594 4.15294,-0.13366 9.77794,-0.0343 12.5,0.22077 l 4.94919,0.46377 v 10.31123 10.31124 l -5.64487,-0.45803 c -3.85296,-0.31262 -6.25921,-0.20355 -7.58019,0.34362 -1.06442,0.4409 -2.27423,1.54547 -2.68847,2.45461 -0.44051,0.96683 -0.75314,5.37587 -0.75314,10.62161 v 8.96866 h 7.66667 7.66666 v 9.666664 9.66667 h -7.66666 -7.66667 v 30 30 z m 270.00002,0 h -11.33333 v -30 -30 h -5.66667 -5.66667 v -9.66664 -9.666664 h 17 17.00001 v 39.666664 39.66667 z m 132.66668,0 H 919.66365 V 134.30464 94.637976 h 11 11 v 4.418239 4.418235 l 2.93986,-2.70986 c 1.61692,-1.490425 4.54192,-3.523784 6.5,-4.518584 1.95808,-0.99479 5.06015,-2.21 6.89348,-2.70046 1.83333,-0.49046 5.58333,-0.89174 8.33333,-0.89174 2.75,0 6.54495,0.41135 8.43325,0.91412 1.8882,0.50277 4.9747,1.75316 6.8589,2.77864 1.8841,1.02549 4.5929,3.130749 6.0194,4.678354 1.4266,1.54761 3.2608,4.11866 4.0761,5.71344 0.8153,1.59479 1.9299,4.39961 2.4768,6.23295 0.7917,2.65378 1.055,9.21143 1.2917,32.16666 l 0.2972,28.83334 h -11.7267 -11.7267 v -25.28994 c 0,-16.24764 -0.2535,-25.96095 -0.709,-27.16666 -0.39,-1.03221 -1.51502,-2.72631 -2.50003,-3.76467 -0.985,-1.03837 -2.84092,-2.33695 -4.12425,-2.88573 -1.28333,-0.54878 -4.02225,-1.00421 -6.08648,-1.01206 -2.34953,-0.009 -4.89692,0.49167 -6.81149,1.33857 -1.68208,0.74407 -4.56817,2.76512 -6.41352,4.49123 l -3.35518,3.13838 v 25.57544 25.57544 z M 1194.9969,85.971306 h -2.6666 v -10.33333 -10.33333 h -3.6667 -3.6667 v -2.33334 -2.33333 h 10.3334 10.3333 v 2.33333 2.33334 h -4 -4 v 10.33333 10.33333 z m 16.7519,0 h -2.7813 l 0.1814,-12.5 0.1814,-12.5 3.0576,-0.19874 3.0576,-0.19874 2.993,7.69307 2.9929,7.69306 2.9494,-7.49432 2.9495,-7.49433 h 3 3 l 0.1814,12.5 0.1813,12.5 h -2.348 -2.3481 l -0.054,-8.83333 c -0.048,-7.79517 -0.1545,-8.59828 -0.9058,-6.83333 -0.4682,1.1 -1.6699,4.175 -2.6705,6.83333 -1.7492,4.64729 -1.9034,4.83333 -4.005,4.83333 -2.1209,0 -2.2413,-0.15335 -4.0573,-5.16666 -1.0294,-2.84167 -2.2459,-6.06667 -2.7035,-7.16667 -0.6989,-1.68021 -0.771,-0.5343 -0.4512,7.16667 l 0.3807,9.16666 z m -411.57562,-4.78106 c -1.56358,0.28355 -4.10391,0.29332 -5.64518,0.0217 -1.54127,-0.27162 -3.49127,-0.84788 -4.33333,-1.28058 -0.84206,-0.43269 -2.51818,-1.72135 -3.7247,-2.86367 -1.38719,-1.31339 -2.56876,-3.36723 -3.21394,-5.58659 -0.82644,-2.84283 -0.87925,-4.18899 -0.27798,-7.0853 0.40827,-1.96662 1.46333,-4.55295 2.34458,-5.74742 0.88124,-1.19446 2.69843,-2.91662 4.03819,-3.827 1.63465,-1.11078 3.72163,-1.77184 6.34461,-2.00968 3.31882,-0.30094 4.45574,-0.0868 7.53355,1.41905 1.99368,0.97541 4.35495,2.74107 5.24728,3.92368 0.89232,1.18261 1.97228,3.16997 2.3999,4.41635 0.42762,1.24638 0.77749,3.23366 0.77749,4.41618 0,1.18252 -0.46276,3.46164 -1.02836,5.0647 -0.56559,1.60307 -1.99059,3.91541 -3.16667,5.13854 -1.17607,1.22313 -2.65902,2.50751 -3.29544,2.85417 -0.63643,0.34667 -2.43643,0.86231 -4,1.14586 z"
       id="path17928" />
  </g>
</svg>
